<?xml version="1.0" encoding="UTF-8" standalone="no"?>
<!DOCTYPE svg PUBLIC "-//W3C//DTD SVG 1.1//EN" "http://www.w3.org/Graphics/SVG/1.1/DTD/svg11.dtd">
<svg width="100%" height="100%" viewBox="0 0 901 201" version="1.1" xmlns="http://www.w3.org/2000/svg" xmlns:xlink="http://www.w3.org/1999/xlink" xml:space="preserve" xmlns:serif="http://www.serif.com/" style="fill-rule:evenodd;clip-rule:evenodd;stroke-linejoin:round;stroke-miterlimit:2;">
    <g transform="matrix(1,0,0,1,-56.2254,-88.6514)">
        <g transform="matrix(1,0,0,1,0,-260.528)">
            <path d="M101.313,349.18L828.22,349.18L828.22,349.181L911.143,349.181C936.045,349.181 956.231,369.368 956.231,394.269L956.231,504.093C956.231,528.994 936.045,549.181 911.143,549.181L801.318,549.181C801.211,549.181 801.104,549.181 800.995,549.18L611.46,549.18C611.351,549.181 611.244,549.181 611.137,549.181L501.313,549.181C501.206,549.181 501.099,549.181 500.99,549.18L101.313,549.18C76.411,549.18 56.225,528.993 56.225,504.092L56.225,394.268C56.225,369.367 76.411,349.18 101.313,349.18Z" style="fill:rgb(6,199,85);"/>
        </g>
        <g transform="matrix(0.625,0,0,0.625,222.885,200.122)">
            <path d="M0,-33.428C0,-81.168 -47.859,-120.008 -106.688,-120.008C-165.513,-120.008 -213.377,-81.168 -213.377,-33.428C-213.377,9.37 -175.422,45.214 -124.151,51.989C-120.678,52.74 -115.948,54.281 -114.753,57.251C-113.677,59.947 -114.049,64.173 -114.407,66.897C-114.407,66.897 -115.659,74.426 -115.931,76.031C-116.396,78.726 -118.075,86.58 -106.688,81.783C-95.302,76.984 -45.248,45.603 -22.864,19.842L-22.869,19.842C-7.408,2.885 0,-14.323 0,-33.428" style="fill:white;fill-rule:nonzero;"/>
        </g>
        <g transform="matrix(0.625,0,0,0.625,200.702,164.811)">
            <path d="M0,50.635L-29.974,50.635C-31.099,50.635 -32.011,49.724 -32.011,48.598L-32.011,2.037C-32.011,0.912 -31.099,0 -29.974,0L0,0C1.12,0 2.037,0.916 2.037,2.037L2.037,9.603C2.037,10.728 1.125,11.64 0,11.64L-20.37,11.64L-20.37,19.497L0,19.497C1.12,19.497 2.037,20.414 2.037,21.534L2.037,29.101C2.037,30.226 1.125,31.138 0,31.138L-20.37,31.138L-20.37,38.995L0,38.995C1.12,38.995 2.037,39.911 2.037,41.031L2.037,48.598C2.037,49.724 1.125,50.635 0,50.635" style="fill:rgb(6,199,85);fill-rule:nonzero;"/>
        </g>
        <g transform="matrix(0.625,0,0,0.625,131.406,164.811)">
            <path d="M0,50.635C1.125,50.635 2.037,49.724 2.037,48.598L2.037,41.031C2.037,39.911 1.12,38.995 0,38.995L-20.371,38.995L-20.371,2.037C-20.371,0.916 -21.287,0 -22.407,0L-29.974,0C-31.099,0 -32.011,0.912 -32.011,2.037L-32.011,48.598C-32.011,49.724 -31.099,50.635 -29.974,50.635L0,50.635Z" style="fill:rgb(6,199,85);fill-rule:nonzero;"/>
        </g>
        <g transform="matrix(0.625,0,0,0.625,142.683,196.458)">
            <path d="M0,-50.636L-7.565,-50.636C-8.69,-50.636 -9.603,-49.723 -9.603,-48.599L-9.603,-2.037C-9.603,-0.912 -8.69,0 -7.565,0L0,0C1.126,0 2.037,-0.912 2.037,-2.037L2.037,-48.599C2.037,-49.723 1.126,-50.636 0,-50.636" style="fill:rgb(6,199,85);fill-rule:nonzero;"/>
        </g>
        <g transform="matrix(0.625,0,0,0.625,174.876,196.458)">
            <path d="M0,-50.636L-7.566,-50.636C-8.691,-50.636 -9.603,-49.723 -9.603,-48.599L-9.603,-20.944L-30.906,-49.713C-30.956,-49.787 -31.012,-49.857 -31.07,-49.923C-31.074,-49.928 -31.078,-49.933 -31.083,-49.938C-31.122,-49.982 -31.163,-50.025 -31.206,-50.065L-31.244,-50.1C-31.28,-50.132 -31.316,-50.163 -31.354,-50.194L-31.41,-50.235C-31.444,-50.26 -31.48,-50.284 -31.518,-50.309C-31.538,-50.322 -31.559,-50.334 -31.58,-50.346C-31.617,-50.368 -31.654,-50.389 -31.692,-50.408C-31.714,-50.419 -31.735,-50.43 -31.757,-50.44C-31.796,-50.458 -31.836,-50.475 -31.876,-50.491C-31.898,-50.499 -31.92,-50.507 -31.942,-50.515C-31.983,-50.53 -32.024,-50.543 -32.066,-50.555C-32.09,-50.562 -32.114,-50.568 -32.139,-50.574C-32.179,-50.583 -32.219,-50.592 -32.26,-50.6C-32.288,-50.605 -32.317,-50.609 -32.346,-50.614C-32.383,-50.618 -32.419,-50.623 -32.456,-50.626C-32.492,-50.63 -32.528,-50.631 -32.564,-50.632C-32.588,-50.633 -32.611,-50.636 -32.635,-50.636L-40.159,-50.636C-41.284,-50.636 -42.196,-49.723 -42.196,-48.599L-42.196,-2.037C-42.196,-0.912 -41.284,0 -40.159,0L-32.593,0C-31.468,0 -30.556,-0.912 -30.556,-2.037L-30.556,-29.683L-9.226,-0.878C-9.079,-0.67 -8.899,-0.5 -8.7,-0.365C-8.692,-0.36 -8.685,-0.354 -8.677,-0.349C-8.636,-0.321 -8.592,-0.295 -8.549,-0.271C-8.529,-0.26 -8.51,-0.248 -8.489,-0.239C-8.457,-0.221 -8.425,-0.205 -8.391,-0.191C-8.357,-0.175 -8.325,-0.161 -8.291,-0.148C-8.27,-0.139 -8.248,-0.131 -8.227,-0.124C-8.181,-0.108 -8.134,-0.092 -8.086,-0.079C-8.076,-0.076 -8.066,-0.073 -8.057,-0.072C-7.887,-0.027 -7.709,0 -7.524,0L0,0C1.125,0 2.037,-0.912 2.037,-2.037L2.037,-48.599C2.037,-49.723 1.125,-50.636 0,-50.636" style="fill:rgb(6,199,85);fill-rule:nonzero;"/>
        </g>
        <g transform="matrix(5.19231,0,0,5.19231,-1228.07,-2469.33)">
            <g transform="matrix(11.1704,0,0,11.1704,285.439,516.096)">
                <path d="M0.515,-0.047C0.515,-0.06 0.51,-0.074 0.498,-0.087C0.471,-0.116 0.371,-0.206 0.32,-0.257C0.315,-0.262 0.312,-0.266 0.312,-0.27C0.312,-0.273 0.315,-0.277 0.322,-0.281C0.375,-0.316 0.419,-0.347 0.478,-0.389C0.492,-0.399 0.498,-0.413 0.498,-0.428C0.498,-0.457 0.473,-0.487 0.443,-0.487C0.433,-0.487 0.422,-0.483 0.411,-0.475C0.222,-0.324 0.218,-0.321 0.203,-0.321C0.196,-0.321 0.187,-0.326 0.187,-0.335C0.187,-0.335 0.188,-0.593 0.191,-0.703L0.191,-0.705C0.191,-0.736 0.165,-0.75 0.139,-0.75C0.105,-0.75 0.083,-0.731 0.084,-0.704C0.086,-0.644 0.087,-0.542 0.087,-0.43C0.087,-0.294 0.085,-0.144 0.082,-0.04L0.082,-0.038C0.082,-0.006 0.108,0.011 0.135,0.011C0.175,0.011 0.187,-0.019 0.186,-0.04C0.184,-0.096 0.183,-0.128 0.183,-0.15C0.183,-0.217 0.183,-0.223 0.206,-0.223C0.215,-0.223 0.222,-0.221 0.226,-0.216C0.269,-0.166 0.388,-0.037 0.417,-0.007C0.429,0.005 0.443,0.011 0.456,0.011C0.487,0.011 0.515,-0.016 0.515,-0.047Z" style="fill:white;fill-rule:nonzero;"/>
            </g>
            <g transform="matrix(11.1704,0,0,11.1704,291.459,516.096)">
                <path d="M0.14,-0.615C0.183,-0.615 0.21,-0.65 0.21,-0.686C0.21,-0.724 0.176,-0.754 0.14,-0.754C0.112,-0.754 0.07,-0.735 0.07,-0.686C0.07,-0.64 0.101,-0.615 0.14,-0.615ZM0.194,-0.037L0.194,-0.039C0.193,-0.094 0.192,-0.165 0.192,-0.234C0.192,-0.318 0.193,-0.397 0.194,-0.438L0.194,-0.44C0.194,-0.472 0.167,-0.488 0.141,-0.488C0.111,-0.488 0.086,-0.47 0.087,-0.437C0.088,-0.41 0.088,-0.37 0.088,-0.325C0.088,-0.234 0.087,-0.12 0.087,-0.037C0.087,-0.003 0.113,0.014 0.14,0.014C0.167,0.014 0.194,-0.003 0.194,-0.037Z" style="fill:white;fill-rule:nonzero;"/>
            </g>
            <g transform="matrix(11.1704,0,0,11.1704,294.587,516.096)">
                <path d="M0.515,-0.047C0.515,-0.06 0.51,-0.074 0.498,-0.087C0.471,-0.116 0.371,-0.206 0.32,-0.257C0.315,-0.262 0.312,-0.266 0.312,-0.27C0.312,-0.273 0.315,-0.277 0.322,-0.281C0.375,-0.316 0.419,-0.347 0.478,-0.389C0.492,-0.399 0.498,-0.413 0.498,-0.428C0.498,-0.457 0.473,-0.487 0.443,-0.487C0.433,-0.487 0.422,-0.483 0.411,-0.475C0.222,-0.324 0.218,-0.321 0.203,-0.321C0.196,-0.321 0.187,-0.326 0.187,-0.335C0.187,-0.335 0.188,-0.593 0.191,-0.703L0.191,-0.705C0.191,-0.736 0.165,-0.75 0.139,-0.75C0.105,-0.75 0.083,-0.731 0.084,-0.704C0.086,-0.644 0.087,-0.542 0.087,-0.43C0.087,-0.294 0.085,-0.144 0.082,-0.04L0.082,-0.038C0.082,-0.006 0.108,0.011 0.135,0.011C0.175,0.011 0.187,-0.019 0.186,-0.04C0.184,-0.096 0.183,-0.128 0.183,-0.15C0.183,-0.217 0.183,-0.223 0.206,-0.223C0.215,-0.223 0.222,-0.221 0.226,-0.216C0.269,-0.166 0.388,-0.037 0.417,-0.007C0.429,0.005 0.443,0.011 0.456,0.011C0.487,0.011 0.515,-0.016 0.515,-0.047Z" style="fill:white;fill-rule:nonzero;"/>
            </g>
            <g transform="matrix(11.1704,0,0,11.1704,300.608,516.096)">
                <path d="M0.296,0.015C0.439,0.015 0.547,-0.087 0.547,-0.238C0.547,-0.384 0.439,-0.491 0.296,-0.491C0.153,-0.491 0.044,-0.384 0.044,-0.238C0.044,-0.087 0.153,0.015 0.296,0.015ZM0.296,-0.079C0.213,-0.079 0.145,-0.14 0.145,-0.238C0.145,-0.337 0.214,-0.399 0.296,-0.399C0.378,-0.399 0.446,-0.337 0.446,-0.238C0.446,-0.14 0.379,-0.079 0.296,-0.079Z" style="fill:white;fill-rule:nonzero;"/>
            </g>
            <g transform="matrix(11.1704,0,0,11.1704,307.21,516.096)">
                <path d="M0.294,-0.388C0.324,-0.388 0.338,-0.412 0.338,-0.435C0.338,-0.459 0.324,-0.482 0.294,-0.482L0.227,-0.482C0.217,-0.482 0.213,-0.483 0.213,-0.499C0.213,-0.499 0.215,-0.537 0.215,-0.564C0.215,-0.577 0.215,-0.625 0.162,-0.625C0.136,-0.625 0.112,-0.61 0.112,-0.58L0.112,-0.577C0.113,-0.566 0.113,-0.554 0.113,-0.542C0.113,-0.519 0.112,-0.499 0.112,-0.499C0.112,-0.485 0.111,-0.482 0.095,-0.482L0.066,-0.482C0.036,-0.482 0.021,-0.459 0.021,-0.436C0.021,-0.412 0.037,-0.388 0.066,-0.388L0.096,-0.388C0.106,-0.388 0.112,-0.387 0.112,-0.374L0.112,-0.359C0.112,-0.315 0.11,-0.215 0.11,-0.157C0.11,-0.116 0.11,0.015 0.258,0.015C0.31,0.015 0.343,-0.002 0.343,-0.038C0.343,-0.06 0.327,-0.082 0.3,-0.082C0.297,-0.082 0.295,-0.081 0.292,-0.081C0.284,-0.08 0.276,-0.079 0.269,-0.079C0.213,-0.079 0.21,-0.111 0.21,-0.189C0.21,-0.255 0.213,-0.34 0.213,-0.377C0.213,-0.383 0.213,-0.388 0.228,-0.388L0.294,-0.388Z" style="fill:white;fill-rule:nonzero;"/>
            </g>
            <g transform="matrix(11.1704,0,0,11.1704,311.343,516.096)">
                <path d="M0.294,-0.388C0.324,-0.388 0.338,-0.412 0.338,-0.435C0.338,-0.459 0.324,-0.482 0.294,-0.482L0.227,-0.482C0.217,-0.482 0.213,-0.483 0.213,-0.499C0.213,-0.499 0.215,-0.537 0.215,-0.564C0.215,-0.577 0.215,-0.625 0.162,-0.625C0.136,-0.625 0.112,-0.61 0.112,-0.58L0.112,-0.577C0.113,-0.566 0.113,-0.554 0.113,-0.542C0.113,-0.519 0.112,-0.499 0.112,-0.499C0.112,-0.485 0.111,-0.482 0.095,-0.482L0.066,-0.482C0.036,-0.482 0.021,-0.459 0.021,-0.436C0.021,-0.412 0.037,-0.388 0.066,-0.388L0.096,-0.388C0.106,-0.388 0.112,-0.387 0.112,-0.374L0.112,-0.359C0.112,-0.315 0.11,-0.215 0.11,-0.157C0.11,-0.116 0.11,0.015 0.258,0.015C0.31,0.015 0.343,-0.002 0.343,-0.038C0.343,-0.06 0.327,-0.082 0.3,-0.082C0.297,-0.082 0.295,-0.081 0.292,-0.081C0.284,-0.08 0.276,-0.079 0.269,-0.079C0.213,-0.079 0.21,-0.111 0.21,-0.189C0.21,-0.255 0.213,-0.34 0.213,-0.377C0.213,-0.383 0.213,-0.388 0.228,-0.388L0.294,-0.388Z" style="fill:white;fill-rule:nonzero;"/>
            </g>
            <g transform="matrix(11.1704,0,0,11.1704,315.476,516.096)">
                <path d="M0.296,0.015C0.439,0.015 0.547,-0.087 0.547,-0.238C0.547,-0.384 0.439,-0.491 0.296,-0.491C0.153,-0.491 0.044,-0.384 0.044,-0.238C0.044,-0.087 0.153,0.015 0.296,0.015ZM0.296,-0.079C0.213,-0.079 0.145,-0.14 0.145,-0.238C0.145,-0.337 0.214,-0.399 0.296,-0.399C0.378,-0.399 0.446,-0.337 0.446,-0.238C0.446,-0.14 0.379,-0.079 0.296,-0.079Z" style="fill:white;fill-rule:nonzero;"/>
            </g>
            <g transform="matrix(11.1704,0,0,11.1704,322.077,516.096)">
                <path d="M0.915,-0.464C0.932,-0.482 0.938,-0.51 0.914,-0.535C0.878,-0.573 0.778,-0.598 0.706,-0.592C0.634,-0.586 0.65,-0.497 0.711,-0.504C0.762,-0.51 0.817,-0.486 0.843,-0.463C0.868,-0.441 0.898,-0.446 0.915,-0.464ZM0.436,-0.263C0.47,-0.279 0.505,-0.293 0.541,-0.301C0.611,-0.317 0.664,-0.314 0.703,-0.299C0.79,-0.267 0.762,-0.196 0.738,-0.164C0.69,-0.1 0.626,-0.101 0.548,-0.139C0.487,-0.169 0.448,-0.087 0.505,-0.054C0.621,0.012 0.761,-0.02 0.826,-0.114C0.877,-0.188 0.904,-0.323 0.739,-0.38C0.688,-0.398 0.603,-0.406 0.517,-0.381C0.49,-0.373 0.461,-0.363 0.433,-0.35C0.432,-0.388 0.432,-0.425 0.433,-0.456C0.465,-0.468 0.497,-0.483 0.527,-0.501C0.597,-0.543 0.536,-0.622 0.482,-0.586C0.47,-0.578 0.457,-0.57 0.442,-0.563C0.444,-0.593 0.445,-0.625 0.447,-0.647C0.452,-0.718 0.342,-0.72 0.346,-0.646C0.348,-0.608 0.35,-0.576 0.35,-0.529C0.311,-0.519 0.274,-0.515 0.249,-0.52C0.166,-0.537 0.154,-0.437 0.228,-0.428C0.266,-0.423 0.307,-0.424 0.348,-0.432C0.348,-0.392 0.349,-0.349 0.35,-0.307C0.291,-0.273 0.24,-0.234 0.209,-0.201C0.156,-0.143 0.123,-0.072 0.242,-0.014C0.324,0.026 0.452,0.028 0.444,-0.115C0.442,-0.158 0.438,-0.21 0.436,-0.263ZM0.351,-0.213C0.352,-0.172 0.352,-0.135 0.351,-0.108C0.35,-0.069 0.321,-0.066 0.278,-0.087C0.255,-0.098 0.255,-0.124 0.276,-0.147C0.297,-0.17 0.322,-0.192 0.351,-0.213Z" style="fill:white;fill-rule:nonzero;"/>
            </g>
            <g transform="matrix(11.1704,0,0,11.1704,333.248,516.096)">
                <path d="M0.875,-0.65C0.895,-0.65 0.917,-0.674 0.917,-0.698C0.917,-0.739 0.832,-0.781 0.809,-0.781C0.787,-0.781 0.764,-0.76 0.764,-0.741C0.764,-0.733 0.769,-0.725 0.779,-0.719C0.803,-0.706 0.83,-0.691 0.851,-0.663C0.858,-0.654 0.866,-0.65 0.875,-0.65ZM0.894,-0.541C0.923,-0.541 0.937,-0.563 0.937,-0.584C0.937,-0.606 0.923,-0.627 0.894,-0.627L0.747,-0.627C0.747,-0.678 0.748,-0.727 0.749,-0.77L0.749,-0.771C0.749,-0.802 0.725,-0.816 0.701,-0.816C0.676,-0.816 0.651,-0.801 0.651,-0.772L0.651,-0.771C0.652,-0.724 0.653,-0.676 0.654,-0.627L0.461,-0.627C0.432,-0.627 0.416,-0.604 0.416,-0.582C0.416,-0.561 0.43,-0.541 0.461,-0.541L0.656,-0.541C0.663,-0.247 0.702,0.048 0.847,0.048C0.944,0.048 0.976,-0.077 0.976,-0.115C0.976,-0.147 0.95,-0.164 0.925,-0.164C0.904,-0.164 0.884,-0.152 0.881,-0.128C0.874,-0.07 0.863,-0.048 0.849,-0.048C0.821,-0.048 0.753,-0.157 0.747,-0.541L0.894,-0.541ZM0.33,-0.699C0.357,-0.699 0.371,-0.719 0.371,-0.739C0.371,-0.759 0.357,-0.779 0.33,-0.779L0.13,-0.779C0.103,-0.779 0.09,-0.759 0.09,-0.739C0.09,-0.719 0.103,-0.699 0.13,-0.699L0.33,-0.699ZM0.363,-0.562C0.392,-0.562 0.406,-0.583 0.406,-0.603C0.406,-0.624 0.392,-0.644 0.363,-0.644L0.089,-0.644C0.06,-0.644 0.046,-0.623 0.046,-0.603C0.046,-0.582 0.06,-0.562 0.089,-0.562L0.363,-0.562ZM0.488,-0.145C0.467,-0.14 0.445,-0.135 0.42,-0.13C0.397,-0.125 0.387,-0.106 0.387,-0.087C0.387,-0.064 0.402,-0.04 0.431,-0.04C0.459,-0.04 0.585,-0.084 0.654,-0.119C0.674,-0.129 0.682,-0.145 0.682,-0.161C0.682,-0.181 0.668,-0.199 0.647,-0.199C0.641,-0.199 0.635,-0.198 0.628,-0.195C0.61,-0.187 0.594,-0.18 0.577,-0.174L0.577,-0.377L0.621,-0.377C0.646,-0.377 0.658,-0.397 0.658,-0.417C0.658,-0.436 0.646,-0.456 0.621,-0.456L0.432,-0.456C0.407,-0.456 0.394,-0.435 0.394,-0.415C0.394,-0.396 0.406,-0.377 0.432,-0.377L0.488,-0.377L0.488,-0.145ZM0.332,-0.432C0.359,-0.432 0.373,-0.452 0.373,-0.472C0.373,-0.492 0.359,-0.512 0.332,-0.512L0.132,-0.512C0.105,-0.512 0.092,-0.492 0.092,-0.472C0.092,-0.452 0.105,-0.432 0.132,-0.432L0.332,-0.432ZM0.332,-0.303C0.359,-0.303 0.373,-0.323 0.373,-0.343C0.373,-0.363 0.359,-0.383 0.332,-0.383L0.132,-0.383C0.105,-0.383 0.092,-0.363 0.092,-0.343C0.092,-0.323 0.105,-0.303 0.132,-0.303L0.332,-0.303ZM0.378,-0.038C0.379,-0.06 0.379,-0.084 0.379,-0.108C0.379,-0.133 0.379,-0.158 0.378,-0.181C0.377,-0.224 0.336,-0.25 0.298,-0.252C0.275,-0.253 0.247,-0.254 0.219,-0.254C0.196,-0.254 0.174,-0.253 0.155,-0.252C0.107,-0.249 0.083,-0.214 0.082,-0.176C0.082,-0.154 0.081,-0.132 0.081,-0.109C0.081,-0.086 0.082,-0.063 0.082,-0.037C0.083,0.007 0.111,0.039 0.156,0.042C0.176,0.043 0.2,0.044 0.224,0.044C0.249,0.044 0.274,0.043 0.295,0.042C0.345,0.039 0.377,0.007 0.378,-0.038ZM0.295,-0.059C0.294,-0.042 0.282,-0.034 0.226,-0.034C0.18,-0.034 0.164,-0.039 0.163,-0.058C0.163,-0.073 0.162,-0.09 0.162,-0.106C0.162,-0.18 0.163,-0.18 0.229,-0.18C0.276,-0.18 0.293,-0.177 0.295,-0.153C0.296,-0.139 0.296,-0.122 0.296,-0.106C0.296,-0.089 0.296,-0.073 0.295,-0.059Z" style="fill:white;fill-rule:nonzero;"/>
            </g>
            <g transform="matrix(11.1704,0,0,11.1704,344.418,516.096)">
                <path d="M0.814,-0.092C0.871,-0.138 0.81,-0.23 0.745,-0.179C0.571,-0.042 0.393,-0.032 0.387,-0.178C0.383,-0.275 0.398,-0.366 0.405,-0.472C0.41,-0.539 0.417,-0.634 0.419,-0.697C0.421,-0.763 0.308,-0.769 0.31,-0.695C0.312,-0.633 0.305,-0.535 0.302,-0.47C0.297,-0.364 0.286,-0.279 0.29,-0.174C0.299,0.096 0.619,0.067 0.814,-0.092Z" style="fill:white;fill-rule:nonzero;"/>
            </g>
            <g transform="matrix(11.1704,0,0,11.1704,355.588,516.096)">
                <path d="M0.502,-0.089C0.505,0.037 0.561,0.042 0.728,0.042C0.848,0.042 0.901,0.019 0.903,-0.091C0.904,-0.172 0.905,-0.265 0.905,-0.358C0.905,-0.465 0.904,-0.571 0.902,-0.655C0.899,-0.767 0.815,-0.768 0.707,-0.768C0.572,-0.768 0.503,-0.764 0.502,-0.649C0.501,-0.569 0.5,-0.468 0.5,-0.367C0.5,-0.267 0.501,-0.167 0.502,-0.089ZM0.324,0.024C0.324,0.024 0.321,-0.211 0.32,-0.367C0.342,-0.348 0.367,-0.321 0.383,-0.3C0.392,-0.288 0.403,-0.283 0.414,-0.283C0.438,-0.283 0.462,-0.307 0.462,-0.333C0.462,-0.377 0.35,-0.448 0.33,-0.448C0.326,-0.448 0.323,-0.447 0.319,-0.446C0.319,-0.468 0.32,-0.492 0.32,-0.517L0.418,-0.515L0.419,-0.515C0.448,-0.515 0.462,-0.537 0.462,-0.559C0.462,-0.581 0.448,-0.603 0.418,-0.603L0.321,-0.603C0.322,-0.693 0.324,-0.772 0.324,-0.772L0.324,-0.773C0.324,-0.802 0.299,-0.817 0.275,-0.817C0.25,-0.817 0.226,-0.803 0.226,-0.773L0.226,-0.772L0.229,-0.603L0.115,-0.603C0.085,-0.603 0.07,-0.581 0.07,-0.559C0.07,-0.537 0.085,-0.515 0.114,-0.515L0.23,-0.517L0.23,-0.504C0.185,-0.411 0.111,-0.316 0.056,-0.265C0.045,-0.254 0.04,-0.243 0.04,-0.232C0.04,-0.207 0.064,-0.185 0.091,-0.185C0.104,-0.185 0.117,-0.19 0.129,-0.203C0.165,-0.243 0.199,-0.29 0.23,-0.341L0.226,0.024L0.226,0.025C0.226,0.053 0.25,0.067 0.275,0.067C0.299,0.067 0.324,0.053 0.324,0.025L0.324,0.024ZM0.589,-0.528C0.589,-0.66 0.59,-0.676 0.642,-0.679C0.661,-0.68 0.682,-0.681 0.703,-0.681C0.804,-0.681 0.809,-0.678 0.811,-0.619C0.812,-0.592 0.812,-0.561 0.813,-0.528L0.589,-0.528ZM0.814,-0.296L0.588,-0.296L0.588,-0.443L0.814,-0.443L0.814,-0.296ZM0.813,-0.211C0.812,-0.176 0.812,-0.142 0.811,-0.112C0.81,-0.069 0.807,-0.047 0.714,-0.047C0.607,-0.047 0.592,-0.052 0.591,-0.109C0.59,-0.139 0.589,-0.174 0.589,-0.211L0.813,-0.211Z" style="fill:white;fill-rule:nonzero;"/>
            </g>
            <g transform="matrix(11.1704,0,0,11.1704,366.759,516.096)">
                <path d="M0.702,-0.678C0.704,-0.698 0.705,-0.718 0.705,-0.739C0.705,-0.769 0.704,-0.809 0.661,-0.809C0.638,-0.809 0.614,-0.792 0.614,-0.762L0.614,-0.76C0.614,-0.749 0.615,-0.738 0.615,-0.728C0.615,-0.588 0.575,-0.479 0.432,-0.419C0.411,-0.41 0.403,-0.395 0.403,-0.38C0.403,-0.357 0.421,-0.335 0.447,-0.335C0.467,-0.335 0.608,-0.393 0.67,-0.545C0.729,-0.428 0.852,-0.343 0.904,-0.343C0.934,-0.343 0.953,-0.367 0.953,-0.391C0.953,-0.41 0.941,-0.428 0.916,-0.435C0.859,-0.45 0.8,-0.491 0.758,-0.544C0.891,-0.626 0.899,-0.667 0.899,-0.677C0.899,-0.704 0.874,-0.729 0.849,-0.729C0.838,-0.729 0.827,-0.724 0.819,-0.712C0.796,-0.68 0.755,-0.637 0.719,-0.611C0.71,-0.632 0.706,-0.653 0.703,-0.675L0.702,-0.678ZM0.49,-0.518C0.534,-0.518 0.547,-0.57 0.547,-0.65C0.547,-0.666 0.547,-0.682 0.546,-0.697C0.545,-0.718 0.523,-0.73 0.501,-0.73C0.482,-0.73 0.463,-0.72 0.463,-0.696C0.463,-0.648 0.463,-0.596 0.452,-0.571C0.449,-0.565 0.448,-0.559 0.448,-0.554C0.448,-0.532 0.469,-0.518 0.49,-0.518ZM0.337,-0.705C0.364,-0.705 0.378,-0.725 0.378,-0.745C0.378,-0.765 0.364,-0.785 0.337,-0.785L0.137,-0.785C0.11,-0.785 0.097,-0.765 0.097,-0.745C0.097,-0.725 0.11,-0.705 0.137,-0.705L0.337,-0.705ZM0.615,-0.379L0.615,-0.362C0.615,-0.21 0.573,-0.078 0.402,-0.023C0.379,-0.016 0.37,0.001 0.37,0.018C0.37,0.041 0.388,0.065 0.416,0.065C0.433,0.065 0.603,0.012 0.67,-0.163C0.737,-0.022 0.865,0.056 0.912,0.056C0.943,0.056 0.961,0.031 0.961,0.006C0.961,-0.013 0.95,-0.033 0.924,-0.04C0.864,-0.057 0.802,-0.104 0.758,-0.163C0.811,-0.197 0.883,-0.256 0.883,-0.289C0.883,-0.314 0.859,-0.338 0.836,-0.338C0.825,-0.338 0.815,-0.334 0.807,-0.322C0.787,-0.294 0.752,-0.256 0.72,-0.23C0.711,-0.252 0.705,-0.274 0.703,-0.297C0.703,-0.299 0.702,-0.301 0.702,-0.303C0.704,-0.328 0.706,-0.353 0.706,-0.379C0.706,-0.412 0.685,-0.427 0.663,-0.427C0.64,-0.427 0.615,-0.41 0.615,-0.379ZM0.375,-0.568C0.404,-0.568 0.418,-0.589 0.418,-0.609C0.418,-0.63 0.404,-0.65 0.375,-0.65L0.096,-0.65C0.067,-0.65 0.053,-0.629 0.053,-0.609C0.053,-0.588 0.067,-0.568 0.096,-0.568L0.375,-0.568ZM0.339,-0.438C0.366,-0.438 0.38,-0.458 0.38,-0.478C0.38,-0.498 0.366,-0.518 0.339,-0.518L0.139,-0.518C0.112,-0.518 0.099,-0.498 0.099,-0.478C0.099,-0.458 0.112,-0.438 0.139,-0.438L0.339,-0.438ZM0.481,-0.121C0.514,-0.121 0.538,-0.144 0.538,-0.254C0.538,-0.27 0.538,-0.286 0.537,-0.301C0.536,-0.322 0.514,-0.334 0.492,-0.334C0.473,-0.334 0.454,-0.324 0.454,-0.3C0.454,-0.252 0.454,-0.199 0.443,-0.174C0.44,-0.168 0.439,-0.162 0.439,-0.157C0.439,-0.135 0.46,-0.121 0.481,-0.121ZM0.339,-0.309C0.366,-0.309 0.38,-0.329 0.38,-0.349C0.38,-0.369 0.366,-0.389 0.339,-0.389L0.139,-0.389C0.112,-0.389 0.099,-0.369 0.099,-0.349C0.099,-0.329 0.112,-0.309 0.139,-0.309L0.339,-0.309ZM0.38,-0.037C0.381,-0.059 0.381,-0.085 0.381,-0.111C0.381,-0.137 0.381,-0.164 0.38,-0.187C0.379,-0.23 0.338,-0.256 0.3,-0.258C0.277,-0.259 0.25,-0.26 0.224,-0.26C0.202,-0.26 0.181,-0.259 0.162,-0.258C0.114,-0.255 0.09,-0.22 0.089,-0.182C0.089,-0.16 0.088,-0.136 0.088,-0.112C0.088,-0.087 0.089,-0.062 0.089,-0.036C0.09,0.008 0.118,0.04 0.163,0.043C0.183,0.044 0.206,0.045 0.229,0.045C0.252,0.045 0.276,0.044 0.297,0.043C0.347,0.04 0.379,0.008 0.38,-0.037ZM0.297,-0.058C0.296,-0.043 0.288,-0.033 0.231,-0.033C0.175,-0.033 0.171,-0.044 0.17,-0.057C0.17,-0.072 0.169,-0.091 0.169,-0.109C0.169,-0.185 0.169,-0.186 0.233,-0.186C0.276,-0.186 0.295,-0.183 0.297,-0.159C0.298,-0.145 0.298,-0.126 0.298,-0.108C0.298,-0.09 0.298,-0.072 0.297,-0.058Z" style="fill:white;fill-rule:nonzero;"/>
            </g>
            <g transform="matrix(6.93333,0,0,6.93333,376.254,516.096)">
                <path d="M0.941,0.061C0.941,0.051 0.936,0.041 0.925,0.036C0.762,-0.05 0.678,-0.216 0.678,-0.381C0.678,-0.543 0.759,-0.704 0.924,-0.788C0.936,-0.794 0.941,-0.804 0.941,-0.813C0.941,-0.827 0.93,-0.84 0.913,-0.84C0.881,-0.84 0.627,-0.696 0.627,-0.381C0.627,-0.064 0.883,0.082 0.919,0.082C0.933,0.082 0.941,0.072 0.941,0.061Z" style="fill:white;fill-rule:nonzero;"/>
            </g>
            <g transform="matrix(6.93333,0,0,6.93333,383.187,516.096)">
                <path d="M0.876,-0.192C0.904,-0.192 0.917,-0.213 0.917,-0.233C0.917,-0.254 0.904,-0.274 0.876,-0.274L0.765,-0.274L0.765,-0.405L0.9,-0.405C0.927,-0.405 0.941,-0.425 0.941,-0.446C0.941,-0.466 0.927,-0.486 0.9,-0.486L0.765,-0.486L0.765,-0.611L0.824,-0.611C0.851,-0.611 0.865,-0.631 0.865,-0.652C0.865,-0.672 0.851,-0.692 0.824,-0.692L0.315,-0.692C0.357,-0.756 0.362,-0.77 0.362,-0.779C0.362,-0.806 0.335,-0.826 0.31,-0.826C0.296,-0.826 0.282,-0.819 0.274,-0.803C0.233,-0.719 0.184,-0.654 0.111,-0.591C0.098,-0.58 0.093,-0.568 0.093,-0.557C0.093,-0.533 0.117,-0.513 0.143,-0.513C0.164,-0.513 0.185,-0.526 0.243,-0.595L0.243,-0.486L0.105,-0.486C0.078,-0.486 0.063,-0.464 0.063,-0.444C0.063,-0.424 0.076,-0.405 0.105,-0.405L0.243,-0.405L0.243,-0.274L0.125,-0.274C0.097,-0.274 0.082,-0.252 0.082,-0.231C0.082,-0.211 0.096,-0.192 0.125,-0.192L0.876,-0.192ZM0.909,0.003C0.909,-0.049 0.795,-0.151 0.753,-0.151C0.727,-0.151 0.702,-0.133 0.702,-0.113C0.702,-0.104 0.706,-0.096 0.716,-0.088C0.752,-0.058 0.789,-0.018 0.811,0.028C0.821,0.048 0.837,0.056 0.854,0.056C0.881,0.056 0.909,0.034 0.909,0.003ZM0.68,0.012C0.68,-0.011 0.635,-0.151 0.571,-0.151C0.548,-0.151 0.527,-0.137 0.527,-0.116C0.527,-0.11 0.529,-0.104 0.533,-0.097C0.553,-0.066 0.572,-0.028 0.582,0.024C0.587,0.051 0.606,0.063 0.627,0.063C0.652,0.063 0.68,0.044 0.68,0.012ZM0.476,0.011C0.476,-0.036 0.462,-0.099 0.44,-0.132C0.431,-0.145 0.415,-0.151 0.399,-0.151C0.378,-0.151 0.357,-0.14 0.357,-0.119C0.357,-0.115 0.358,-0.11 0.36,-0.105C0.372,-0.074 0.379,-0.033 0.379,0.009L0.379,0.02C0.379,0.05 0.4,0.065 0.422,0.065C0.448,0.065 0.476,0.046 0.476,0.011ZM0.153,0.07C0.22,0.07 0.304,-0.056 0.304,-0.109C0.304,-0.135 0.279,-0.151 0.255,-0.151C0.236,-0.151 0.217,-0.141 0.211,-0.117C0.201,-0.078 0.155,-0.033 0.128,-0.016C0.108,-0.003 0.1,0.012 0.1,0.026C0.1,0.05 0.123,0.07 0.153,0.07ZM0.683,-0.486L0.611,-0.486L0.611,-0.611L0.683,-0.611L0.683,-0.486ZM0.538,-0.486L0.467,-0.486L0.467,-0.611L0.538,-0.611L0.538,-0.486ZM0.683,-0.274L0.611,-0.274L0.611,-0.405L0.683,-0.405L0.683,-0.274ZM0.393,-0.486L0.324,-0.486L0.324,-0.611L0.393,-0.611L0.393,-0.486ZM0.538,-0.274L0.467,-0.274L0.467,-0.405L0.538,-0.405L0.538,-0.274ZM0.393,-0.274L0.324,-0.274L0.324,-0.405L0.393,-0.405L0.393,-0.274Z" style="fill:white;fill-rule:nonzero;"/>
            </g>
            <g transform="matrix(6.93333,0,0,6.93333,390.12,516.096)">
                <path d="M0.636,-0.546C0.661,-0.546 0.681,-0.57 0.681,-0.596C0.681,-0.609 0.677,-0.622 0.666,-0.634C0.651,-0.65 0.576,-0.707 0.542,-0.707C0.515,-0.707 0.493,-0.685 0.493,-0.664C0.493,-0.653 0.498,-0.643 0.511,-0.636C0.536,-0.622 0.575,-0.594 0.603,-0.563C0.614,-0.551 0.625,-0.546 0.636,-0.546ZM0.725,0.028C0.725,0.054 0.749,0.067 0.773,0.067C0.797,0.067 0.821,0.054 0.821,0.028L0.819,-0.23L0.937,-0.263C0.959,-0.269 0.969,-0.286 0.969,-0.303C0.969,-0.325 0.952,-0.348 0.926,-0.348C0.922,-0.348 0.917,-0.347 0.912,-0.346L0.819,-0.32L0.821,-0.767C0.821,-0.795 0.796,-0.81 0.772,-0.81C0.748,-0.81 0.725,-0.796 0.725,-0.767L0.727,-0.294L0.449,-0.217C0.426,-0.21 0.415,-0.192 0.415,-0.174C0.415,-0.152 0.431,-0.131 0.457,-0.131C0.462,-0.131 0.467,-0.131 0.473,-0.133L0.727,-0.204L0.725,0.028ZM0.627,-0.347C0.651,-0.347 0.671,-0.37 0.671,-0.396C0.671,-0.41 0.665,-0.425 0.651,-0.437C0.633,-0.452 0.564,-0.496 0.525,-0.496C0.496,-0.496 0.475,-0.475 0.475,-0.455C0.475,-0.443 0.482,-0.431 0.498,-0.423C0.522,-0.411 0.564,-0.387 0.596,-0.36C0.606,-0.351 0.617,-0.347 0.627,-0.347ZM0.167,-0.538C0.19,-0.538 0.213,-0.557 0.213,-0.585C0.213,-0.608 0.163,-0.708 0.118,-0.708C0.095,-0.708 0.071,-0.692 0.071,-0.671C0.071,-0.665 0.074,-0.657 0.08,-0.65C0.091,-0.637 0.12,-0.595 0.134,-0.561C0.141,-0.545 0.154,-0.538 0.167,-0.538ZM0.315,0.029C0.315,0.029 0.311,-0.152 0.31,-0.298C0.329,-0.282 0.35,-0.258 0.368,-0.234C0.377,-0.222 0.389,-0.217 0.4,-0.217C0.423,-0.217 0.446,-0.239 0.446,-0.265C0.446,-0.303 0.354,-0.367 0.33,-0.367C0.323,-0.367 0.316,-0.365 0.31,-0.362L0.31,-0.413L0.417,-0.411L0.418,-0.411C0.444,-0.411 0.458,-0.433 0.458,-0.454C0.458,-0.475 0.444,-0.496 0.417,-0.496L0.311,-0.496L0.312,-0.56C0.318,-0.546 0.333,-0.537 0.349,-0.537C0.36,-0.537 0.371,-0.542 0.38,-0.552C0.413,-0.59 0.453,-0.65 0.453,-0.669C0.453,-0.693 0.428,-0.712 0.406,-0.712C0.393,-0.712 0.381,-0.706 0.374,-0.691C0.36,-0.66 0.333,-0.617 0.317,-0.594C0.315,-0.591 0.313,-0.588 0.312,-0.585C0.313,-0.682 0.315,-0.765 0.315,-0.765L0.315,-0.766C0.315,-0.795 0.291,-0.81 0.267,-0.81C0.243,-0.81 0.219,-0.795 0.219,-0.766L0.219,-0.765L0.222,-0.496L0.11,-0.496C0.081,-0.496 0.066,-0.473 0.066,-0.451C0.066,-0.431 0.079,-0.411 0.109,-0.411L0.11,-0.411L0.223,-0.413L0.223,-0.41C0.176,-0.325 0.104,-0.239 0.051,-0.194C0.039,-0.184 0.034,-0.173 0.034,-0.162C0.034,-0.138 0.057,-0.117 0.083,-0.117C0.099,-0.117 0.132,-0.124 0.223,-0.272L0.219,0.029L0.219,0.03C0.219,0.057 0.243,0.071 0.267,0.071C0.291,0.071 0.315,0.057 0.315,0.03L0.315,0.029Z" style="fill:white;fill-rule:nonzero;"/>
            </g>
            <g transform="matrix(6.93333,0,0,6.93333,397.054,516.096)">
                <path d="M0.081,0.082C0.117,0.082 0.373,-0.064 0.373,-0.381C0.373,-0.696 0.119,-0.84 0.087,-0.84C0.07,-0.84 0.059,-0.827 0.059,-0.813C0.059,-0.804 0.064,-0.794 0.076,-0.788C0.241,-0.704 0.322,-0.543 0.322,-0.381C0.322,-0.216 0.238,-0.05 0.075,0.036C0.064,0.041 0.059,0.051 0.059,0.061C0.059,0.072 0.067,0.082 0.081,0.082Z" style="fill:white;fill-rule:nonzero;"/>
            </g>
        </g>
        <g transform="matrix(60,0,0,60,883.802,211.453)">
            <path d="M0.099,0.069C0.186,-0.05 0.281,-0.179 0.368,-0.303C0.385,-0.327 0.393,-0.353 0.393,-0.38C0.393,-0.407 0.385,-0.434 0.368,-0.457C0.281,-0.581 0.186,-0.71 0.099,-0.829C0.094,-0.836 0.087,-0.839 0.08,-0.839C0.065,-0.839 0.051,-0.827 0.051,-0.812C0.051,-0.807 0.052,-0.802 0.056,-0.797C0.131,-0.697 0.261,-0.521 0.328,-0.425C0.336,-0.414 0.34,-0.397 0.34,-0.38C0.34,-0.363 0.336,-0.347 0.328,-0.335C0.261,-0.239 0.131,-0.063 0.056,0.037C0.052,0.042 0.051,0.047 0.051,0.052C0.051,0.067 0.065,0.079 0.08,0.079C0.087,0.079 0.094,0.076 0.099,0.069Z" style="fill:white;fill-rule:nonzero;"/>
        </g>
    </g>
</svg>
