<?xml version="1.0" encoding="UTF-8" standalone="no"?>
<!DOCTYPE svg PUBLIC "-//W3C//DTD SVG 1.1//EN" "http://www.w3.org/Graphics/SVG/1.1/DTD/svg11.dtd">
<svg width="100%" height="100%" viewBox="0 0 960 321" version="1.1" xmlns="http://www.w3.org/2000/svg" xmlns:xlink="http://www.w3.org/1999/xlink" xml:space="preserve" xmlns:serif="http://www.serif.com/" style="fill-rule:evenodd;clip-rule:evenodd;stroke-linejoin:round;stroke-miterlimit:2;">
    <g transform="matrix(1,0,0,1,-550.503,-570.754)">
        <g transform="matrix(1,0,0,1,0,413.198)">
            <path d="M622.643,157.556L1305.69,157.556L1305.69,157.558L1438.36,157.558C1478.2,157.558 1510.5,189.857 1510.5,229.699L1510.5,405.417C1510.5,445.259 1478.2,477.558 1438.36,477.558L1262.64,477.558C1262.47,477.558 1262.3,477.557 1262.13,477.556L622.643,477.556C582.8,477.556 550.503,445.257 550.503,405.415L550.503,229.697C550.503,189.855 582.8,157.556 622.643,157.556Z" style="fill:rgb(6,199,85);"/>
        </g>
        <g transform="matrix(1,0,0,1,72.1125,130.759)">
            <g transform="matrix(1,0,0,1,745.046,618.349)">
                <path d="M0,-33.428C0,-81.168 -47.859,-120.008 -106.688,-120.008C-165.513,-120.008 -213.377,-81.168 -213.377,-33.428C-213.377,9.37 -175.422,45.214 -124.151,51.989C-120.678,52.74 -115.948,54.281 -114.753,57.251C-113.677,59.947 -114.049,64.173 -114.407,66.897C-114.407,66.897 -115.659,74.426 -115.931,76.031C-116.396,78.726 -118.075,86.58 -106.688,81.783C-95.302,76.984 -45.248,45.603 -22.864,19.842L-22.869,19.842C-7.408,2.885 0,-14.323 0,-33.428" style="fill:white;fill-rule:nonzero;"/>
            </g>
            <g transform="matrix(1,0,0,1,709.553,561.851)">
                <path d="M0,50.635L-29.974,50.635C-31.099,50.635 -32.011,49.724 -32.011,48.598L-32.011,2.037C-32.011,0.912 -31.099,0 -29.974,0L0,0C1.12,0 2.037,0.916 2.037,2.037L2.037,9.603C2.037,10.728 1.125,11.64 0,11.64L-20.37,11.64L-20.37,19.497L0,19.497C1.12,19.497 2.037,20.414 2.037,21.534L2.037,29.101C2.037,30.226 1.125,31.138 0,31.138L-20.37,31.138L-20.37,38.995L0,38.995C1.12,38.995 2.037,39.911 2.037,41.031L2.037,48.598C2.037,49.724 1.125,50.635 0,50.635" style="fill:rgb(6,199,85);fill-rule:nonzero;"/>
            </g>
            <g transform="matrix(1,0,0,1,598.679,561.851)">
                <path d="M0,50.635C1.125,50.635 2.037,49.724 2.037,48.598L2.037,41.031C2.037,39.911 1.12,38.995 0,38.995L-20.371,38.995L-20.371,2.037C-20.371,0.916 -21.287,0 -22.407,0L-29.974,0C-31.099,0 -32.011,0.912 -32.011,2.037L-32.011,48.598C-32.011,49.724 -31.099,50.635 -29.974,50.635L0,50.635Z" style="fill:rgb(6,199,85);fill-rule:nonzero;"/>
            </g>
            <g transform="matrix(1,0,0,1,616.723,612.487)">
                <path d="M0,-50.636L-7.565,-50.636C-8.69,-50.636 -9.603,-49.723 -9.603,-48.599L-9.603,-2.037C-9.603,-0.912 -8.69,0 -7.565,0L0,0C1.126,0 2.037,-0.912 2.037,-2.037L2.037,-48.599C2.037,-49.723 1.126,-50.636 0,-50.636" style="fill:rgb(6,199,85);fill-rule:nonzero;"/>
            </g>
            <g transform="matrix(1,0,0,1,668.232,612.487)">
                <path d="M0,-50.636L-7.566,-50.636C-8.691,-50.636 -9.603,-49.723 -9.603,-48.599L-9.603,-20.944L-30.906,-49.713C-30.956,-49.787 -31.012,-49.857 -31.07,-49.923C-31.074,-49.928 -31.078,-49.933 -31.083,-49.938C-31.122,-49.982 -31.163,-50.025 -31.206,-50.065L-31.244,-50.1C-31.28,-50.132 -31.316,-50.163 -31.354,-50.194L-31.41,-50.235C-31.444,-50.26 -31.48,-50.284 -31.518,-50.309C-31.538,-50.322 -31.559,-50.334 -31.58,-50.346C-31.617,-50.368 -31.654,-50.389 -31.692,-50.408C-31.714,-50.419 -31.735,-50.43 -31.757,-50.44C-31.796,-50.458 -31.836,-50.475 -31.876,-50.491C-31.898,-50.499 -31.92,-50.507 -31.942,-50.515C-31.983,-50.53 -32.024,-50.543 -32.066,-50.555C-32.09,-50.562 -32.114,-50.568 -32.139,-50.574C-32.179,-50.583 -32.219,-50.592 -32.26,-50.6C-32.288,-50.605 -32.317,-50.609 -32.346,-50.614C-32.383,-50.618 -32.419,-50.623 -32.456,-50.626C-32.492,-50.63 -32.528,-50.631 -32.564,-50.632C-32.588,-50.633 -32.611,-50.636 -32.635,-50.636L-40.159,-50.636C-41.284,-50.636 -42.196,-49.723 -42.196,-48.599L-42.196,-2.037C-42.196,-0.912 -41.284,0 -40.159,0L-32.593,0C-31.468,0 -30.556,-0.912 -30.556,-2.037L-30.556,-29.683L-9.226,-0.878C-9.079,-0.67 -8.899,-0.5 -8.7,-0.365C-8.692,-0.36 -8.685,-0.354 -8.677,-0.349C-8.636,-0.321 -8.592,-0.295 -8.549,-0.271C-8.529,-0.26 -8.51,-0.248 -8.489,-0.239C-8.457,-0.221 -8.425,-0.205 -8.391,-0.191C-8.357,-0.175 -8.325,-0.161 -8.291,-0.148C-8.27,-0.139 -8.248,-0.131 -8.227,-0.124C-8.181,-0.108 -8.134,-0.092 -8.086,-0.079C-8.076,-0.076 -8.066,-0.073 -8.057,-0.072C-7.887,-0.027 -7.709,0 -7.524,0L0,0C1.125,0 2.037,-0.912 2.037,-2.037L2.037,-48.599C2.037,-49.723 1.125,-50.636 0,-50.636" style="fill:rgb(6,199,85);fill-rule:nonzero;"/>
            </g>
        </g>
        <g transform="matrix(10.5905,0,0,10.5905,-7399.62,-5903.79)">
            <g transform="matrix(9.06469,0,0,9.06469,780.492,629.841)">
                <path d="M0.915,-0.464C0.932,-0.482 0.938,-0.51 0.914,-0.535C0.878,-0.573 0.778,-0.598 0.706,-0.592C0.634,-0.586 0.65,-0.497 0.711,-0.504C0.762,-0.51 0.817,-0.486 0.843,-0.463C0.868,-0.441 0.898,-0.446 0.915,-0.464ZM0.436,-0.263C0.47,-0.279 0.505,-0.293 0.541,-0.301C0.611,-0.317 0.664,-0.314 0.703,-0.299C0.79,-0.267 0.762,-0.196 0.738,-0.164C0.69,-0.1 0.626,-0.101 0.548,-0.139C0.487,-0.169 0.448,-0.087 0.505,-0.054C0.621,0.012 0.761,-0.02 0.826,-0.114C0.877,-0.188 0.904,-0.323 0.739,-0.38C0.688,-0.398 0.603,-0.406 0.517,-0.381C0.49,-0.373 0.461,-0.363 0.433,-0.35C0.432,-0.388 0.432,-0.425 0.433,-0.456C0.465,-0.468 0.497,-0.483 0.527,-0.501C0.597,-0.543 0.536,-0.622 0.482,-0.586C0.47,-0.578 0.457,-0.57 0.442,-0.563C0.444,-0.593 0.445,-0.625 0.447,-0.647C0.452,-0.718 0.342,-0.72 0.346,-0.646C0.348,-0.608 0.35,-0.576 0.35,-0.529C0.311,-0.519 0.274,-0.515 0.249,-0.52C0.166,-0.537 0.154,-0.437 0.228,-0.428C0.266,-0.423 0.307,-0.424 0.348,-0.432C0.348,-0.392 0.349,-0.349 0.35,-0.307C0.291,-0.273 0.24,-0.234 0.209,-0.201C0.156,-0.143 0.123,-0.072 0.242,-0.014C0.324,0.026 0.452,0.028 0.444,-0.115C0.442,-0.158 0.438,-0.21 0.436,-0.263ZM0.351,-0.213C0.352,-0.172 0.352,-0.135 0.351,-0.108C0.35,-0.069 0.321,-0.066 0.278,-0.087C0.255,-0.098 0.255,-0.124 0.276,-0.147C0.297,-0.17 0.322,-0.192 0.351,-0.213Z" style="fill:white;fill-rule:nonzero;"/>
            </g>
            <g transform="matrix(9.06469,0,0,9.06469,789.556,629.841)">
                <path d="M0.871,-0.565C0.902,-0.565 0.917,-0.587 0.917,-0.609C0.917,-0.632 0.901,-0.656 0.871,-0.656L0.476,-0.656C0.479,-0.676 0.486,-0.738 0.486,-0.769C0.486,-0.798 0.457,-0.814 0.429,-0.814C0.402,-0.814 0.377,-0.8 0.377,-0.769C0.377,-0.733 0.376,-0.695 0.372,-0.656L0.132,-0.656C0.101,-0.656 0.084,-0.632 0.084,-0.608C0.084,-0.586 0.099,-0.565 0.132,-0.565L0.36,-0.565C0.327,-0.37 0.242,-0.168 0.083,-0.054C0.066,-0.042 0.059,-0.027 0.059,-0.014C0.059,0.011 0.083,0.033 0.111,0.033C0.124,0.033 0.137,0.029 0.15,0.019C0.249,-0.055 0.329,-0.177 0.386,-0.317C0.411,-0.262 0.45,-0.207 0.497,-0.156C0.431,-0.096 0.349,-0.051 0.248,-0.026C0.219,-0.019 0.207,-0 0.207,0.018C0.207,0.043 0.229,0.068 0.261,0.068C0.283,0.068 0.425,0.033 0.563,-0.093C0.703,0.026 0.837,0.06 0.873,0.06C0.912,0.06 0.935,0.03 0.935,0.002C0.935,-0.019 0.921,-0.04 0.891,-0.045C0.797,-0.061 0.705,-0.102 0.628,-0.16C0.677,-0.217 0.76,-0.338 0.76,-0.398C0.76,-0.442 0.728,-0.472 0.672,-0.472C0.624,-0.472 0.509,-0.471 0.438,-0.47C0.446,-0.501 0.454,-0.533 0.46,-0.565L0.871,-0.565ZM0.558,-0.221C0.508,-0.271 0.469,-0.328 0.444,-0.389L0.632,-0.389C0.644,-0.389 0.648,-0.382 0.648,-0.374C0.648,-0.36 0.611,-0.288 0.558,-0.221Z" style="fill:white;fill-rule:nonzero;"/>
            </g>
            <g transform="matrix(9.06469,0,0,9.06469,798.621,629.841)">
                <path d="M0.859,-0.142C0.883,-0.142 0.894,-0.16 0.894,-0.178C0.894,-0.196 0.883,-0.214 0.859,-0.214L0.655,-0.213L0.655,-0.264L0.804,-0.263C0.827,-0.263 0.838,-0.28 0.838,-0.298C0.838,-0.315 0.827,-0.332 0.804,-0.332L0.654,-0.331L0.654,-0.376L0.849,-0.375C0.873,-0.375 0.884,-0.393 0.884,-0.411C0.884,-0.428 0.873,-0.446 0.849,-0.446L0.74,-0.446C0.746,-0.458 0.751,-0.469 0.755,-0.479C0.757,-0.483 0.757,-0.486 0.757,-0.49C0.757,-0.504 0.745,-0.516 0.73,-0.522L0.868,-0.521C0.892,-0.521 0.904,-0.539 0.904,-0.558C0.904,-0.576 0.892,-0.594 0.868,-0.594L0.654,-0.593L0.655,-0.646L0.813,-0.645C0.837,-0.645 0.849,-0.663 0.849,-0.681C0.849,-0.699 0.837,-0.717 0.813,-0.717L0.655,-0.716L0.655,-0.773C0.655,-0.799 0.633,-0.812 0.611,-0.812C0.588,-0.812 0.565,-0.799 0.565,-0.773L0.565,-0.716L0.417,-0.717C0.393,-0.717 0.381,-0.699 0.381,-0.681C0.381,-0.663 0.393,-0.645 0.417,-0.645L0.565,-0.646L0.565,-0.593L0.368,-0.594C0.344,-0.594 0.332,-0.576 0.332,-0.557C0.332,-0.539 0.344,-0.521 0.368,-0.521L0.487,-0.522C0.472,-0.518 0.461,-0.509 0.461,-0.497C0.461,-0.493 0.463,-0.488 0.466,-0.483C0.473,-0.473 0.481,-0.46 0.487,-0.446L0.386,-0.446C0.362,-0.446 0.35,-0.428 0.35,-0.41C0.35,-0.393 0.362,-0.375 0.386,-0.375L0.566,-0.376L0.565,-0.331L0.426,-0.332C0.403,-0.332 0.392,-0.315 0.392,-0.297C0.392,-0.28 0.403,-0.263 0.426,-0.263L0.565,-0.264L0.565,-0.213L0.379,-0.214C0.355,-0.214 0.343,-0.196 0.343,-0.178C0.343,-0.16 0.355,-0.142 0.379,-0.142L0.565,-0.143L0.565,-0.087C0.565,-0.061 0.588,-0.048 0.611,-0.048C0.633,-0.048 0.655,-0.061 0.655,-0.087L0.655,-0.143L0.859,-0.142ZM0.263,-0.577C0.29,-0.577 0.317,-0.604 0.317,-0.633C0.317,-0.684 0.192,-0.761 0.162,-0.761C0.135,-0.761 0.111,-0.738 0.111,-0.716C0.111,-0.704 0.117,-0.693 0.131,-0.685C0.159,-0.669 0.203,-0.638 0.229,-0.598C0.238,-0.583 0.251,-0.577 0.263,-0.577ZM0.258,-0.061C0.345,0.028 0.418,0.062 0.651,0.062C0.743,0.062 0.835,0.056 0.897,0.05C0.932,0.047 0.947,0.024 0.947,0.001C0.947,-0.023 0.93,-0.047 0.899,-0.047L0.894,-0.047C0.818,-0.041 0.709,-0.03 0.609,-0.03C0.47,-0.03 0.367,-0.051 0.304,-0.131C0.304,-0.195 0.306,-0.264 0.306,-0.322C0.306,-0.386 0.276,-0.414 0.212,-0.416C0.179,-0.417 0.151,-0.417 0.115,-0.417C0.088,-0.417 0.073,-0.394 0.073,-0.372C0.073,-0.33 0.109,-0.329 0.128,-0.329L0.167,-0.329C0.201,-0.329 0.213,-0.326 0.213,-0.3L0.213,-0.259C0.213,-0.221 0.212,-0.182 0.211,-0.137C0.177,-0.097 0.131,-0.063 0.077,-0.033C0.059,-0.023 0.052,-0.009 0.052,0.005C0.052,0.032 0.078,0.058 0.107,0.058C0.146,0.058 0.208,-0.005 0.258,-0.061ZM0.681,-0.522C0.675,-0.518 0.671,-0.513 0.67,-0.505C0.667,-0.486 0.658,-0.462 0.65,-0.445L0.58,-0.445C0.58,-0.447 0.579,-0.45 0.578,-0.452C0.571,-0.479 0.551,-0.512 0.527,-0.522L0.681,-0.522Z" style="fill:white;fill-rule:nonzero;"/>
            </g>
            <g transform="matrix(9.06469,0,0,9.06469,807.686,629.841)">
                <path d="M0.496,-0.71C0.432,-0.709 0.402,-0.671 0.402,-0.621C0.402,-0.536 0.401,-0.434 0.401,-0.334C0.401,-0.284 0.401,-0.234 0.402,-0.188C0.404,-0.097 0.486,-0.096 0.603,-0.096C0.661,-0.096 0.724,-0.098 0.777,-0.1C0.823,-0.102 0.86,-0.128 0.863,-0.17C0.865,-0.195 0.866,-0.224 0.866,-0.253C0.866,-0.269 0.866,-0.285 0.865,-0.301C0.864,-0.343 0.836,-0.379 0.764,-0.38C0.732,-0.381 0.695,-0.381 0.659,-0.381C0.6,-0.381 0.541,-0.38 0.496,-0.379L0.496,-0.446C0.525,-0.445 0.558,-0.444 0.592,-0.444C0.644,-0.444 0.697,-0.445 0.737,-0.446C0.833,-0.449 0.84,-0.5 0.84,-0.566C0.84,-0.591 0.838,-0.619 0.836,-0.644C0.832,-0.684 0.798,-0.708 0.752,-0.71C0.724,-0.711 0.688,-0.711 0.649,-0.711C0.664,-0.752 0.665,-0.764 0.665,-0.769C0.665,-0.799 0.636,-0.815 0.608,-0.815C0.583,-0.815 0.56,-0.803 0.556,-0.775C0.553,-0.753 0.548,-0.729 0.543,-0.71L0.496,-0.71ZM0.271,-0.572C0.298,-0.572 0.324,-0.598 0.324,-0.628C0.324,-0.686 0.19,-0.762 0.164,-0.762C0.136,-0.762 0.111,-0.738 0.111,-0.714C0.111,-0.703 0.117,-0.691 0.132,-0.683C0.161,-0.667 0.206,-0.635 0.235,-0.593C0.245,-0.579 0.258,-0.572 0.271,-0.572ZM0.265,-0.06C0.33,0.007 0.388,0.062 0.653,0.062C0.743,0.062 0.834,0.056 0.896,0.05C0.931,0.047 0.947,0.023 0.947,-0C0.947,-0.024 0.929,-0.048 0.898,-0.048L0.893,-0.048C0.815,-0.042 0.71,-0.031 0.612,-0.031C0.472,-0.031 0.375,-0.053 0.311,-0.132C0.311,-0.196 0.313,-0.265 0.313,-0.323C0.313,-0.387 0.283,-0.415 0.218,-0.417C0.185,-0.418 0.152,-0.418 0.116,-0.418C0.088,-0.418 0.072,-0.394 0.072,-0.37C0.072,-0.329 0.108,-0.328 0.129,-0.328L0.173,-0.328C0.209,-0.328 0.219,-0.325 0.219,-0.301L0.219,-0.26C0.219,-0.222 0.218,-0.183 0.217,-0.138C0.182,-0.102 0.131,-0.065 0.077,-0.035C0.059,-0.025 0.052,-0.011 0.052,0.003C0.052,0.026 0.076,0.058 0.108,0.058C0.135,0.058 0.187,0.02 0.265,-0.06ZM0.497,-0.522L0.497,-0.591C0.497,-0.635 0.502,-0.637 0.586,-0.637C0.629,-0.637 0.678,-0.636 0.711,-0.636C0.742,-0.636 0.743,-0.621 0.743,-0.572C0.743,-0.52 0.743,-0.52 0.617,-0.52C0.574,-0.52 0.529,-0.52 0.497,-0.522ZM0.497,-0.302C0.55,-0.304 0.621,-0.305 0.68,-0.305L0.734,-0.305C0.753,-0.305 0.767,-0.293 0.768,-0.279C0.769,-0.269 0.769,-0.255 0.769,-0.242C0.769,-0.23 0.769,-0.217 0.768,-0.208C0.766,-0.178 0.754,-0.178 0.621,-0.178C0.505,-0.178 0.497,-0.18 0.497,-0.224L0.497,-0.302Z" style="fill:white;fill-rule:nonzero;"/>
            </g>
            <g transform="matrix(9.06469,0,0,9.06469,816.75,629.841)">
                <path d="M0.897,-0.088C0.9,-0.161 0.901,-0.241 0.901,-0.321C0.901,-0.401 0.9,-0.48 0.897,-0.55C0.895,-0.613 0.84,-0.653 0.785,-0.656C0.764,-0.657 0.744,-0.658 0.724,-0.658C0.704,-0.658 0.684,-0.657 0.662,-0.656C0.597,-0.652 0.554,-0.608 0.552,-0.552C0.55,-0.479 0.549,-0.399 0.549,-0.319C0.549,-0.239 0.55,-0.159 0.552,-0.085C0.555,0.021 0.644,0.023 0.723,0.023C0.743,0.023 0.763,0.022 0.784,0.021C0.847,0.017 0.895,-0.027 0.897,-0.088ZM0.308,-0.525C0.323,-0.525 0.338,-0.524 0.354,-0.524C0.392,-0.524 0.393,-0.5 0.393,-0.437C0.393,-0.102 0.348,-0.071 0.293,-0.071C0.28,-0.071 0.267,-0.073 0.254,-0.078C0.247,-0.08 0.241,-0.081 0.236,-0.081C0.211,-0.081 0.197,-0.059 0.197,-0.036C0.197,-0.016 0.208,0.005 0.232,0.012C0.257,0.019 0.282,0.023 0.304,0.023C0.387,0.023 0.448,-0.027 0.467,-0.142C0.482,-0.233 0.487,-0.385 0.487,-0.478C0.487,-0.515 0.487,-0.61 0.382,-0.612L0.311,-0.612C0.313,-0.652 0.314,-0.692 0.314,-0.73L0.314,-0.756C0.313,-0.785 0.288,-0.8 0.263,-0.8C0.239,-0.8 0.215,-0.786 0.215,-0.758L0.215,-0.756C0.216,-0.734 0.216,-0.71 0.216,-0.685C0.216,-0.661 0.216,-0.636 0.215,-0.611C0.181,-0.61 0.148,-0.61 0.113,-0.609C0.084,-0.608 0.07,-0.586 0.07,-0.564C0.07,-0.542 0.084,-0.521 0.112,-0.521L0.113,-0.521C0.146,-0.521 0.179,-0.522 0.212,-0.523L0.211,-0.515C0.204,-0.383 0.187,-0.169 0.036,-0.025C0.025,-0.015 0.021,-0.004 0.021,0.007C0.021,0.031 0.044,0.053 0.072,0.053C0.085,0.053 0.099,0.047 0.112,0.035C0.271,-0.123 0.301,-0.369 0.307,-0.513L0.308,-0.525ZM0.802,-0.114C0.801,-0.073 0.78,-0.067 0.724,-0.067C0.654,-0.067 0.647,-0.077 0.646,-0.111C0.643,-0.175 0.642,-0.253 0.642,-0.331C0.642,-0.402 0.643,-0.472 0.646,-0.529C0.647,-0.56 0.663,-0.57 0.69,-0.573C0.701,-0.574 0.712,-0.575 0.723,-0.575C0.734,-0.575 0.745,-0.574 0.756,-0.573C0.784,-0.57 0.801,-0.565 0.802,-0.529C0.804,-0.471 0.805,-0.398 0.805,-0.324C0.805,-0.25 0.804,-0.176 0.802,-0.114Z" style="fill:white;fill-rule:nonzero;"/>
            </g>
        </g>
        <g transform="matrix(96,0,0,96,1391.81,767.238)">
            <path d="M0.099,0.069C0.186,-0.05 0.281,-0.179 0.368,-0.303C0.385,-0.327 0.393,-0.353 0.393,-0.38C0.393,-0.407 0.385,-0.434 0.368,-0.457C0.281,-0.581 0.186,-0.71 0.099,-0.829C0.094,-0.836 0.087,-0.839 0.08,-0.839C0.065,-0.839 0.051,-0.827 0.051,-0.812C0.051,-0.807 0.052,-0.802 0.056,-0.797C0.131,-0.697 0.261,-0.521 0.328,-0.425C0.336,-0.414 0.34,-0.397 0.34,-0.38C0.34,-0.363 0.336,-0.347 0.328,-0.335C0.261,-0.239 0.131,-0.063 0.056,0.037C0.052,0.042 0.051,0.047 0.051,0.052C0.051,0.067 0.065,0.079 0.08,0.079C0.087,0.079 0.094,0.076 0.099,0.069Z" style="fill:white;fill-rule:nonzero;"/>
        </g>
    </g>
</svg>
