<?xml version="1.0" encoding="UTF-8" standalone="no"?>
<!DOCTYPE svg PUBLIC "-//W3C//DTD SVG 1.1//EN" "http://www.w3.org/Graphics/SVG/1.1/DTD/svg11.dtd">
<svg width="100%" height="100%" viewBox="0 0 1059 407" version="1.1" xmlns="http://www.w3.org/2000/svg" xmlns:xlink="http://www.w3.org/1999/xlink" xml:space="preserve" xmlns:serif="http://www.serif.com/" style="fill-rule:evenodd;clip-rule:evenodd;stroke-linejoin:round;stroke-miterlimit:2;">
    <g transform="matrix(1,0,0,1,-77.7882,-21.0561)">
        <g>
            <g>
                <g id="レイヤー_1">
                    <g>
                        <path d="M90.19,183.2C92.75,182.76 93.96,182.6 96.81,182.39C99.22,182.21 101.64,182.15 104.06,182.18C106.48,182.22 108.9,182.36 111.3,182.62C111.88,182.68 112.45,182.75 113.03,182.82C112.17,182.71 113.74,182.93 113.9,182.95C115.23,183.16 116.56,183.4 117.88,183.68C120.63,184.24 123.82,182.89 124.5,179.92C125.11,177.24 123.69,173.91 120.74,173.3C109.66,171.03 98.47,170.9 87.33,172.82C84.55,173.3 82.74,176.86 83.57,179.44C84.55,182.44 87.21,183.71 90.19,183.2Z" style="fill:rgb(0,99,152);fill-rule:nonzero;"/>
                    </g>
                    <g>
                        <path d="M78.58,217.01C81.62,221.03 85.34,223.98 90.09,225.78C94.84,227.58 100.12,227.85 105.15,227.79C114.02,227.69 123.41,226.18 130.07,219.84C135.1,215.06 127.48,207.46 122.46,212.23C118.36,216.13 111.72,216.91 105.8,217.02C99.43,217.14 91.76,216.74 87.86,211.58C86.11,209.27 83.22,208.06 80.5,209.65C78.23,210.99 76.82,214.68 78.58,217.01Z" style="fill:rgb(0,99,152);fill-rule:nonzero;"/>
                    </g>
                    <g>
                        <path d="M90.19,183.2C92.75,182.76 93.96,182.6 96.81,182.39C99.22,182.21 101.64,182.15 104.06,182.18C106.48,182.22 108.9,182.36 111.3,182.62C111.88,182.68 112.45,182.75 113.03,182.82C112.17,182.71 113.74,182.93 113.9,182.95C115.23,183.16 116.56,183.4 117.88,183.68C120.63,184.24 123.82,182.89 124.5,179.92C125.11,177.24 123.69,173.91 120.74,173.3C109.66,171.03 98.47,170.9 87.33,172.82C84.55,173.3 82.74,176.86 83.57,179.44C84.55,182.44 87.21,183.71 90.19,183.2Z" style="fill:rgb(0,99,152);fill-rule:nonzero;"/>
                    </g>
                    <g>
                        <path d="M78.58,217.01C81.62,221.03 85.34,223.98 90.09,225.78C94.84,227.58 100.12,227.85 105.15,227.79C114.02,227.69 123.41,226.18 130.07,219.84C135.1,215.06 127.48,207.46 122.46,212.23C118.36,216.13 111.72,216.91 105.8,217.02C99.43,217.14 91.76,216.74 87.86,211.58C86.11,209.27 83.22,208.06 80.5,209.65C78.23,210.99 76.82,214.68 78.58,217.01Z" style="fill:rgb(0,99,152);fill-rule:nonzero;"/>
                    </g>
                    <g>
                        <path d="M90.19,183.2C92.75,182.76 93.96,182.6 96.81,182.39C99.22,182.21 101.64,182.15 104.06,182.18C106.48,182.22 108.9,182.36 111.3,182.62C111.88,182.68 112.45,182.75 113.03,182.82C112.17,182.71 113.74,182.93 113.9,182.95C115.23,183.16 116.56,183.4 117.88,183.68C120.63,184.24 123.82,182.89 124.5,179.92C125.11,177.24 123.69,173.91 120.74,173.3C109.66,171.03 98.47,170.9 87.33,172.82C84.55,173.3 82.74,176.86 83.57,179.44C84.55,182.44 87.21,183.71 90.19,183.2Z" style="fill:rgb(0,99,152);fill-rule:nonzero;"/>
                    </g>
                    <g>
                        <path d="M78.58,217.01C81.62,221.03 85.34,223.98 90.09,225.78C94.84,227.58 100.12,227.85 105.15,227.79C114.02,227.69 123.41,226.18 130.07,219.84C135.1,215.06 127.48,207.46 122.46,212.23C118.36,216.13 111.72,216.91 105.8,217.02C99.43,217.14 91.76,216.74 87.86,211.58C86.11,209.27 83.22,208.06 80.5,209.65C78.23,210.99 76.82,214.68 78.58,217.01Z" style="fill:rgb(0,99,152);fill-rule:nonzero;"/>
                    </g>
                    <g>
                        <path d="M90.19,183.2C92.75,182.76 93.96,182.6 96.81,182.39C99.22,182.21 101.64,182.15 104.06,182.18C106.48,182.22 108.9,182.36 111.3,182.62C111.88,182.68 112.45,182.75 113.03,182.82C112.17,182.71 113.74,182.93 113.9,182.95C115.23,183.16 116.56,183.4 117.88,183.68C120.63,184.24 123.82,182.89 124.5,179.92C125.11,177.24 123.69,173.91 120.74,173.3C109.66,171.03 98.47,170.9 87.33,172.82C84.55,173.3 82.74,176.86 83.57,179.44C84.55,182.44 87.21,183.71 90.19,183.2Z" style="fill:rgb(0,99,152);fill-rule:nonzero;"/>
                    </g>
                    <g>
                        <path d="M78.58,217.01C81.62,221.03 85.34,223.98 90.09,225.78C94.84,227.58 100.12,227.85 105.15,227.79C114.02,227.69 123.41,226.18 130.07,219.84C135.1,215.06 127.48,207.46 122.46,212.23C118.36,216.13 111.72,216.91 105.8,217.02C99.43,217.14 91.76,216.74 87.86,211.58C86.11,209.27 83.22,208.06 80.5,209.65C78.23,210.99 76.82,214.68 78.58,217.01Z" style="fill:rgb(0,99,152);fill-rule:nonzero;"/>
                    </g>
                    <g>
                        <path d="M127.83,164.09C134.75,164.09 134.76,153.33 127.83,153.33C120.91,153.34 120.9,164.09 127.83,164.09Z" style="fill:rgb(0,99,152);fill-rule:nonzero;"/>
                    </g>
                    <g>
                        <path d="M145.43,163.51C152.35,163.51 152.36,152.75 145.43,152.75C138.51,152.75 138.5,163.51 145.43,163.51Z" style="fill:rgb(0,99,152);fill-rule:nonzero;"/>
                    </g>
                    <g>
                        <path d="M169.66,169.02C176.91,167.34 184.2,165.84 191.46,164.26C194.21,163.66 196.08,160.3 195.22,157.64C194.28,154.74 191.55,153.24 188.6,153.88C181.33,155.46 174.04,156.96 166.8,158.64C164.06,159.28 162.17,162.57 163.04,165.26C163.98,168.13 166.72,169.7 169.66,169.02Z" style="fill:rgb(37,97,147);fill-rule:nonzero;"/>
                    </g>
                    <g>
                        <path d="M167.16,175.67C166.79,175.66 166.42,175.65 166.05,175.64L166.05,186.4C174.54,185.81 183.05,185.73 191.54,186.16C194.35,186.3 197.04,183.59 196.92,180.78C196.78,177.75 194.56,175.55 191.54,175.4C183.04,174.97 174.53,175.06 166.05,175.64C163.25,175.83 160.54,177.98 160.67,181.02C160.8,183.99 163.03,186.32 166.05,186.4C166.42,186.41 166.79,186.42 167.16,186.43C169.97,186.5 172.67,183.91 172.54,181.05C172.4,178.07 170.17,175.74 167.16,175.67Z" style="fill:rgb(37,97,147);fill-rule:nonzero;"/>
                    </g>
                    <g>
                        <path d="M175.25,164.26C175.05,186.52 174.84,208.77 174.64,231.03C174.58,237.95 185.33,237.96 185.4,231.03C185.6,208.77 185.81,186.52 186.01,164.26C186.07,157.33 175.32,157.33 175.25,164.26Z" style="fill:rgb(37,97,147);fill-rule:nonzero;"/>
                    </g>
                    <g>
                        <path d="M162.57,192.04C162.33,193.66 161.98,195.26 161.52,196.83C161.29,197.61 161.03,198.39 160.74,199.16C160.6,199.53 160.49,199.96 160.29,200.3C160.38,200.14 160.78,199.2 160.47,199.86C160.36,200.09 160.26,200.33 160.15,200.56C159.45,202.04 158.66,203.47 157.76,204.84C157.31,205.53 156.83,206.19 156.35,206.85C155.95,207.4 157.06,205.97 156.63,206.49C156.5,206.65 156.37,206.81 156.24,206.97C155.95,207.32 155.64,207.67 155.34,208.01C153.47,210.11 153.12,213.57 155.34,215.62C157.39,217.5 160.95,217.86 162.95,215.62C168.12,209.82 171.78,202.62 172.95,194.91C173.17,193.43 173.2,192.11 172.41,190.77C171.76,189.65 170.48,188.59 169.2,188.3C167.82,187.99 166.28,188.05 165.06,188.84C163.94,189.53 162.77,190.69 162.57,192.04Z" style="fill:rgb(37,97,147);fill-rule:nonzero;"/>
                    </g>
                    <g>
                        <path d="M189.34,192.44C189.21,192.57 189.07,192.71 188.94,192.84C188.42,193.33 188.04,193.9 187.83,194.57C187.49,195.21 187.34,195.9 187.37,196.64C187.34,197.38 187.5,198.07 187.83,198.71C188.05,199.38 188.42,199.95 188.94,200.44C189.3,200.72 189.67,201 190.03,201.28C190.87,201.77 191.77,202.01 192.74,202.01C193.22,201.95 193.69,201.88 194.17,201.82C195.08,201.56 195.87,201.1 196.54,200.44C196.67,200.31 196.81,200.17 196.94,200.04C197.46,199.55 197.84,198.98 198.05,198.31C198.39,197.67 198.54,196.98 198.51,196.24C198.54,195.5 198.38,194.81 198.05,194.17C197.83,193.5 197.46,192.93 196.94,192.44C196.58,192.16 196.21,191.88 195.85,191.6C195.01,191.11 194.11,190.87 193.14,190.87C192.66,190.93 192.19,191 191.71,191.06C190.8,191.31 190.01,191.77 189.34,192.44Z" style="fill:rgb(37,97,147);fill-rule:nonzero;"/>
                    </g>
                    <g>
                        <path d="M205.65,167.87L205.65,205.63C205.65,208.54 208.12,211.01 211.03,211.01C213.95,211.01 216.41,208.55 216.41,205.63L216.41,167.87C216.41,164.96 213.94,162.49 211.03,162.49C208.11,162.49 205.65,164.95 205.65,167.87Z" style="fill:rgb(37,97,147);fill-rule:nonzero;"/>
                    </g>
                    <g>
                        <path d="M225.81,160.67C225.8,173.54 225.57,186.4 225.32,199.26C225.23,203.9 225.29,208.56 225.08,213.19C225.06,213.62 224.95,214.14 224.99,214.57C225.04,214.99 225.32,213.49 225.01,214.38C224.86,214.82 224.76,215.28 224.6,215.71C224,217.35 223.7,219.1 223.08,220.72C222.5,222.22 221.27,223.56 219.57,224.54C219.26,224.72 217.8,225.38 218.34,225.17C217.72,225.41 217.08,225.6 216.43,225.78C215.77,225.96 215.1,226.1 214.43,226.23C214.47,226.22 213.51,226.37 213.96,226.31C214.25,226.27 212.89,226.4 212.87,226.41C209.98,226.65 207.49,228.71 207.49,231.79C207.49,234.52 209.96,237.41 212.87,237.17C218.91,236.67 225.25,234.97 229.47,230.31C232.66,226.8 233.88,222.34 235.22,217.91C236.52,213.61 235.92,208.53 235.99,204.09C236.09,198.16 236.22,192.22 236.32,186.29C236.46,177.76 236.56,169.22 236.57,160.69C236.58,153.75 225.82,153.74 225.81,160.67Z" style="fill:rgb(37,97,147);fill-rule:nonzero;"/>
                    </g>
                    <g>
                        <path d="M319.52,161.29C319.51,174.16 319.28,187.02 319.03,199.88C318.94,204.52 319,209.18 318.79,213.81C318.77,214.24 318.66,214.76 318.7,215.19C318.75,215.61 319.03,214.11 318.72,215C318.57,215.44 318.47,215.9 318.31,216.33C317.71,217.97 317.41,219.72 316.79,221.34C316.21,222.84 314.98,224.18 313.28,225.16C312.97,225.34 311.51,226 312.05,225.79C311.43,226.03 310.79,226.22 310.14,226.4C309.48,226.58 308.81,226.72 308.14,226.85C308.18,226.84 307.22,226.99 307.67,226.93C307.96,226.89 306.6,227.02 306.58,227.03C303.69,227.27 301.2,229.33 301.2,232.41C301.2,235.14 303.67,238.03 306.58,237.79C312.62,237.29 318.96,235.59 323.18,230.93C326.37,227.42 327.59,222.96 328.93,218.53C330.23,214.23 329.63,209.15 329.7,204.71C329.8,198.78 329.93,192.84 330.03,186.91C330.17,178.38 330.27,169.84 330.28,161.31C330.28,154.37 319.53,154.36 319.52,161.29Z" style="fill:rgb(37,97,147);fill-rule:nonzero;"/>
                    </g>
                    <g>
                        <path d="M261.64,160.93C262.38,181.47 263.36,203.39 254.93,222.67C253.77,225.33 254.15,228.44 256.86,230.03C259.14,231.36 263.05,230.78 264.22,228.1C273.51,206.85 273.21,183.67 272.4,160.94C272.15,154.03 261.4,153.99 261.64,160.93Z" style="fill:rgb(37,97,147);fill-rule:nonzero;"/>
                    </g>
                    <g>
                        <path d="M268.07,165.1C277.51,164.77 286.95,164.44 296.39,164.11C301.06,163.95 305.72,163.75 310.39,163.62C314.53,163.5 318.48,163.57 322.39,165.05C325.11,166.07 328.29,163.91 329.01,161.29C329.84,158.27 327.98,155.7 325.25,154.67C316.58,151.4 306.32,153 297.27,153.31C287.53,153.65 277.8,153.99 268.06,154.33C261.17,154.59 261.14,165.35 268.07,165.1Z" style="fill:rgb(37,97,147);fill-rule:nonzero;"/>
                    </g>
                    <g>
                        <path d="M271.97,184.56C287.59,184.79 303.21,184.54 318.81,183.82C321.71,183.69 324.19,181.44 324.19,178.44C324.19,175.63 321.73,172.93 318.81,173.06C303.21,173.78 287.59,174.03 271.97,173.8C265.05,173.7 265.05,184.46 271.97,184.56Z" style="fill:rgb(37,97,147);fill-rule:nonzero;"/>
                    </g>
                    <g>
                        <path d="M269.75,205.4C286.47,205.2 303.2,205 319.92,204.8C326.84,204.72 326.85,193.96 319.92,194.04C303.2,194.24 286.47,194.44 269.75,194.64C262.83,194.73 262.82,205.49 269.75,205.4Z" style="fill:rgb(37,97,147);fill-rule:nonzero;"/>
                    </g>
                    <g>
                        <path d="M286.73,161.11C287.04,181.1 287.36,201.09 287.67,221.08C287.78,227.99 298.53,228.02 298.43,221.08C298.12,201.09 297.8,181.1 297.49,161.11C297.38,154.19 286.62,154.17 286.73,161.11Z" style="fill:rgb(37,97,147);fill-rule:nonzero;"/>
                    </g>
                    <g>
                        <path d="M366.75,170.09C379.32,170.14 391.89,170.19 404.46,170.24C407.37,170.25 409.84,167.76 409.84,164.86C409.84,161.93 407.38,159.49 404.46,159.48C391.89,159.43 379.32,159.38 366.75,159.33C363.84,159.32 361.37,161.81 361.37,164.71C361.37,167.64 363.83,170.08 366.75,170.09Z" style="fill:rgb(37,97,147);fill-rule:nonzero;"/>
                    </g>
                    <g>
                        <path d="M381.32,152.23C380.74,162.06 380.16,171.9 379.58,181.73C379.41,184.54 382.17,187.23 384.96,187.11C388.02,186.97 390.16,184.75 390.34,181.73C390.92,171.9 391.5,162.06 392.08,152.23C392.25,149.42 389.49,146.73 386.7,146.85C383.64,146.99 381.5,149.21 381.32,152.23Z" style="fill:rgb(37,97,147);fill-rule:nonzero;"/>
                    </g>
                    <g>
                        <path d="M355.28,187.72C377.68,188.08 400.09,188.44 422.49,188.8C429.41,188.91 429.42,178.16 422.49,178.04C400.09,177.68 377.68,177.32 355.28,176.96C348.35,176.85 348.35,187.6 355.28,187.72Z" style="fill:rgb(37,97,147);fill-rule:nonzero;"/>
                    </g>
                    <g>
                        <path d="M411.53,155.39C397.54,177.98 374.78,194.44 349.06,200.86C342.35,202.54 345.19,212.91 351.92,211.23C380.34,204.13 405.41,185.7 420.82,160.81C424.47,154.91 415.17,149.51 411.53,155.39Z" style="fill:rgb(37,97,147);fill-rule:nonzero;"/>
                    </g>
                    <g>
                        <path d="M371.63,199.76C371.66,208.78 371.69,217.79 371.72,226.81C371.73,229.62 374.19,232.32 377.1,232.19C380.01,232.06 382.49,229.83 382.48,226.81C382.45,217.79 382.42,208.78 382.39,199.76C382.38,196.95 379.92,194.25 377.01,194.38C374.1,194.51 371.62,196.74 371.63,199.76Z" style="fill:rgb(37,97,147);fill-rule:nonzero;"/>
                    </g>
                    <g>
                        <path d="M379.86,203.54C389.56,203.37 399.27,203.42 408.97,203.72C409.55,203.74 410.14,203.77 410.72,203.78C411.62,203.8 410.96,203.77 410.19,203.15C409.7,202.97 409.39,202.65 409.28,202.19C409.33,202.36 409.37,202.53 409.42,202.69C409.52,203.19 409.64,203.69 409.74,204.19C410.18,206.43 410.4,208.13 410.55,210.43C410.84,214.91 410.61,219.6 409.86,223.74C409.36,226.5 410.61,229.67 413.62,230.36C416.25,230.96 419.7,229.56 420.24,226.6C421.25,221.04 421.7,215.4 421.27,209.76C420.85,204.19 420.62,195.45 414.11,193.5C411.41,192.7 408.27,192.94 405.48,192.87C402.67,192.8 399.87,192.75 397.06,192.72C391.33,192.66 385.6,192.68 379.87,192.79C377.06,192.84 374.36,195.23 374.49,198.17C374.61,201.03 376.85,203.59 379.86,203.54Z" style="fill:rgb(37,97,147);fill-rule:nonzero;"/>
                    </g>
                    <g>
                        <path d="M381.5,218.67C391.61,218.81 401.72,218.95 411.83,219.09C414.64,219.13 417.34,216.59 417.21,213.71C417.08,210.76 414.85,208.37 411.83,208.33C401.72,208.19 391.61,208.05 381.5,207.91C378.69,207.87 375.99,210.41 376.12,213.29C376.25,216.23 378.48,218.62 381.5,218.67Z" style="fill:rgb(37,97,147);fill-rule:nonzero;"/>
                    </g>
                    <g>
                        <path d="M376.88,232.52C379.61,234.21 382.74,234.61 385.88,234.65C388.99,234.7 392.11,234.68 395.22,234.69C401.53,234.72 407.85,234.75 414.16,234.78C416.97,234.79 419.67,232.3 419.54,229.4C419.41,226.48 417.18,224.04 414.16,224.02C408.3,223.99 402.43,223.97 396.57,223.94C393.64,223.93 390.71,223.91 387.78,223.9C386.59,223.89 385.41,223.88 384.22,223.83C383.07,223.79 384.48,224.03 383.48,223.72C383.13,223.64 382.79,223.54 382.45,223.41C382.92,223.58 382.87,223.52 382.3,223.22C379.91,221.73 376.27,222.63 374.94,225.15C373.55,227.8 374.32,230.94 376.88,232.52Z" style="fill:rgb(37,97,147);fill-rule:nonzero;"/>
                    </g>
                    <g>
                        <path d="M447.85,177.79C455.75,177.48 463.65,177.18 471.55,176.87C474.36,176.76 477.06,174.47 476.93,171.49C476.8,168.67 474.56,166 471.55,166.11C463.65,166.42 455.75,166.72 447.85,167.03C445.04,167.14 442.34,169.43 442.47,172.41C442.6,175.23 444.84,177.9 447.85,177.79Z" style="fill:rgb(37,97,147);fill-rule:nonzero;"/>
                    </g>
                    <g>
                        <path d="M455.42,151.79C455.3,178.01 455.19,204.24 455.07,230.46C455.04,237.38 465.79,237.39 465.83,230.46C465.95,204.24 466.06,178.01 466.18,151.79C466.2,144.87 455.45,144.86 455.42,151.79Z" style="fill:rgb(37,97,147);fill-rule:nonzero;"/>
                    </g>
                    <g>
                        <path d="M442.47,186.5C442.44,186.98 442.41,187.47 442.37,187.95C442.35,188.19 442.38,189.25 442.21,189.4C442.32,188.57 442.34,188.46 442.25,189.05C442.21,189.29 442.17,189.53 442.13,189.77C442.05,190.25 441.95,190.72 441.85,191.2C441.47,192.98 440.95,194.73 440.32,196.44C440.17,196.85 440.04,197.44 439.79,197.8C440.1,197.08 440.14,196.98 439.9,197.52C439.8,197.74 439.7,197.96 439.6,198.18C439.24,198.95 438.85,199.71 438.44,200.45C437.5,202.15 436.43,203.77 435.25,205.32C434.46,206.35 434.38,208.28 434.71,209.46C435.05,210.71 436.02,212.06 437.18,212.67C438.43,213.33 439.94,213.66 441.32,213.21C442.74,212.75 443.63,211.92 444.53,210.74C449.85,203.79 452.74,195.2 453.22,186.5C453.37,183.69 450.64,181 447.84,181.12C444.81,181.26 442.64,183.48 442.47,186.5Z" style="fill:rgb(37,97,147);fill-rule:nonzero;"/>
                    </g>
                    <g>
                        <path d="M473.29,194.77C480.21,194.77 480.22,184.01 473.29,184.01C466.37,184.01 466.36,194.77 473.29,194.77Z" style="fill:rgb(37,97,147);fill-rule:nonzero;"/>
                    </g>
                    <g>
                        <path d="M485.99,170.01C496.59,169.44 507.21,169.23 517.83,169.4C520.64,169.44 523.34,166.9 523.21,164.02C523.08,161.07 520.85,158.69 517.83,158.64C507.21,158.48 496.59,158.68 485.99,159.25C483.19,159.4 480.48,161.62 480.61,164.63C480.74,167.42 482.98,170.18 485.99,170.01Z" style="fill:rgb(37,97,147);fill-rule:nonzero;"/>
                    </g>
                    <g>
                        <path d="M487.75,183.39C496.43,183.32 505.1,183.25 513.78,183.18C516.59,183.16 519.29,180.72 519.16,177.8C519.03,174.91 516.8,172.4 513.78,172.42C505.1,172.49 496.43,172.56 487.75,172.63C484.94,172.65 482.24,175.09 482.37,178.01C482.5,180.91 484.74,183.42 487.75,183.39Z" style="fill:rgb(37,97,147);fill-rule:nonzero;"/>
                    </g>
                    <g>
                        <path d="M484.86,196.47C497.01,196.5 509.16,196.53 521.3,196.56C524.21,196.57 526.68,194.08 526.68,191.18C526.68,188.26 524.22,185.81 521.3,185.8C509.15,185.77 497,185.74 484.86,185.71C481.95,185.7 479.48,188.19 479.48,191.09C479.48,194.02 481.94,196.47 484.86,196.47Z" style="fill:rgb(37,97,147);fill-rule:nonzero;"/>
                    </g>
                    <g>
                        <path d="M496,163.95C496.88,175.44 496.77,186.96 496.27,198.46C496.03,204.07 495.7,209.67 495.37,215.28C495.24,217.49 495.28,219.96 494.44,222.05C494.11,222.87 493.87,223.25 493.26,223.79C492.99,224.04 493.07,223.99 492.59,224.26C493.09,223.99 491.65,224.34 492.35,224.3C489.45,224.46 486.97,226.66 486.97,229.68C486.97,232.47 489.43,235.21 492.35,235.06C507.69,234.24 506.22,214.66 506.78,203.77C507.46,190.5 507.78,177.21 506.76,163.95C506.54,161.05 504.45,158.57 501.38,158.57C498.64,158.57 495.77,161.04 496,163.95Z" style="fill:rgb(37,97,147);fill-rule:nonzero;"/>
                    </g>
                    <g>
                        <path d="M479.22,209.71C479.61,209.9 479.99,210.1 480.38,210.29C481,210.68 481.66,210.9 482.38,210.93C483.09,211.09 483.81,211.06 484.52,210.83C485.22,210.66 485.83,210.34 486.35,209.87C486.94,209.49 487.4,208.99 487.74,208.36C487.92,207.93 488.1,207.5 488.28,207.08C488.54,206.13 488.54,205.17 488.28,204.22C488.1,203.79 487.92,203.36 487.74,202.94C487.26,202.13 486.62,201.49 485.81,201.01C485.42,200.82 485.04,200.62 484.65,200.43C484.03,200.04 483.37,199.82 482.65,199.79C481.94,199.63 481.22,199.66 480.51,199.89C479.81,200.06 479.2,200.38 478.68,200.85C478.09,201.23 477.63,201.73 477.29,202.36C477.11,202.79 476.93,203.22 476.75,203.64C476.49,204.59 476.49,205.55 476.75,206.5C476.93,206.93 477.11,207.36 477.29,207.78C477.77,208.59 478.42,209.23 479.22,209.71Z" style="fill:rgb(37,97,147);fill-rule:nonzero;"/>
                    </g>
                    <g>
                        <path d="M474.97,222.21C474.99,222.25 475.02,222.29 475.05,222.33C475.33,222.69 475.61,223.06 475.89,223.42C475.9,223.43 475.91,223.44 475.92,223.46C475.93,223.47 475.94,223.49 475.96,223.5L476.1,223.64C476.29,223.79 476.47,223.93 476.66,224.07C476.85,224.22 477.03,224.36 477.22,224.5C477.29,224.55 477.37,224.6 477.45,224.64C477.94,224.88 478.44,225.12 478.96,225.27C479,225.28 479.04,225.29 479.08,225.3C479.59,225.4 480.1,225.45 480.61,225.51C480.7,225.52 480.8,225.52 480.89,225.52C481.44,225.47 482.01,225.43 482.55,225.29C483.08,225.15 483.58,224.9 484.07,224.66C484.7,224.32 485.2,223.86 485.58,223.27C486.06,222.75 486.38,222.14 486.54,221.44C486.76,220.73 486.8,220.01 486.64,219.3C486.61,218.58 486.39,217.92 486,217.3C485.72,216.94 485.44,216.57 485.16,216.21C484.49,215.54 483.7,215.08 482.79,214.83C482.31,214.77 481.84,214.7 481.36,214.64C480.39,214.64 479.48,214.89 478.65,215.37C478.62,215.38 478.59,215.4 478.57,215.41C479,215.23 479.43,215.05 479.85,214.87C479.75,214.91 479.65,214.94 479.54,214.95C480.02,214.89 480.49,214.82 480.97,214.76C480.85,214.78 480.72,214.78 480.6,214.76C481.08,214.82 481.55,214.89 482.03,214.95C481.91,214.93 481.79,214.9 481.67,214.85C482.1,215.03 482.53,215.21 482.95,215.39C482.84,215.34 482.73,215.28 482.63,215.2C482.99,215.48 483.36,215.76 483.72,216.04C483.63,215.97 483.56,215.9 483.49,215.81C483.77,216.17 484.05,216.54 484.33,216.9C484.3,216.86 484.28,216.82 484.25,216.78C483.91,216.15 483.45,215.65 482.86,215.27C482.34,214.79 481.73,214.47 481.03,214.31C480.32,214.09 479.6,214.05 478.89,214.21C478.17,214.24 477.51,214.46 476.89,214.85C476.53,215.13 476.16,215.41 475.8,215.69C475.13,216.36 474.67,217.15 474.42,218.06C474.36,218.54 474.29,219.01 474.23,219.49C474.24,220.47 474.48,221.37 474.97,222.21Z" style="fill:rgb(37,97,147);fill-rule:nonzero;"/>
                    </g>
                    <g>
                        <path d="M494.69,158.32C501.61,158.32 501.62,147.56 494.69,147.56C487.77,147.57 487.76,158.32 494.69,158.32Z" style="fill:rgb(37,97,147);fill-rule:nonzero;"/>
                    </g>
                    <g>
                        <path d="M512.62,146.99L512.26,146.99C505.34,146.99 505.33,157.75 512.26,157.75L512.62,157.75C519.55,157.75 519.56,146.99 512.62,146.99L512.26,146.99C505.34,146.99 505.33,157.75 512.26,157.75L512.62,157.75C519.55,157.75 519.56,146.99 512.62,146.99Z" style="fill:rgb(37,97,147);fill-rule:nonzero;"/>
                    </g>
                    <g>
                        <path d="M519.62,199.58C512.61,201.21 509.37,209.07 510.8,215.61C512.27,222.36 518.77,226.62 524.9,228.65C527.57,229.54 530.89,227.62 531.52,224.89C532.2,221.92 530.62,219.22 527.76,218.27C527.45,218.17 527.15,218.06 526.84,217.95C526.42,217.8 525.48,217.25 526.96,218.02C526.46,217.76 525.94,217.55 525.45,217.29C524.92,217.01 524.4,216.7 523.89,216.36C523.63,216.19 523.33,216.01 523.1,215.8C523.32,215.97 523.54,216.13 523.75,216.3C523.61,216.18 523.47,216.07 523.33,215.95C522.92,215.59 522.53,215.21 522.17,214.8C522.05,214.66 521.93,214.53 521.82,214.39C522.35,215.09 522.49,215.27 522.25,214.94C522.07,214.68 521.89,214.42 521.73,214.15C521.59,213.92 521.47,213.67 521.34,213.43C520.85,212.56 521.72,214.59 521.46,213.75C521.3,213.22 521.15,212.71 521.07,212.17C521.13,212.65 521.2,213.12 521.26,213.6C521.15,212.74 521.15,211.88 521.27,211.02C521.21,211.5 521.14,211.97 521.08,212.45C521.19,211.78 521.4,211.17 521.58,210.53C521.73,209.99 521.02,211.65 521.31,211.18C521.39,211.05 521.45,210.9 521.52,210.77C521.57,210.69 522.08,209.92 522.07,209.91C522.11,209.97 521.15,210.97 521.65,210.48C521.76,210.38 521.85,210.26 521.96,210.16C521.99,210.13 522.29,209.88 522.29,209.86C522.31,209.92 521.12,210.66 521.73,210.3C521.99,210.14 523.03,209.64 522.06,210.04C521.08,210.45 522.23,210.03 522.5,209.96C525.24,209.32 527.13,206.03 526.26,203.34C525.31,200.47 522.56,198.9 519.62,199.58Z" style="fill:rgb(37,97,147);fill-rule:nonzero;"/>
                    </g>
                    <g>
                        <path d="M573.09,206.8C572.98,209.94 571.99,213.44 570.1,215.78C569.64,216.35 569.24,216.79 568.83,217.13C568.46,217.44 568.06,217.68 567.67,217.94C567.63,217.97 566.95,218.31 567.43,218.09C565.91,218.8 565.29,218.82 563.72,218.61C564.41,218.7 563.15,218.45 563.15,218.45C562.83,218.36 562.51,218.25 562.2,218.12C561.53,217.85 562.92,218.58 561.83,217.94C561.48,217.74 561.14,217.51 560.81,217.26C560.75,217.21 560.26,216.76 560.64,217.13C560.35,216.84 560.07,216.52 559.81,216.19C560.14,216.62 559.74,216.09 559.69,216.01C559.53,215.72 559.19,214.95 559.17,214.88C558.14,211.72 559.55,207.96 561.21,205.5C565.8,198.71 573.71,197.4 580.68,198.12C584.03,198.47 587.93,199.43 590.45,201.79C592.74,203.93 594.19,206.71 594.88,209.91C596.44,217.1 592.35,224.8 585.99,226.79C581.31,228.25 583.3,236.72 587.99,235.25C596.76,232.5 603.55,222.33 602.69,211.58C602.26,206.2 600.41,201.18 597.23,197.2C593.75,192.84 588.88,190.65 583.92,189.8C574.03,188.12 562.65,189.81 555.87,199.29C552.5,204 550.44,210.18 551.68,216.34C552.71,221.47 556.32,225.21 560.55,226.71C565.46,228.45 570.61,226.9 574.44,223.05C578.43,219.04 580.39,212.8 580.61,206.79C580.69,204.42 578.82,202.4 576.84,202.4C574.75,202.42 573.18,204.43 573.09,206.8Z" style="fill:rgb(37,97,147);fill-rule:nonzero;"/>
                    </g>
                    <g>
                        <g>
                            <g>
                                <g>
                                    <path d="M929.88,169.25C918.67,197.66 908.21,226.36 898.52,255.32C888.88,284.12 880,313.17 871.89,342.44C869.83,349.88 867.82,357.33 865.86,364.79C865.31,366.9 864.74,369.1 865.32,371.28C865.84,373.24 867.2,374.95 868.96,375.94C872.14,377.72 876.06,377.39 879.57,377.43C895.33,377.64 911.09,377.7 926.86,377.61C958.21,377.44 989.56,376.7 1020.89,375.38C1028.85,375.04 1036.81,374.67 1044.77,374.26C1048.43,374.07 1052.1,373.77 1055.76,373.85C1057.77,373.89 1058.76,373.95 1060.35,374.28C1061.27,374.47 1062.18,374.71 1063.07,375.01C1063.35,375.1 1063.61,375.21 1063.89,375.3C1064.39,375.5 1064.43,375.51 1064.02,375.34C1064.28,375.46 1064.55,375.58 1064.81,375.71C1066.25,376.41 1067.62,377.23 1068.94,378.13C1069.54,378.54 1070.13,378.97 1070.72,379.41C1070.04,378.89 1071.18,379.78 1071.19,379.79C1071.65,380.16 1072.1,380.53 1072.55,380.91C1075.17,383.13 1077.71,385.45 1080.22,387.8C1085.58,392.84 1090.7,398.13 1095.57,403.65C1097.9,406.29 1100.16,408.98 1102.37,411.72C1104.08,413.84 1108.32,413.3 1109.44,410.81C1114.87,398.69 1119.82,386.36 1124.22,373.83C1126.36,367.75 1128.37,361.62 1130.25,355.46C1132.02,349.66 1133.99,343.78 1135.19,337.84C1136.16,332.99 1136.46,327.49 1133.97,323.02C1132.59,320.54 1130.29,318.76 1127.61,317.88C1124.13,316.74 1120.49,317.73 1117.32,319.27C1114.38,320.69 1111.7,322.71 1108.98,324.49C1106.16,326.34 1103.35,328.19 1100.53,330.04C1097.79,331.84 1095.09,333.71 1092.29,335.41C1091.62,335.81 1090.94,336.2 1090.25,336.55C1089.97,336.69 1089.69,336.83 1089.41,336.95C1090.04,336.67 1089.15,337.04 1088.99,337.09C1088.36,337.31 1087.7,337.5 1087.04,337.6C1087.84,337.47 1086.9,337.58 1086.7,337.58C1086.48,337.59 1086.26,337.58 1086.04,337.57C1086.5,337.66 1086.45,337.65 1085.9,337.54C1085.6,337.46 1084.31,336.93 1085.05,337.3C1084.43,336.99 1083.86,336.63 1083.29,336.23C1083.94,336.68 1083.21,336.16 1083.05,336.03C1082.78,335.8 1082.52,335.57 1082.26,335.34C1081.74,334.87 1081.24,334.38 1080.74,333.9C1078.25,331.48 1075.77,329.04 1073.29,326.61C1068.45,321.87 1063.6,317.14 1058.76,312.4C1049.45,303.29 1040.03,294.27 1031.28,284.6C1027.32,280.22 1023.51,275.71 1019.82,271.1C1018.94,270 1018.06,268.89 1017.19,267.78C1017.01,267.55 1016.82,267.31 1016.64,267.08C1016.71,267.17 1015.82,266.02 1016.17,266.48C1016.52,266.94 1015.63,265.78 1015.71,265.88C1015.44,265.53 1015.17,265.17 1014.9,264.82C1013.1,262.45 1011.32,260.07 1009.56,257.67C1002.69,248.3 996.12,238.71 989.52,229.15C976.17,209.8 962.62,190.4 946.45,173.26C944.52,171.21 942.54,169.19 940.53,167.22C938.85,165.57 935.82,165.42 934.17,167.22C932.53,169.01 932.38,171.82 934.17,173.58C942.41,181.7 949.98,190.45 957.12,199.54C958.03,200.7 958.58,201.41 959.14,202.14C960.04,203.32 960.94,204.5 961.83,205.69C963.52,207.95 965.2,210.22 966.85,212.5C970.26,217.2 973.6,221.94 976.91,226.71C990.21,245.84 1003.12,265.29 1018.11,283.16C1026.09,292.67 1034.79,301.52 1043.64,310.22C1053.18,319.58 1062.75,328.91 1072.31,338.26C1074.55,340.45 1076.74,342.79 1079.41,344.47C1082.44,346.38 1085.92,346.91 1089.41,346.28C1092.57,345.71 1095.52,344.03 1098.19,342.3C1101,340.49 1103.78,338.63 1106.57,336.8C1109.31,335 1112.06,333.2 1114.8,331.39C1116.14,330.51 1117.48,329.61 1118.84,328.74C1119.42,328.37 1120.01,328 1120.61,327.66C1120.95,327.47 1121.29,327.29 1121.63,327.12C1121.84,327.02 1122.04,326.92 1122.25,326.82C1121.94,326.95 1121.94,326.95 1122.23,326.84C1122.85,326.62 1123.5,326.41 1124.15,326.32C1123.31,326.44 1124.26,326.41 1124.46,326.37C1125.01,326.28 1123.73,326.08 1124.77,326.41C1124.84,326.43 1125.48,326.65 1125.49,326.64C1125.31,326.81 1124.62,326.16 1125.36,326.64C1126.12,327.13 1125.24,326.62 1125.28,326.51C1125.27,326.54 1125.86,327.06 1125.89,327.09C1126.49,327.63 1125.66,326.92 1125.72,326.83C1125.71,326.85 1126.06,327.36 1126.1,327.43C1126.14,327.49 1126.44,328.06 1126.43,328.07C1126.37,328.09 1126.06,326.98 1126.31,327.81C1126.46,328.3 1126.61,328.77 1126.72,329.28C1126.74,329.39 1126.87,329.84 1126.83,329.9C1126.75,329.23 1126.73,329.15 1126.79,329.66C1126.8,329.77 1126.81,329.88 1126.82,329.98C1126.9,331.03 1126.89,332.09 1126.81,333.14C1126.79,333.44 1126.71,335.05 1126.77,333.8C1126.74,334.39 1126.57,335.03 1126.45,335.61C1125.86,338.45 1124.99,341.25 1124.2,344.04C1122.47,350.16 1120.61,356.25 1118.62,362.29C1116.63,368.33 1114.53,374.34 1112.3,380.3C1111.17,383.32 1110.01,386.32 1108.82,389.32C1108.24,390.78 1107.65,392.23 1107.05,393.69C1106.77,394.38 1106.48,395.07 1106.2,395.75C1105.86,396.58 1105.58,397.23 1105.41,397.65C1104.18,400.54 1102.93,403.42 1101.64,406.28C1104,405.98 1106.35,405.67 1108.71,405.37C1099.75,394.26 1089.81,383.77 1078.9,374.56C1076.16,372.25 1073.3,370 1070.12,368.33C1066.64,366.51 1063.05,365.5 1059.16,365.06C1055.41,364.64 1051.64,364.9 1047.88,365.1C1044.07,365.3 1040.27,365.49 1036.46,365.68C1005.32,367.18 974.15,368.12 942.97,368.48C927.38,368.66 911.79,368.7 896.2,368.6C892.22,368.57 888.23,368.54 884.25,368.49C882.52,368.47 880.79,368.45 879.05,368.43C878.01,368.42 876.97,368.4 875.93,368.39C875.59,368.38 875.25,368.38 874.92,368.37C874.64,368.36 873.38,368.41 874.6,368.4C874.27,368.4 873.94,368.24 873.61,368.2C872.62,368.06 874.14,368.53 873.63,368.26C873.36,368.12 872.8,367.69 873.66,368.36C872.95,367.81 873.93,368.87 873.98,368.91C874,369.02 874.02,369.12 874.04,369.23C874.07,368.68 874.07,368.63 874.04,369.07C874.1,368.77 874.18,368.47 874.26,368.18C874.55,367.04 874.86,365.91 875.16,364.77C876.1,361.2 877.06,357.64 878.02,354.07C885.92,324.92 894.59,295.98 904.01,267.28C913.43,238.58 923.6,210.14 934.5,181.97C935.83,178.53 937.18,175.09 938.53,171.66C939.4,169.46 937.58,166.62 935.39,166.12C932.83,165.52 930.81,166.9 929.88,169.25Z" style="fill:white;fill-rule:nonzero;"/>
                                </g>
                            </g>
                            <g>
                                <g>
                                    <path d="M924.63,197.87C918.47,188 912.59,177.94 907.25,167.6C904.61,162.5 902.11,157.34 899.76,152.11C899.21,150.87 898.66,149.63 898.12,148.38C897.94,147.96 897.76,147.55 897.59,147.13C897.67,147.31 897.87,147.79 897.52,146.96C897.23,146.26 896.94,145.57 896.66,144.87C895.55,142.15 894.49,139.41 893.48,136.66C889.42,125.58 886.26,114.21 884.06,102.62C883.49,99.65 882.99,96.66 882.53,93.67C882.41,92.88 882.29,92.09 882.18,91.31C882.13,90.99 882.09,90.68 882.05,90.36C882.07,90.5 881.86,88.95 881.94,89.54C882.02,90.13 881.81,88.57 881.83,88.72C881.79,88.4 881.75,88.09 881.71,87.77C881.6,86.9 881.49,86.03 881.39,85.16C880.67,79.06 880.13,72.93 879.72,66.8C878.8,53.07 878.49,39.31 878.2,25.56C878.15,23.21 876.17,20.95 873.7,21.06C871.3,21.17 869.15,23.04 869.2,25.56C869.73,50.55 870.35,75.62 874.54,100.32C878.56,124.04 886.7,146.64 897.44,168.12C903.32,179.88 909.92,191.27 916.88,202.43C918.13,204.43 920.95,205.39 923.04,204.04C925.01,202.74 925.96,200.01 924.63,197.87Z" style="fill:white;fill-rule:nonzero;"/>
                                </g>
                            </g>
                        </g>
                        <g>
                            <g>
                                <path d="M867.09,319.81C848.84,319.33 830.56,320.32 812.47,322.74C794.1,325.19 775.95,328.98 758.17,334.2C740.41,339.42 723.06,346.03 706.29,353.86C689.75,361.58 673.8,370.57 658.63,380.73C643.27,391.02 628.68,402.51 615.13,415.1C613.51,416.61 611.9,418.13 610.31,419.67C608.61,421.31 608.54,424.41 610.31,426.03C612.13,427.7 614.86,427.78 616.67,426.03C623.19,419.74 629.96,413.71 636.95,407.95C638.71,406.5 640.49,405.07 642.28,403.66C642.71,403.32 643.15,402.98 643.58,402.64C643.8,402.47 644.02,402.3 644.23,402.13C644.34,402.05 644.9,401.61 644.3,402.07C645.17,401.39 646.05,400.72 646.94,400.06C650.58,397.31 654.27,394.63 658.02,392.02C672.83,381.71 688.44,372.54 704.64,364.6C708.68,362.62 712.75,360.72 716.86,358.89C717.87,358.44 718.88,358 719.9,357.56C720.41,357.34 720.92,357.12 721.42,356.9C721.67,356.79 721.93,356.68 722.18,356.57C722.15,356.58 723.27,356.11 722.79,356.31C722.3,356.51 723.1,356.18 723.21,356.14C723.47,356.03 723.72,355.93 723.98,355.82C724.49,355.61 725,355.4 725.51,355.19C726.6,354.74 727.69,354.3 728.78,353.87C737.2,350.52 745.74,347.48 754.39,344.77C771.61,339.37 789.24,335.27 807.08,332.54C808.17,332.37 809.27,332.21 810.36,332.05C810.91,331.97 811.46,331.89 812,331.82C812.27,331.78 812.55,331.74 812.82,331.71C812.16,331.8 812.7,331.73 813.06,331.68C815.32,331.38 817.59,331.11 819.85,330.85C824.32,330.35 828.79,329.94 833.27,329.61C842.3,328.95 851.36,328.65 860.42,328.72C862.63,328.74 864.85,328.78 867.06,328.83C869.41,328.89 871.67,326.72 871.56,324.33C871.48,321.82 869.61,319.88 867.09,319.81Z" style="fill:white;fill-rule:nonzero;"/>
                            </g>
                        </g>
                    </g>
                    <g>
                        <path d="M757.56,200.8C758,200.76 759.96,200.42 761.52,200.25C761.8,199.33 762.09,198.45 762.13,198.09C762.15,197.82 762.23,197.21 762.29,196.76C760.09,196.81 753.71,196.9 752.83,196.91C747.43,196.98 742.02,197.04 736.62,197.11C736.4,197.94 736.21,198.78 736.06,199.62C735.99,200.46 735.94,201.31 735.94,202.15C741.16,201.91 746.37,201.63 751.58,201.25C753.57,201.12 755.56,200.96 757.56,200.8Z" style="fill:rgb(221,125,139);fill-rule:nonzero;"/>
                        <path d="M720.79,69.42C663.35,69.42 616.79,115.98 616.79,173.42C616.79,202.89 629.07,229.47 648.76,248.4C649,246.48 649.81,244.69 651.34,243.43C653.39,241.75 655.34,239.96 657.15,238.03C658.92,236.15 660.2,234.55 661.03,233.38C662.47,231.34 663.78,229.22 664.95,227.02C666.4,224.32 666.64,223.79 667.46,221.54C671.53,210.44 670.51,199.27 673.58,187.64C674.18,185.38 675.59,183.66 677.39,182.52C678.87,180.71 681.11,179.48 684.13,179.44C700.41,179.24 716.7,179.03 732.98,178.83C740.1,178.74 747.23,178.65 754.35,178.56C761.38,178.47 769.2,177.49 774.78,182.74C780.44,188.06 781.08,195.72 779.81,202.97C778.59,209.92 775.48,216.26 768.04,218.01C761.37,219.58 753.91,219.47 747.08,219.91C740.09,220.36 733.1,220.69 726.1,220.89C712.99,221.27 699.87,221.17 686.76,220.68C686.18,223.21 685.45,225.71 684.46,228.16C680.07,239.06 673.42,248.9 664.29,256.4C663.23,257.27 662.05,257.94 660.83,258.39C677.78,270.37 698.44,277.43 720.77,277.43C778.21,277.43 824.77,230.87 824.77,173.43C824.79,115.98 778.22,69.42 720.79,69.42ZM791.88,145.54C773.31,145.05 754.73,144.79 736.16,144.72C735.99,147.55 735.76,150.38 735.48,153.2C745.1,153.17 754.72,153.06 764.34,152.79C776.16,152.46 776.12,170.8 764.34,171.13C738.18,171.86 712.01,171.72 685.86,170.7C680.89,170.51 676.69,166.66 676.69,161.53C676.69,156.71 680.91,152.17 685.86,152.36C696.32,152.77 706.78,152.99 717.24,153.12C717.28,152.76 717.32,152.41 717.36,152.05C717.54,150.22 717.7,148.38 717.83,146.54C717.87,145.93 717.89,145.32 717.93,144.71C699.42,144.78 680.91,145.04 662.4,145.52C650.58,145.83 650.62,127.49 662.4,127.18C680.98,126.69 699.56,126.43 718.14,126.37C717.97,121.73 717.64,117.11 717.14,112.49C716.59,107.38 721.79,103.52 726.31,103.32C731.63,103.08 734.96,107.74 735.48,112.49C735.98,117.12 736.28,121.75 736.43,126.37C754.92,126.44 773.41,126.71 791.89,127.19C803.67,127.52 803.68,145.86 791.88,145.54Z" style="fill:rgb(221,125,139);fill-rule:nonzero;"/>
                        <path d="M717.93,197.35C708.67,197.47 699.41,197.58 690.15,197.7C689.88,199.26 689.64,200.84 689.44,202.43C698.85,202.74 708.26,202.86 717.67,202.73C717.62,200.93 717.71,199.14 717.93,197.35Z" style="fill:rgb(221,125,139);fill-rule:nonzero;"/>
                    </g>
                </g>
            </g>
        </g>
    </g>
</svg>
