<?xml version="1.0" encoding="UTF-8" standalone="no"?>
<!DOCTYPE svg PUBLIC "-//W3C//DTD SVG 1.1//EN" "http://www.w3.org/Graphics/SVG/1.1/DTD/svg11.dtd">
<svg width="100%" height="100%" viewBox="0 0 1021 160" version="1.1" xmlns="http://www.w3.org/2000/svg" xmlns:xlink="http://www.w3.org/1999/xlink" xml:space="preserve" xmlns:serif="http://www.serif.com/" style="fill-rule:evenodd;clip-rule:evenodd;stroke-linejoin:round;stroke-miterlimit:2;">
    <g transform="matrix(1,0,0,1,-46.6012,-81.78)">
        <g id="レイヤー_1">
            <g opacity="0.96">
                <path d="M151.42,198.67C152.97,198.89 154.39,198.84 155.88,198.33C156.94,197.97 158.28,197.28 159.18,197.14C159.1,197.15 160.37,197.13 159.95,197.14C160.38,197.14 160.1,197.38 160.02,197.14C160.03,197.17 159.69,196.78 159.82,196.82C159.63,196.77 159.9,196.53 159.79,197.11C159.74,197.39 159.67,197.66 159.6,197.94C159.43,198.61 159.23,199.28 159.02,199.93C157.52,204.58 155,208.9 151.74,212.53C150.66,213.73 150.55,215.58 151.74,216.77C152.87,217.9 154.86,217.94 155.98,216.77C162.65,209.83 169.82,202.35 179.7,200.53C183.28,199.87 188.77,199.91 191.37,202.94C191.64,203.25 192.07,204.08 192.18,204.43C192.51,205.51 192.54,205.75 192.51,206.88C192.48,207.8 192.42,208.12 192.14,209.09C191.87,210 191.62,210.58 191.05,211.49C190.02,213.12 188.09,214.67 186.19,215.76C183.97,217.04 181.58,217.92 179.15,218.72C177.61,219.23 176.61,220.79 177.05,222.41C177.46,223.91 179.2,225.02 180.74,224.51C185.93,222.78 191.42,220.59 194.97,216.22C198.28,212.15 199.61,206.42 197.45,201.5C195.11,196.19 188.93,194.34 183.56,194.23C177.61,194.12 171.69,196.22 166.71,199.36C161.06,202.92 156.36,207.73 151.75,212.52C153.16,213.93 154.58,215.35 155.99,216.76C160.32,211.94 163.57,206.19 165.29,199.92C165.8,198.06 166.08,196.12 165.22,194.32C164.52,192.83 163.16,191.77 161.56,191.34C160.1,190.95 158.45,191.07 157.02,191.5C156.23,191.74 155.48,192.1 154.71,192.39C154.25,192.56 153.49,192.94 153.04,192.87C151.44,192.64 149.82,193.26 149.35,194.97C148.94,196.39 149.8,198.44 151.42,198.67Z" style="fill:white;fill-rule:nonzero;"/>
            </g>
            <g opacity="0.96">
                <path d="M163.78,181.44C163.46,196.52 163.72,211.6 164.56,226.66C164.65,228.28 165.87,229.66 167.56,229.66C169.11,229.66 170.65,228.29 170.56,226.66C169.72,211.6 169.46,196.52 169.78,181.44C169.86,177.58 163.86,177.58 163.78,181.44Z" style="fill:white;fill-rule:nonzero;"/>
            </g>
            <g>
                <path d="M222.93,196.6C228.85,196.26 234.77,195.92 240.69,195.58C242.25,195.49 243.77,194.26 243.69,192.58C243.62,191.03 242.37,189.48 240.69,189.58C234.77,189.92 228.85,190.26 222.93,190.6C221.37,190.69 219.85,191.92 219.93,193.6C220,195.15 221.25,196.7 222.93,196.6Z" style="fill:white;fill-rule:nonzero;"/>
            </g>
            <g>
                <path d="M230.61,181.95C228.23,196.39 224.12,210.57 218.24,223.97C217.59,225.45 217.81,227.19 219.32,228.07C220.59,228.81 222.77,228.49 223.42,226.99C229.52,213.09 233.93,198.53 236.4,183.54C236.66,181.94 235.98,180.31 234.3,179.85C232.87,179.46 230.88,180.34 230.61,181.95Z" style="fill:white;fill-rule:nonzero;"/>
            </g>
            <g>
                <path d="M242.66,206.14L253.85,206.14C255.42,206.14 256.92,204.76 256.85,203.14C256.78,201.51 255.53,200.14 253.85,200.14L242.66,200.14C241.09,200.14 239.59,201.52 239.66,203.14C239.73,204.77 240.98,206.14 242.66,206.14Z" style="fill:white;fill-rule:nonzero;"/>
            </g>
            <g>
                <path d="M241.78,220.92C246.73,223.43 252.57,224.02 257.87,222.28C259.36,221.79 260.48,220.18 259.97,218.59C259.49,217.1 257.88,215.97 256.28,216.49C255.73,216.67 255.17,216.83 254.6,216.96C254.34,217.02 254.07,217.07 253.8,217.12C253.65,217.15 253.49,217.17 253.34,217.19C253.75,217.14 253.79,217.13 253.45,217.17C252.37,217.27 251.28,217.31 250.2,217.23C249.93,217.21 249.66,217.18 249.39,217.15C249.16,217.12 249.24,217.13 249.61,217.18C249.46,217.16 249.3,217.13 249.15,217.11C248.62,217.02 248.08,216.9 247.56,216.76C247.04,216.62 246.52,216.45 246.01,216.27C245.86,216.22 245.72,216.16 245.58,216.1C245.94,216.25 245.96,216.26 245.65,216.13C245.37,216 245.09,215.87 244.81,215.73C243.41,215.02 241.49,215.32 240.71,216.81C239.98,218.19 240.28,220.16 241.78,220.92Z" style="fill:white;fill-rule:nonzero;"/>
            </g>
            <g>
                <path d="M282.55,188.21C282.5,192.8 282.44,197.39 282.39,201.97C282.34,205.95 282.11,210.05 283.11,213.95C285.21,222.19 293.38,225.97 301.36,224.68C305.88,223.95 310.02,221.62 313.69,218.98C315,218.03 315.64,216.37 314.77,214.88C314.01,213.58 311.99,212.85 310.67,213.8C307.32,216.21 303.44,218.64 299.21,218.94C295.94,219.17 292.29,218.25 290.35,215.58C287.97,212.31 288.34,207.75 288.39,203.93C288.45,198.69 288.51,193.44 288.57,188.2C288.6,184.35 282.6,184.35 282.55,188.21Z" style="fill:white;fill-rule:nonzero;"/>
            </g>
            <g>
                <path d="M338.9,196.95C344.82,196.61 350.74,196.27 356.66,195.93C358.22,195.84 359.74,194.61 359.66,192.93C359.59,191.38 358.34,189.83 356.66,189.93C350.74,190.27 344.82,190.61 338.9,190.95C337.34,191.04 335.82,192.27 335.9,193.95C335.97,195.5 337.22,197.05 338.9,196.95Z" style="fill:white;fill-rule:nonzero;"/>
            </g>
            <g>
                <path d="M346.59,182.3C344.21,196.74 340.1,210.92 334.22,224.32C333.57,225.8 333.79,227.54 335.3,228.42C336.57,229.16 338.75,228.84 339.4,227.34C345.5,213.44 349.91,198.88 352.38,183.89C352.64,182.29 351.96,180.66 350.28,180.2C348.84,179.81 346.85,180.69 346.59,182.3Z" style="fill:white;fill-rule:nonzero;"/>
            </g>
            <g>
                <path d="M358.63,206.5L369.82,206.5C371.39,206.5 372.89,205.12 372.82,203.5C372.75,201.87 371.5,200.5 369.82,200.5L358.63,200.5C357.06,200.5 355.56,201.88 355.63,203.5C355.71,205.12 356.95,206.5 358.63,206.5Z" style="fill:white;fill-rule:nonzero;"/>
            </g>
            <g>
                <path d="M357.75,221.28C362.7,223.79 368.54,224.38 373.84,222.64C375.33,222.15 376.45,220.54 375.94,218.95C375.46,217.46 373.85,216.33 372.25,216.85C371.7,217.03 371.14,217.19 370.57,217.32C370.31,217.38 370.04,217.43 369.77,217.48C369.62,217.51 369.46,217.53 369.31,217.55C369.72,217.5 369.76,217.49 369.42,217.53C368.34,217.63 367.25,217.67 366.17,217.59C365.9,217.57 365.63,217.54 365.36,217.51C365.13,217.48 365.21,217.49 365.58,217.54C365.43,217.52 365.27,217.49 365.12,217.47C364.59,217.38 364.05,217.26 363.53,217.12C363.01,216.98 362.49,216.81 361.98,216.63C361.83,216.58 361.69,216.52 361.55,216.46C361.91,216.61 361.93,216.62 361.62,216.49C361.34,216.36 361.06,216.23 360.78,216.09C359.38,215.38 357.46,215.68 356.68,217.17C355.95,218.54 356.26,220.52 357.75,221.28Z" style="fill:white;fill-rule:nonzero;"/>
            </g>
            <g>
                <path d="M396.23,195.23C403.75,194.84 411.25,193.91 418.65,192.49C420.24,192.18 421.15,190.27 420.75,188.8C420.29,187.13 418.66,186.4 417.06,186.7C410.18,188.02 403.23,188.86 396.24,189.23C394.62,189.31 393.24,190.55 393.24,192.23C393.23,193.79 394.61,195.32 396.23,195.23Z" style="fill:white;fill-rule:nonzero;"/>
            </g>
            <g>
                <path d="M406.79,179.51C404.7,185 402.92,190.61 401.5,196.32C400.82,199.04 400.14,201.8 399.7,204.57C399.27,207.3 399.35,210.13 401.46,212.19C402.42,213.12 403.93,213.33 405.1,212.66C409.09,210.35 413.35,208.69 417.86,207.71C419.88,207.27 421.15,206.99 423.17,207.08C424.3,207.13 425.61,207.43 425.95,208.22C427.2,211.11 423.74,215.19 421.7,217.2C418.78,220.07 415.21,222.16 411.65,224.12C408.27,225.98 411.29,231.16 414.68,229.3C421.52,225.54 428.9,220.7 431.54,212.94C432.92,208.88 431.88,204.1 427.77,202.13C424.05,200.35 419.7,201.14 415.85,202.01C411.03,203.11 406.37,204.99 402.09,207.47C403.3,207.63 404.51,207.78 405.73,207.94C405.56,207.78 405.57,207.63 405.59,207.8C405.62,208.11 405.54,207.72 405.54,207.63C405.51,207.29 405.47,207.16 405.5,206.58C405.54,205.86 405.76,204.86 405.97,203.88C406.51,201.27 407.11,198.67 407.79,196.1C409.13,191.02 410.74,186.02 412.61,181.11C413.19,179.6 411.97,177.82 410.51,177.42C408.8,176.95 407.37,177.99 406.79,179.51Z" style="fill:white;fill-rule:nonzero;"/>
            </g>
            <g>
                <path d="M497.85,186.83L497.57,186.83C497.16,186.81 496.77,186.9 496.41,187.09C496.04,187.21 495.72,187.42 495.44,187.71C495.15,187.98 494.94,188.3 494.82,188.68C494.63,189.04 494.55,189.42 494.56,189.84C494.6,190.11 494.63,190.37 494.67,190.64C494.81,191.15 495.07,191.59 495.44,191.96C495.64,192.12 495.84,192.27 496.05,192.43C496.52,192.7 497.02,192.84 497.56,192.84L497.84,192.84C498.25,192.86 498.64,192.77 499,192.58C499.37,192.46 499.69,192.25 499.97,191.96C500.26,191.69 500.47,191.37 500.59,190.99C500.78,190.63 500.86,190.25 500.85,189.83C500.81,189.56 500.78,189.3 500.74,189.03C500.6,188.52 500.34,188.08 499.97,187.71C499.77,187.55 499.57,187.4 499.36,187.24C498.9,186.96 498.4,186.83 497.85,186.83Z" style="fill:white;fill-rule:nonzero;"/>
            </g>
            <g>
                <path d="M506.85,186.83L506.57,186.83C506.16,186.81 505.77,186.9 505.41,187.09C505.04,187.21 504.72,187.42 504.44,187.71C504.15,187.98 503.94,188.3 503.82,188.68C503.63,189.04 503.55,189.42 503.56,189.84C503.6,190.11 503.63,190.37 503.67,190.64C503.81,191.15 504.07,191.59 504.44,191.96C504.64,192.12 504.84,192.27 505.05,192.43C505.52,192.7 506.02,192.84 506.56,192.84L506.84,192.84C507.25,192.86 507.64,192.77 508,192.58C508.37,192.46 508.69,192.25 508.97,191.96C509.26,191.69 509.47,191.37 509.59,190.99C509.78,190.63 509.86,190.25 509.85,189.83C509.81,189.56 509.78,189.3 509.74,189.03C509.6,188.52 509.34,188.08 508.97,187.71C508.77,187.55 508.57,187.4 508.36,187.24C507.9,186.96 507.4,186.83 506.85,186.83Z" style="fill:white;fill-rule:nonzero;"/>
            </g>
            <g>
                <path d="M754.62,187.5C754.57,192.09 754.51,196.68 754.46,201.26C754.41,205.24 754.18,209.34 755.18,213.24C757.28,221.48 765.45,225.26 773.43,223.97C777.95,223.24 782.09,220.91 785.76,218.27C787.07,217.32 787.71,215.66 786.84,214.17C786.08,212.87 784.06,212.14 782.74,213.09C779.39,215.5 775.51,217.93 771.28,218.23C768.01,218.46 764.36,217.54 762.42,214.87C760.04,211.6 760.41,207.04 760.45,203.22C760.51,197.98 760.57,192.73 760.63,187.49C760.66,183.64 754.66,183.64 754.62,187.5Z" style="fill:white;fill-rule:nonzero;"/>
            </g>
            <g>
                <path d="M812.65,191.1C820.55,190.72 828.46,190.34 836.36,189.96C837.98,189.88 839.36,188.64 839.36,186.96C839.36,185.4 837.99,183.88 836.36,183.96C828.46,184.34 820.55,184.72 812.65,185.1C811.03,185.18 809.65,186.42 809.65,188.1C809.65,189.67 811.03,191.18 812.65,191.1Z" style="fill:white;fill-rule:nonzero;"/>
            </g>
            <g>
                <path d="M817.26,203.57C823.49,203.86 829.72,203.42 835.87,202.38C837.42,202.12 838.43,200.12 837.97,198.69C837.43,197.01 835.94,196.31 834.28,196.59C828.94,197.49 823.01,197.83 817.27,197.57C815.7,197.5 814.2,199 814.27,200.57C814.34,202.26 815.58,203.49 817.26,203.57Z" style="fill:white;fill-rule:nonzero;"/>
            </g>
            <g>
                <path d="M825.24,179.23C825.97,185.61 826.44,192.01 826.63,198.43C826.72,201.56 826.75,204.68 826.7,207.81C826.66,210.09 826.58,211.95 825.92,214.05C825.72,214.68 825.24,215.71 824.88,216.14C824.23,216.95 823.56,217.42 822.51,217.77C820.24,218.54 818.34,218.94 816.03,218.66C816.4,218.7 815.31,218.48 815.13,218.42C814.68,218.26 815.58,218.76 814.9,218.29C814.82,218.24 814.47,217.95 814.82,218.24C814.57,218.02 814.64,218.14 814.56,217.72C814.61,217.98 814.71,217.43 814.65,217.54C815.09,216.84 815.3,216.42 816.23,216.08C815.78,216.25 817.13,215.91 817.02,215.93C817.18,215.91 817.5,215.91 817.56,215.91C818.2,215.9 818.84,215.94 819.47,216.06C822.6,216.62 825.76,217.58 828.78,218.56C831.67,219.5 834.41,220.7 836.95,222.4C838.3,223.3 840.27,222.66 841.05,221.32C841.91,219.85 841.32,218.12 839.97,217.22C837.03,215.25 833.73,213.87 830.37,212.78C827.21,211.75 823.89,210.74 820.61,210.2C817.05,209.61 813.24,209.99 810.7,212.81C808.34,215.42 807.85,219.28 810.21,222.07C812.1,224.3 815.26,224.87 818.04,224.7C821.09,224.51 824.6,223.89 827.16,222.13C832.75,218.29 832.73,210.94 832.73,204.86C832.73,196.3 832.23,187.75 831.25,179.24C831.07,177.63 830,176.24 828.25,176.24C826.76,176.23 825.05,177.61 825.24,179.23Z" style="fill:white;fill-rule:nonzero;"/>
            </g>
            <g>
                <path d="M864.81,195.17C876.85,193.96 888.96,193.59 901.06,194.06C902.68,194.12 904.06,192.64 904.06,191.06C904.06,189.38 902.69,188.12 901.06,188.06C888.97,187.59 876.86,187.96 864.81,189.17C863.2,189.33 861.81,190.43 861.81,192.17C861.81,193.67 863.19,195.33 864.81,195.17Z" style="fill:white;fill-rule:nonzero;"/>
            </g>
            <g>
                <path d="M885.16,181.31C886.11,187.03 887.03,192.84 887.39,198.63C887.53,200.93 887.5,203.65 886.62,205.61C885.87,207.28 884.56,208.68 883.04,209.13C880.11,209.99 877.5,206.44 879.81,204.06C880.25,203.6 880.88,203.28 881.44,203.21C882.01,203.14 882.93,203.34 883.58,203.7C885.12,204.53 886.09,206.09 886.34,208.01C887.08,213.7 882.6,219.02 879.73,223.49C878.85,224.85 879.45,226.8 880.81,227.59C882.26,228.44 884.04,227.88 884.91,226.51C888.73,220.56 893.33,214.27 892.18,206.79C891.66,203.41 889.74,200.33 886.76,198.6C883.89,196.93 880.12,196.64 877.24,198.47C874.51,200.2 872.72,203.4 872.9,206.65C873.09,209.96 875.22,213.03 878.24,214.39C884.93,217.41 891.5,211.84 892.94,205.39C893.84,201.38 893.32,197.29 892.85,193.26C892.33,188.73 891.69,184.21 890.94,179.7C890.67,178.1 888.7,177.21 887.25,177.6C885.56,178.08 884.89,179.7 885.16,181.31Z" style="fill:white;fill-rule:nonzero;"/>
            </g>
            <g>
                <path d="M73.79,92.78C81.34,95 88.62,97.98 95.54,101.74C101.85,105.17 108.05,109.11 113.12,114.24C117.65,118.82 121.2,124.6 121.99,130.85C122.74,136.7 121.43,143.01 116.86,147C116.36,147.44 116.31,147.48 115.58,147.94C115,148.31 114.41,148.64 113.79,148.94C112.95,149.34 111.61,149.77 110.32,150.03C110.15,150.06 109.37,150.19 109.47,150.18C109.6,150.16 108.94,150.22 108.77,150.24C108.04,150.29 107.31,150.29 106.59,150.25C106.43,150.24 105.76,150.18 105.91,150.2C106.07,150.22 105.4,150.11 105.25,150.08C104.55,149.94 103.87,149.75 103.19,149.52C101.3,148.88 99.39,147.33 98.27,145.36C98.09,145.05 97.92,144.73 97.78,144.4C97.95,144.77 97.67,144.1 97.63,143.99C97.4,143.32 97.23,142.64 97.12,141.94C97.2,142.4 97.09,141.68 97.08,141.54C97.06,141.24 97.04,140.93 97.04,140.63C97.04,140.27 97.05,139.92 97.07,139.56C97.08,139.42 97.17,138.53 97.11,138.98C97.81,133.71 101.14,129.08 105.62,126.53C111.73,123.06 119.45,123.47 126.08,124.88C133.71,126.5 141.16,129.33 148.31,132.4C155.76,135.6 163.01,139.26 170.1,143.17C171.86,144.14 173.61,145.13 175.35,146.12C178.71,148.04 181.73,142.86 178.38,140.94C170.67,136.53 162.82,132.36 154.73,128.71C146.71,125.09 138.4,121.69 129.83,119.58C121.51,117.53 112.61,116.92 104.57,120.38C98.44,123.01 93.67,128.72 91.83,135.09C89.92,141.7 91.69,148.87 97.31,153.08C102.62,157.06 110.05,157.05 115.96,154.52C122.54,151.69 126.77,145.3 127.82,138.32C128.97,130.65 126.99,122.89 122.67,116.48C118.2,109.83 111.88,104.73 105.17,100.46C97.74,95.74 89.75,91.9 81.45,88.97C79.45,88.26 77.43,87.61 75.39,87.01C71.67,85.9 70.09,91.69 73.79,92.78Z" style="fill:white;fill-rule:nonzero;"/>
            </g>
            <g>
                <g>
                    <path d="M74.5,203.73L116.17,203.73C120.03,203.73 120.04,197.73 116.17,197.73L74.5,197.73C70.64,197.73 70.63,203.73 74.5,203.73Z" style="fill:white;fill-rule:nonzero;"/>
                </g>
                <g>
                    <path d="M49.5,203.73C53.36,203.73 53.37,197.73 49.5,197.73C45.64,197.73 45.63,203.73 49.5,203.73Z" style="fill:white;fill-rule:nonzero;"/>
                </g>
            </g>
            <g>
                <path d="M117.41,229.2C107.88,230.09 98.43,231.96 89.42,235.23C87.9,235.78 86.87,237.27 87.32,238.92C87.72,240.39 89.48,241.57 91.01,241.02C99.51,237.94 108.42,236.05 117.41,235.21C119.02,235.06 120.41,233.94 120.41,232.21C120.41,230.7 119.03,229.05 117.41,229.2Z" style="fill:white;fill-rule:nonzero;"/>
            </g>
            <g>
                <path d="M970.36,178.05C974.13,173.37 978.56,169.23 983.6,165.93C988.82,162.51 994.74,159.59 1000.98,158.72C1006.44,157.96 1011.47,159.07 1016,162.14C1019.79,164.7 1022.91,168.77 1024.26,173.14C1025.7,177.79 1025.54,183.65 1022.03,187.4C1021.2,188.28 1020.5,188.8 1019.33,189.38C1018.99,189.55 1018.66,189.68 1018.12,189.85C1017.79,189.95 1017.46,190.04 1017.12,190.11C1017.04,190.13 1016.17,190.27 1016.56,190.22C1014.31,190.49 1012.37,190.05 1010.89,188.62C1009.41,187.19 1008.72,185.06 1008.68,183.01C1008.64,180.54 1009.33,178.46 1010.75,176.28C1013.81,171.58 1019.18,168.46 1024.06,165.99C1036,159.93 1050.05,157.93 1063.2,160.44C1064.79,160.74 1066.44,159.99 1066.89,158.34C1067.29,156.87 1066.39,154.96 1064.79,154.65C1050.71,151.96 1036.11,153.78 1023.11,159.79C1016.93,162.65 1010.65,166.45 1006.48,171.95C1002.6,177.07 1001.25,184.31 1004.52,190.11C1008,196.26 1015.61,197.56 1021.72,194.85C1027.96,192.07 1031.05,185.21 1031.09,178.65C1031.18,166.07 1020.82,154.61 1008.47,152.82C999.94,151.58 991.5,154.45 984.12,158.57C977.22,162.43 971.05,167.64 966.1,173.79C965.08,175.05 964.87,176.8 966.1,178.03C967.17,179.1 969.34,179.32 970.36,178.05Z" style="fill:white;fill-rule:nonzero;"/>
            </g>
            <g>
                <path d="M959.99,149.9C970.96,140.16 981.93,130.41 992.9,120.67C994.11,119.59 994,117.53 992.9,116.43C991.7,115.23 989.87,115.35 988.66,116.43C977.69,126.17 966.72,135.92 955.75,145.66C954.54,146.74 954.65,148.8 955.75,149.9C956.95,151.1 958.78,150.98 959.99,149.9Z" style="fill:white;fill-rule:nonzero;"/>
            </g>
            <g>
                <path d="M1011.13,108.27C1014.99,108.27 1015,102.27 1011.13,102.27C1007.27,102.27 1007.26,108.27 1011.13,108.27Z" style="fill:white;fill-rule:nonzero;"/>
            </g>
            <g>
                <path d="M949.57,135.75C956.37,126.46 963.17,117.17 969.97,107.89C970.93,106.58 970.19,104.54 968.89,103.79C967.37,102.9 965.75,103.55 964.79,104.87C957.99,114.16 951.19,123.45 944.39,132.73C943.43,134.04 944.17,136.08 945.47,136.83C946.99,137.72 948.61,137.06 949.57,135.75Z" style="fill:white;fill-rule:nonzero;"/>
            </g>
            <g>
                <path d="M983.33,87.78C987.19,87.78 987.2,81.78 983.33,81.78C979.47,81.78 979.47,87.78 983.33,87.78Z" style="fill:white;fill-rule:nonzero;"/>
            </g>
            <g>
                <g>
                    <path d="M461.67,203.6C465.99,203.41 470.32,203.1 474.64,203.04C475.58,203.03 476.41,203 477.27,203.37C477.09,203.29 477.74,203.67 477.75,203.67C477.57,203.51 477.62,203.55 477.89,203.79C478.05,203.93 478.19,204.09 478.33,204.24C478.2,204.04 478.24,204.09 478.44,204.39C478.56,204.57 478.67,204.75 478.77,204.94C478.98,205.32 479.01,205.44 479.05,205.56C479.33,206.4 479.42,206.94 479.43,207.72C479.46,209.62 478.96,211.47 478.42,213.28C477.93,214.93 477.64,215.83 476.79,217.22C476.31,218 476.38,217.92 475.75,218.52C475.6,218.66 475.45,218.79 475.3,218.92C475.5,218.75 475.46,218.77 475.16,218.98C474.8,219.16 474.64,219.27 474.3,219.38C472.81,219.85 471.16,219.56 469.56,219.17C467.99,218.79 466.31,219.67 465.87,221.27C465.45,222.8 466.38,224.58 467.97,224.96C471.98,225.92 476.07,225.94 479.43,223.26C481.99,221.21 483.32,217.93 484.22,214.88C485.29,211.25 486.1,207.16 484.68,203.51C483.14,199.54 479.88,197.22 475.62,197.05C473.39,196.96 471.12,197.18 468.89,197.28C466.49,197.39 464.08,197.49 461.68,197.6C460.06,197.67 458.68,198.93 458.68,200.6C458.67,202.17 460.05,203.67 461.67,203.6Z" style="fill:white;fill-rule:nonzero;"/>
                </g>
                <g>
                    <path d="M467.48,187.77C465.92,197.46 462.76,206.79 458.02,215.39C456.16,218.77 461.34,221.81 463.2,218.42C468.17,209.39 471.62,199.55 473.26,189.37C473.52,187.77 472.85,186.14 471.16,185.68C469.74,185.28 467.74,186.16 467.48,187.77Z" style="fill:white;fill-rule:nonzero;"/>
                </g>
                <g>
                    <path d="M487.79,198.91C490.53,200.13 493.27,201.36 496.01,202.58C496.77,202.92 497.49,203.11 498.32,202.88C499.02,202.69 499.77,202.15 500.11,201.5C500.48,200.8 500.66,199.96 500.41,199.19C500.18,198.49 499.73,197.71 499.03,197.4C496.29,196.18 493.55,194.95 490.81,193.73C490.05,193.39 489.33,193.2 488.5,193.43C487.8,193.62 487.05,194.16 486.71,194.81C486.34,195.51 486.16,196.35 486.41,197.12C486.64,197.81 487.1,198.6 487.79,198.91Z" style="fill:white;fill-rule:nonzero;"/>
                </g>
            </g>
            <path d="M932,212.5C930.07,212.5 928.5,210.93 928.5,209L928.5,177C928.5,175.07 930.07,173.5 932,173.5C933.93,173.5 935.5,175.07 935.5,177L935.5,209C935.5,210.93 933.93,212.5 932,212.5Z" style="fill:white;fill-rule:nonzero;"/>
            <circle cx="932" cy="220" r="4" style="fill:white;"/>
            <g>
                <g>
                    <g>
                        <path d="M528,196.28C535.42,196.27 542.85,195.77 550.27,195.37C557.18,195 564.09,194.6 571,194.28C572.62,194.2 574,192.96 574,191.28C574,189.71 572.63,188.2 571,188.28C564.09,188.61 557.18,189 550.27,189.37C542.86,189.77 535.43,190.27 528,190.28C524.14,190.28 524.13,196.28 528,196.28Z" style="fill:white;fill-rule:nonzero;"/>
                    </g>
                </g>
                <g>
                    <g>
                        <path d="M537.15,181.26C537.33,188.29 537.51,195.31 537.68,202.34C537.72,203.96 539.03,205.34 540.68,205.34C542.27,205.34 543.72,203.97 543.68,202.34C543.5,195.31 543.32,188.29 543.15,181.26C543.11,179.64 541.8,178.26 540.15,178.26C538.56,178.26 537.11,179.63 537.15,181.26Z" style="fill:white;fill-rule:nonzero;"/>
                    </g>
                </g>
                <g>
                    <g>
                        <path d="M555.37,180.2C555.49,183.77 555.71,187.34 555.77,190.92C555.84,194.53 555.83,198.59 555.23,201.82C553.99,208.55 550.28,215.42 543.94,218.42C542.48,219.11 542.1,221.21 542.86,222.52C543.74,224.02 545.49,224.29 546.96,223.6C553.05,220.72 557,214.96 559.4,208.85C561.72,202.94 561.9,196.6 561.76,190.33C561.68,186.95 561.48,183.58 561.37,180.2C561.24,176.35 555.24,176.33 555.37,180.2Z" style="fill:white;fill-rule:nonzero;"/>
                    </g>
                </g>
                <g>
                    <g>
                        <path d="M604.52,179.26C604.02,192.83 604,206.42 604,220C604,223.86 610,223.87 610,220C609.99,206.42 610.02,192.83 610.52,179.26C610.66,175.4 604.66,175.41 604.52,179.26Z" style="fill:white;fill-rule:nonzero;"/>
                    </g>
                </g>
                <g>
                    <g>
                        <path d="M589.9,206.01C589.73,206.8 589.48,207.58 589.16,208.33C589.26,208.09 589.36,207.85 589.46,207.61C589.01,208.66 588.43,209.64 587.74,210.54C587.9,210.34 588.05,210.14 588.21,209.93C587.53,210.8 586.76,211.57 585.89,212.25C586.09,212.09 586.29,211.94 586.5,211.78C586.4,211.85 586.31,211.93 586.21,212C585.56,212.48 585.05,212.99 584.83,213.79C584.63,214.51 584.72,215.46 585.13,216.1C585.54,216.74 586.16,217.3 586.92,217.48C587.66,217.65 588.59,217.65 589.23,217.18C590.94,215.93 592.36,214.5 593.52,212.73C594.53,211.19 595.28,209.41 595.68,207.61C595.85,206.82 595.79,206.01 595.38,205.3C595.02,204.68 594.3,204.08 593.59,203.92C592.82,203.75 591.96,203.78 591.28,204.22C590.64,204.63 590.07,205.25 589.9,206.01Z" style="fill:white;fill-rule:nonzero;"/>
                    </g>
                </g>
                <g>
                    <g>
                        <path d="M623.36,181.3C622.63,182.93 621.97,184.71 622.18,186.54C622.39,188.34 623.08,189.87 624.29,191.23C626.28,193.46 629.79,194.62 632.65,193.54C634.28,192.92 635.52,191.92 636.54,190.53C637.43,189.32 637.84,187.88 638.02,186.42C638.37,183.5 636.74,180.58 634.19,179.17C632.83,178.42 631.18,177.98 629.62,178.09C627.75,178.21 626.16,178.86 624.73,180.06C624.17,180.53 623.85,181.48 623.85,182.18C623.85,182.92 624.18,183.79 624.73,184.3C625.3,184.82 626.05,185.21 626.85,185.18C627.68,185.14 628.33,184.84 628.97,184.3C629.03,184.25 629.09,184.2 629.15,184.15C628.95,184.31 628.75,184.46 628.54,184.62C628.85,184.39 629.17,184.2 629.53,184.05C629.29,184.15 629.05,184.25 628.81,184.35C629.2,184.19 629.6,184.08 630.02,184.02C629.75,184.06 629.49,184.09 629.22,184.13C629.72,184.06 630.21,184.06 630.71,184.12C630.44,184.08 630.18,184.05 629.91,184.01C630.41,184.08 630.89,184.21 631.36,184.4C631.12,184.3 630.88,184.2 630.64,184.1C631.06,184.28 631.46,184.51 631.83,184.79C631.63,184.63 631.43,184.48 631.22,184.32C631.52,184.56 631.79,184.82 632.03,185.12C631.87,184.92 631.72,184.72 631.56,184.51C631.8,184.82 631.99,185.15 632.14,185.51C632.04,185.27 631.94,185.03 631.84,184.79C631.98,185.16 632.08,185.53 632.13,185.92C632.09,185.65 632.06,185.39 632.02,185.12C632.07,185.55 632.06,185.98 632.01,186.41C632.05,186.14 632.08,185.88 632.12,185.61C632.05,186.08 631.93,186.53 631.75,186.98C631.85,186.74 631.95,186.5 632.05,186.26C631.85,186.74 631.59,187.18 631.28,187.59C631.44,187.39 631.59,187.19 631.75,186.98C631.48,187.32 631.18,187.62 630.84,187.89C631.04,187.73 631.24,187.58 631.45,187.42C631.14,187.66 630.8,187.85 630.44,188.01C630.68,187.91 630.92,187.81 631.16,187.71C630.82,187.85 630.47,187.94 630.11,188C630.38,187.96 630.64,187.93 630.91,187.89C630.49,187.94 630.08,187.94 629.66,187.89C629.93,187.93 630.19,187.96 630.46,188C630.04,187.94 629.64,187.83 629.25,187.67C629.49,187.77 629.73,187.87 629.97,187.97C629.5,187.77 629.07,187.52 628.66,187.21C628.86,187.37 629.06,187.52 629.27,187.68C628.9,187.39 628.58,187.06 628.29,186.7C628.45,186.9 628.6,187.1 628.76,187.31C628.48,186.94 628.25,186.55 628.07,186.12C628.17,186.36 628.27,186.6 628.37,186.84C628.23,186.49 628.13,186.13 628.07,185.76C628.11,186.03 628.14,186.29 628.18,186.56C628.12,186.12 628.13,185.69 628.19,185.26C628.15,185.53 628.12,185.79 628.08,186.06C628.19,185.33 628.42,184.63 628.7,183.95C628.6,184.19 628.5,184.43 628.4,184.67C628.44,184.57 628.49,184.46 628.54,184.36C628.88,183.6 629.07,182.88 628.84,182.05C628.65,181.35 628.11,180.6 627.46,180.26C626.76,179.89 625.92,179.71 625.15,179.96C624.46,180.15 623.67,180.6 623.36,181.3Z" style="fill:white;fill-rule:nonzero;"/>
                    </g>
                </g>
                <g>
                    <g>
                        <path d="M648,205C659.13,205.01 670.32,205.75 681.44,205.07C683.06,204.97 684.44,203.76 684.44,202.07C684.44,200.52 683.07,198.97 681.44,199.07C670.32,199.75 659.13,199.01 648,199C644.14,199 644.13,205 648,205Z" style="fill:white;fill-rule:nonzero;"/>
                    </g>
                </g>
                <g>
                    <g>
                        <path d="M703.15,183.72C702.07,196.45 701.85,209.24 702.49,222C702.57,223.62 703.81,225 705.49,225C707.05,225 708.57,223.63 708.49,222C707.85,209.24 708.07,196.45 709.15,183.72C709.29,182.1 707.67,180.72 706.15,180.72C704.42,180.72 703.29,182.1 703.15,183.72Z" style="fill:white;fill-rule:nonzero;"/>
                    </g>
                </g>
                <g>
                    <g>
                        <path d="M708.34,205.56C714.23,205.48 720.12,205.58 726,205.6C727.57,205.61 729.07,204.22 729,202.6C728.93,200.97 727.68,199.61 726,199.6C720.11,199.57 714.22,199.47 708.34,199.56C706.77,199.58 705.27,200.92 705.34,202.56C705.41,204.17 706.66,205.59 708.34,205.56Z" style="fill:white;fill-rule:nonzero;"/>
                    </g>
                </g>
                <g>
                    <g>
                        <path d="M589.09,195.42C593.91,195.4 598.73,195 603.54,194.71C608.36,194.41 613.18,194.12 618,193.82C619.62,193.72 621,192.51 621,190.82C621,189.27 619.63,187.72 618,187.82C613.18,188.12 608.36,188.41 603.54,188.71C598.73,189 593.91,189.41 589.09,189.42C585.23,189.43 585.22,195.43 589.09,195.42Z" style="fill:white;fill-rule:nonzero;"/>
                    </g>
                </g>
                <g>
                    <g>
                        <path d="M617.73,209.13C618.71,209.6 619.62,210.18 620.48,210.84C620.28,210.68 620.08,210.53 619.87,210.37C620.9,211.18 621.83,212.11 622.64,213.14C622.48,212.94 622.33,212.74 622.17,212.53C623,213.61 623.69,214.77 624.22,216.02C624.12,215.78 624.02,215.54 623.92,215.3C624.04,215.59 624.15,215.89 624.26,216.18C624.52,216.92 624.94,217.56 625.64,217.97C626.28,218.35 627.23,218.51 627.95,218.27C629.41,217.8 630.61,216.16 630.05,214.58C628.44,210.02 625.14,206.06 620.76,203.93C620.03,203.57 619.26,203.4 618.45,203.63C617.75,203.82 617,204.36 616.66,205.01C615.94,206.37 616.22,208.4 617.73,209.13Z" style="fill:white;fill-rule:nonzero;"/>
                    </g>
                </g>
            </g>
        </g>
    </g>
</svg>
