<?xml version="1.0" encoding="UTF-8" standalone="no"?>
<!DOCTYPE svg PUBLIC "-//W3C//DTD SVG 1.1//EN" "http://www.w3.org/Graphics/SVG/1.1/DTD/svg11.dtd">
<svg width="100%" height="100%" viewBox="0 0 915 121" version="1.1" xmlns="http://www.w3.org/2000/svg" xmlns:xlink="http://www.w3.org/1999/xlink" xml:space="preserve" xmlns:serif="http://www.serif.com/" style="fill-rule:evenodd;clip-rule:evenodd;stroke-linejoin:round;stroke-miterlimit:2;">
    <g transform="matrix(1,0,0,1,-3.69707e-05,-0.000449102)">
        <g transform="matrix(1,0,0,1,-85.7404,-136.629)">
            <g>
                <g>
                    <g id="レイヤー_1">
                        <g>
                            <path d="M414.38,182.59C415.81,182.34 416.48,182.26 418.07,182.14C419.42,182.04 420.77,182 422.12,182.02C423.47,182.04 424.82,182.12 426.16,182.26C426.48,182.29 426.8,182.33 427.12,182.37C426.64,182.31 427.51,182.43 427.6,182.44C428.34,182.56 429.08,182.69 429.82,182.84C431.35,183.15 433.13,182.4 433.51,180.74C433.85,179.24 433.06,177.39 431.41,177.05C425.23,175.78 418.98,175.71 412.77,176.78C411.22,177.05 410.21,179.03 410.67,180.47C411.23,182.17 412.72,182.88 414.38,182.59Z" style="fill:rgb(38,97,148);fill-rule:nonzero;"/>
                        </g>
                        <g>
                            <path d="M407.9,201.46C409.6,203.71 411.67,205.35 414.32,206.35C416.97,207.35 419.91,207.5 422.72,207.47C427.67,207.42 432.91,206.57 436.62,203.03C439.42,200.36 435.18,196.13 432.38,198.79C430.1,200.96 426.39,201.4 423.09,201.46C419.53,201.53 415.26,201.3 413.08,198.42C412.1,197.13 410.49,196.46 408.98,197.34C407.71,198.09 406.92,200.16 407.9,201.46Z" style="fill:rgb(38,97,148);fill-rule:nonzero;"/>
                        </g>
                        <g>
                            <path d="M414.38,182.59C415.81,182.34 416.48,182.26 418.07,182.14C419.42,182.04 420.77,182 422.12,182.02C423.47,182.04 424.82,182.12 426.16,182.26C426.48,182.29 426.8,182.33 427.12,182.37C426.64,182.31 427.51,182.43 427.6,182.44C428.34,182.56 429.08,182.69 429.82,182.84C431.35,183.15 433.13,182.4 433.51,180.74C433.85,179.24 433.06,177.39 431.41,177.05C425.23,175.78 418.98,175.71 412.77,176.78C411.22,177.05 410.21,179.03 410.67,180.47C411.23,182.17 412.72,182.88 414.38,182.59Z" style="fill:rgb(38,97,148);fill-rule:nonzero;"/>
                        </g>
                        <g>
                            <path d="M407.9,201.46C409.6,203.71 411.67,205.35 414.32,206.35C416.97,207.35 419.91,207.5 422.72,207.47C427.67,207.42 432.91,206.57 436.62,203.03C439.42,200.36 435.18,196.13 432.38,198.79C430.1,200.96 426.39,201.4 423.09,201.46C419.53,201.53 415.26,201.3 413.08,198.42C412.1,197.13 410.49,196.46 408.98,197.34C407.71,198.09 406.92,200.16 407.9,201.46Z" style="fill:rgb(38,97,148);fill-rule:nonzero;"/>
                        </g>
                        <g>
                            <path d="M414.38,182.59C415.81,182.34 416.48,182.26 418.07,182.14C419.42,182.04 420.77,182 422.12,182.02C423.47,182.04 424.82,182.12 426.16,182.26C426.48,182.29 426.8,182.33 427.12,182.37C426.64,182.31 427.51,182.43 427.6,182.44C428.34,182.56 429.08,182.69 429.82,182.84C431.35,183.15 433.13,182.4 433.51,180.74C433.85,179.24 433.06,177.39 431.41,177.05C425.23,175.78 418.98,175.71 412.77,176.78C411.22,177.05 410.21,179.03 410.67,180.47C411.23,182.17 412.72,182.88 414.38,182.59Z" style="fill:rgb(38,97,148);fill-rule:nonzero;"/>
                        </g>
                        <g>
                            <path d="M407.9,201.46C409.6,203.71 411.67,205.35 414.32,206.35C416.97,207.35 419.91,207.5 422.72,207.47C427.67,207.42 432.91,206.57 436.62,203.03C439.42,200.36 435.18,196.13 432.38,198.79C430.1,200.96 426.39,201.4 423.09,201.46C419.53,201.53 415.26,201.3 413.08,198.42C412.1,197.13 410.49,196.46 408.98,197.34C407.71,198.09 406.92,200.16 407.9,201.46Z" style="fill:rgb(38,97,148);fill-rule:nonzero;"/>
                        </g>
                        <g>
                            <path d="M414.38,182.59C415.81,182.34 416.48,182.26 418.07,182.14C419.42,182.04 420.77,182 422.12,182.02C423.47,182.04 424.82,182.12 426.16,182.26C426.48,182.29 426.8,182.33 427.12,182.37C426.64,182.31 427.51,182.43 427.6,182.44C428.34,182.56 429.08,182.69 429.82,182.84C431.35,183.15 433.13,182.4 433.51,180.74C433.85,179.24 433.06,177.39 431.41,177.05C425.23,175.78 418.98,175.71 412.77,176.78C411.22,177.05 410.21,179.03 410.67,180.47C411.23,182.17 412.72,182.88 414.38,182.59Z" style="fill:rgb(38,97,148);fill-rule:nonzero;"/>
                        </g>
                        <g>
                            <path d="M407.9,201.46C409.6,203.71 411.67,205.35 414.32,206.35C416.97,207.35 419.91,207.5 422.72,207.47C427.67,207.42 432.91,206.57 436.62,203.03C439.42,200.36 435.18,196.13 432.38,198.79C430.1,200.96 426.39,201.4 423.09,201.46C419.53,201.53 415.26,201.3 413.08,198.42C412.1,197.13 410.49,196.46 408.98,197.34C407.71,198.09 406.92,200.16 407.9,201.46Z" style="fill:rgb(38,97,148);fill-rule:nonzero;"/>
                        </g>
                        <g>
                            <path d="M150.65,174.94C143.99,184.97 137.38,195.12 133.43,206.58C132.9,208.11 134.03,209.86 135.53,210.27C137.18,210.72 138.69,209.71 139.22,208.17C143,197.24 149.49,187.53 155.84,177.97C156.74,176.62 156.11,174.65 154.76,173.87C153.29,173.01 151.55,173.59 150.65,174.94Z" style="fill:rgb(38,97,148);fill-rule:nonzero;"/>
                        </g>
                        <g>
                            <path d="M151.81,196.37C152.02,196.29 152.23,196.23 152.45,196.19C152.25,196.24 152.26,196.26 152.47,196.25C152.49,196.25 152.84,196.38 152.72,196.31C153.18,196.59 153.44,196.78 153.66,197.1C154.37,198.12 154.56,199.61 154.72,200.86C154.96,202.73 155.27,204.58 156.36,206.17C157.36,207.64 158.77,208.66 160.42,209.29C163.37,210.41 166.84,209.89 169.53,208.33C172.56,206.57 174.67,203.7 176.69,200.92C177.64,199.61 176.92,197.58 175.61,196.82C174.09,195.93 172.46,196.58 171.51,197.9C169.99,199.99 168.07,202.53 165.94,203.48C166.12,203.4 165.43,203.66 165.3,203.69C165.19,203.72 164.22,203.93 164.75,203.85C164.45,203.89 164.14,203.9 163.84,203.9C163.73,203.9 162.87,203.84 163.44,203.91C163.14,203.87 162.86,203.77 162.57,203.71C162.03,203.6 162.71,203.87 162.21,203.57C162.11,203.51 161.45,203.06 161.86,203.4C161.78,203.33 161.22,202.75 161.54,203.16C160.81,202.24 160.72,200.86 160.58,199.74C160.35,197.98 160.03,196.31 159.2,194.71C157.55,191.53 153.78,189.39 150.22,190.61C148.69,191.14 147.68,192.67 148.12,194.3C148.53,195.77 150.27,196.9 151.81,196.37Z" style="fill:rgb(38,97,148);fill-rule:nonzero;"/>
                        </g>
                        <g>
                            <path d="M193.32,181.67C199.52,182.91 205.99,182.5 211.91,180.23C213.37,179.67 214.54,178.19 214.01,176.54C213.55,175.12 211.89,173.84 210.32,174.44C208.97,174.96 207.6,175.39 206.19,175.71C205.59,175.85 204.98,175.97 204.37,176.07C204.17,176.1 203.96,176.14 203.76,176.17C204.05,176.13 204.01,176.14 203.64,176.18C203.33,176.21 203.03,176.25 202.72,176.27C201.39,176.38 200.05,176.41 198.71,176.35C197.99,176.32 197.27,176.25 196.56,176.17C197.1,176.23 196.15,176.11 196.13,176.11C195.72,176.04 195.32,175.97 194.92,175.89C193.39,175.58 191.61,176.33 191.23,177.99C190.88,179.47 191.67,181.34 193.32,181.67Z" style="fill:rgb(38,97,148);fill-rule:nonzero;"/>
                        </g>
                        <g>
                            <path d="M202.33,169.83C199.65,178.88 195.34,187.32 189.66,194.85C188.68,196.14 189.45,198.2 190.74,198.95C192.28,199.85 193.87,199.17 194.84,197.87C200.82,189.94 205.29,180.93 208.11,171.41C209.21,167.71 203.42,166.13 202.33,169.83Z" style="fill:rgb(38,97,148);fill-rule:nonzero;"/>
                        </g>
                        <g>
                            <path d="M226.46,185.65L226.7,185.65C227.11,185.67 227.5,185.58 227.86,185.39C228.23,185.27 228.55,185.06 228.83,184.77C229.12,184.5 229.33,184.18 229.45,183.8C229.64,183.44 229.72,183.06 229.71,182.64C229.67,182.37 229.64,182.11 229.6,181.84C229.46,181.33 229.2,180.89 228.83,180.52C228.63,180.36 228.43,180.21 228.22,180.05C227.75,179.78 227.25,179.64 226.71,179.64L226.47,179.64C226.06,179.62 225.67,179.71 225.31,179.9C224.94,180.02 224.62,180.23 224.34,180.52C224.05,180.79 223.84,181.11 223.72,181.49C223.53,181.85 223.45,182.23 223.46,182.65C223.5,182.92 223.53,183.18 223.57,183.45C223.71,183.96 223.97,184.4 224.34,184.77C224.54,184.93 224.74,185.08 224.95,185.24C225.42,185.52 225.92,185.65 226.46,185.65Z" style="fill:rgb(38,97,148);fill-rule:nonzero;"/>
                        </g>
                        <g>
                            <path d="M217.04,190.74C216.04,194.13 215.27,197.85 213.65,200.95C212.92,202.34 212.17,203.44 211,204.34C209.94,205.16 208.73,205.54 207.56,205.57C207.54,205.57 207.06,205.52 207.35,205.56C207.69,205.61 207.07,205.48 207,205.46C206.85,205.42 206.71,205.38 206.56,205.32C206.62,205.34 206.88,205.47 206.57,205.32C205.75,204.9 205.67,204.85 205.16,204.2C205.5,204.64 204.87,203.63 205,203.91C205.12,204.17 204.94,203.74 204.94,203.72C204.89,203.54 204.83,203.34 204.8,203.15C204.81,203.22 204.84,203.56 204.85,203.21C204.86,202.71 204.74,203.6 204.84,203.1C204.87,202.95 204.91,202.81 204.95,202.66C204.87,202.95 204.91,202.7 205,202.54C205.1,202.37 205.2,202.18 205.32,202.02C205.28,202.08 205.1,202.28 205.33,202.03C205.42,201.94 206.04,201.37 205.76,201.58C206.52,201 206.74,200.97 207.48,200.79C208.96,200.44 210.6,200.82 212.09,201.27C215.69,202.37 219.02,204.39 221.77,206.98C222.95,208.09 224.84,208.15 226.01,206.98C227.13,205.86 227.19,203.85 226.01,202.74C220,197.05 206.58,189.87 200.22,198.86C197.33,202.95 199.4,208.44 203.69,210.55C208.13,212.73 213.27,210.93 216.44,207.39C220.15,203.25 221.31,197.48 222.83,192.3C223.29,190.75 222.28,189.03 220.73,188.61C219.14,188.21 217.5,189.18 217.04,190.74Z" style="fill:rgb(38,97,148);fill-rule:nonzero;"/>
                        </g>
                        <g>
                            <path d="M250.86,186.04C256.15,185.96 261.29,184.68 266.04,182.36C267.45,181.67 267.95,179.55 267.12,178.26C266.19,176.81 264.53,176.45 263.02,177.18C262.72,177.33 262.42,177.47 262.12,177.61C262.04,177.65 261.27,177.99 261.92,177.7C261.39,177.93 260.84,178.13 260.3,178.32C259.25,178.69 258.17,179.01 257.08,179.27C256.56,179.4 256.03,179.51 255.5,179.61C255.17,179.67 254.85,179.72 254.52,179.78C253.87,179.89 255.05,179.73 254.33,179.81C253.17,179.94 252.02,180.02 250.86,180.04C249.29,180.06 247.79,181.4 247.86,183.04C247.93,184.64 249.18,186.06 250.86,186.04Z" style="fill:rgb(38,97,148);fill-rule:nonzero;"/>
                        </g>
                        <g>
                            <path d="M255.26,172.91C255.66,179.17 256.05,185.43 256.09,191.71C256.11,194.46 256.27,197.39 255.83,200.1C255.69,200.97 255.26,202.24 254.92,202.64C254.55,203.08 254.51,203.07 254.09,203.29C253.63,203.53 254.61,203.2 253.74,203.42C253.16,203.57 253.9,203.45 253.27,203.47C253.68,203.46 252.92,203.29 253.35,203.56C253.04,203.37 253.04,203.24 252.98,202.9C253.07,203.38 253.01,202 252.95,202.46C253.03,201.9 253.27,201.44 253.6,200.98C254.9,199.19 257.12,197.91 259.06,196.93C261.18,195.86 263.54,195.14 265.89,194.82C267.04,194.67 268.21,194.63 269.36,194.65C270.65,194.68 271.44,194.75 272.49,195C273,195.12 273.75,195.35 274.1,195.51C273.82,195.38 274.77,195.88 274.65,195.81C274.72,195.85 275.4,196.33 275.12,196.1C275.86,196.7 276.07,196.94 276.03,197.87C275.92,200.2 273,201.21 270.9,201.57C269.3,201.85 268.4,203.8 268.8,205.26C269.26,206.95 270.89,207.64 272.49,207.36C276.14,206.72 279.68,204.74 281.23,201.24C282.79,197.71 281.86,193.8 278.8,191.42C276.18,189.39 272.81,188.76 269.56,188.66C266.06,188.55 262.44,189.14 259.17,190.38C253.32,192.6 244.16,198.31 247.7,205.85C249.33,209.32 253.37,210.22 256.67,208.69C260.22,207.05 261.53,203.32 261.89,199.68C262.31,195.41 262.13,191.03 262,186.76C261.85,182.14 261.56,177.53 261.27,172.91C261.17,171.29 259.96,169.91 258.27,169.91C256.71,169.91 255.16,171.28 255.26,172.91Z" style="fill:rgb(38,97,148);fill-rule:nonzero;"/>
                        </g>
                        <g>
                            <path d="M280.34,180.96C284.2,180.96 284.21,174.96 280.34,174.96C276.48,174.96 276.47,180.96 280.34,180.96Z" style="fill:rgb(38,97,148);fill-rule:nonzero;"/>
                        </g>
                        <g>
                            <g>
                                <path d="M299.57,173.39C297.02,184.71 296.76,196.33 298.74,207.76C299.02,209.36 300.98,210.25 302.43,209.86C304.12,209.4 304.8,207.77 304.53,206.17C302.75,195.85 303.06,185.2 305.36,174.99C305.72,173.41 304.88,171.74 303.26,171.3C301.75,170.88 299.93,171.8 299.57,173.39Z" style="fill:rgb(38,97,148);fill-rule:nonzero;"/>
                            </g>
                            <g>
                                <path d="M302.52,176.2C310.97,175.19 319.5,174.98 327.99,175.61C329.03,175.69 330.1,175.72 331.14,175.88C331.27,175.9 331.65,176 331.87,176.05C331.59,175.99 331.68,175.78 331.69,175.98C331.7,176.32 331.89,176.32 331.97,176.61C332.06,176.94 332.14,177.27 332.19,177.6C332.14,177.3 332.23,178.04 332.24,178.14C332.3,178.78 332.34,179.43 332.38,180.07C332.65,184.26 332.7,188.47 332.54,192.66C332.36,197.4 331.9,202.12 331.14,206.8C330.88,208.4 331.55,210.03 333.24,210.49C334.67,210.88 336.67,210 336.93,208.39C338.44,199.02 338.99,189.53 338.38,180.06C338.12,176 337.57,170.99 332.71,170.06C330.39,169.62 327.93,169.56 325.57,169.43C323.22,169.3 320.88,169.23 318.53,169.23C313.18,169.22 307.84,169.55 302.53,170.18C300.92,170.37 299.53,171.42 299.53,173.18C299.52,174.67 300.9,176.39 302.52,176.2Z" style="fill:rgb(38,97,148);fill-rule:nonzero;"/>
                            </g>
                            <g>
                                <path d="M301.84,210.95C312.26,211.44 322.68,211.93 333.1,212.43C334.72,212.51 336.1,211 336.1,209.43C336.1,207.74 334.72,206.51 333.1,206.43C322.68,205.94 312.26,205.45 301.84,204.95C300.22,204.87 298.84,206.38 298.84,207.95C298.84,209.64 300.21,210.87 301.84,210.95Z" style="fill:rgb(38,97,148);fill-rule:nonzero;"/>
                            </g>
                        </g>
                        <g>
                            <path d="M361.7,175.16C360.2,179.1 358.95,183.29 359.77,187.53C360.25,190.02 361.68,192.94 364.45,193.31C366.82,193.63 369.6,192.41 371.63,191.29C373.01,190.53 373.57,188.52 372.71,187.19C371.81,185.8 370.08,185.3 368.61,186.11C368.23,186.32 367.84,186.51 367.45,186.69C367.84,186.51 367.56,186.64 367.32,186.73C367.12,186.81 366.91,186.88 366.71,186.94C366.3,187.07 365.88,187.19 365.46,187.28C365.4,187.29 364.99,187.42 364.95,187.39C365.34,187.35 365.42,187.34 365.19,187.35C364.96,187.35 365.04,187.37 365.44,187.41C365.69,187.55 365.94,187.69 366.2,187.84C366.26,187.92 366.32,188 366.38,188.09C366.32,188.08 366.13,187.66 366.09,187.58C366,187.41 365.89,187.24 365.84,187.06C365.96,187.43 365.96,187.36 365.85,187.03C365.73,186.67 365.64,186.3 365.56,185.93C365.51,185.69 365.31,185.36 365.55,185.94C365.49,185.78 365.51,185.54 365.5,185.37C365.46,184.71 365.37,183.8 365.58,183.16C365.38,183.8 365.56,183.32 365.59,183.13C365.62,182.93 365.66,182.74 365.7,182.54C365.78,182.14 365.87,181.75 365.97,181.36C366.37,179.79 366.92,178.26 367.49,176.75C368.05,175.28 366.87,173.4 365.39,173.06C363.68,172.67 362.3,173.59 361.7,175.16Z" style="fill:rgb(38,97,148);fill-rule:nonzero;"/>
                        </g>
                        <g>
                            <path d="M376.77,176.79C379.55,182.11 379.32,188.68 378.02,194.39C377.41,197.09 376.44,199.82 374.56,201.9C372.74,203.91 370.46,205.22 367.83,205.86C364.08,206.76 365.67,212.55 369.43,211.65C376.96,209.84 381.95,203.74 383.72,196.4C385.52,188.95 385.57,180.68 381.96,173.76C381.21,172.32 379.21,171.89 377.86,172.68C376.39,173.54 376.02,175.35 376.77,176.79Z" style="fill:rgb(38,97,148);fill-rule:nonzero;"/>
                        </g>
                        <g>
                            <path d="M92.66,183.99C94.09,183.74 94.76,183.66 96.35,183.54C97.7,183.44 99.05,183.4 100.4,183.42C101.75,183.44 103.1,183.52 104.44,183.66C104.76,183.69 105.08,183.73 105.4,183.77C104.92,183.71 105.79,183.83 105.88,183.84C106.62,183.96 107.36,184.09 108.1,184.24C109.63,184.55 111.41,183.8 111.79,182.14C112.13,180.64 111.34,178.79 109.69,178.45C103.51,177.18 97.26,177.11 91.05,178.18C89.5,178.45 88.49,180.43 88.95,181.87C89.51,183.56 91,184.27 92.66,183.99Z" style="fill:rgb(38,97,148);fill-rule:nonzero;"/>
                        </g>
                        <g>
                            <path d="M86.18,202.85C87.88,205.1 89.95,206.74 92.6,207.74C95.25,208.74 98.19,208.89 101,208.86C105.95,208.81 111.19,207.96 114.9,204.42C117.7,201.75 113.46,197.52 110.66,200.18C108.38,202.35 104.67,202.79 101.37,202.85C97.81,202.92 93.54,202.69 91.36,199.81C90.38,198.52 88.77,197.85 87.26,198.73C85.99,199.49 85.2,201.55 86.18,202.85Z" style="fill:rgb(38,97,148);fill-rule:nonzero;"/>
                        </g>
                        <g>
                            <path d="M92.66,183.99C94.09,183.74 94.76,183.66 96.35,183.54C97.7,183.44 99.05,183.4 100.4,183.42C101.75,183.44 103.1,183.52 104.44,183.66C104.76,183.69 105.08,183.73 105.4,183.77C104.92,183.71 105.79,183.83 105.88,183.84C106.62,183.96 107.36,184.09 108.1,184.24C109.63,184.55 111.41,183.8 111.79,182.14C112.13,180.64 111.34,178.79 109.69,178.45C103.51,177.18 97.26,177.11 91.05,178.18C89.5,178.45 88.49,180.43 88.95,181.87C89.51,183.56 91,184.27 92.66,183.99Z" style="fill:rgb(38,97,148);fill-rule:nonzero;"/>
                        </g>
                        <g>
                            <path d="M86.18,202.85C87.88,205.1 89.95,206.74 92.6,207.74C95.25,208.74 98.19,208.89 101,208.86C105.95,208.81 111.19,207.96 114.9,204.42C117.7,201.75 113.46,197.52 110.66,200.18C108.38,202.35 104.67,202.79 101.37,202.85C97.81,202.92 93.54,202.69 91.36,199.81C90.38,198.52 88.77,197.85 87.26,198.73C85.99,199.49 85.2,201.55 86.18,202.85Z" style="fill:rgb(38,97,148);fill-rule:nonzero;"/>
                        </g>
                        <g>
                            <path d="M92.66,183.99C94.09,183.74 94.76,183.66 96.35,183.54C97.7,183.44 99.05,183.4 100.4,183.42C101.75,183.44 103.1,183.52 104.44,183.66C104.76,183.69 105.08,183.73 105.4,183.77C104.92,183.71 105.79,183.83 105.88,183.84C106.62,183.96 107.36,184.09 108.1,184.24C109.63,184.55 111.41,183.8 111.79,182.14C112.13,180.64 111.34,178.79 109.69,178.45C103.51,177.18 97.26,177.11 91.05,178.18C89.5,178.45 88.49,180.43 88.95,181.87C89.51,183.56 91,184.27 92.66,183.99Z" style="fill:rgb(38,97,148);fill-rule:nonzero;"/>
                        </g>
                        <g>
                            <path d="M86.18,202.85C87.88,205.1 89.95,206.74 92.6,207.74C95.25,208.74 98.19,208.89 101,208.86C105.95,208.81 111.19,207.96 114.9,204.42C117.7,201.75 113.46,197.52 110.66,200.18C108.38,202.35 104.67,202.79 101.37,202.85C97.81,202.92 93.54,202.69 91.36,199.81C90.38,198.52 88.77,197.85 87.26,198.73C85.99,199.49 85.2,201.55 86.18,202.85Z" style="fill:rgb(38,97,148);fill-rule:nonzero;"/>
                        </g>
                        <g>
                            <path d="M92.66,183.99C94.09,183.74 94.76,183.66 96.35,183.54C97.7,183.44 99.05,183.4 100.4,183.42C101.75,183.44 103.1,183.52 104.44,183.66C104.76,183.69 105.08,183.73 105.4,183.77C104.92,183.71 105.79,183.83 105.88,183.84C106.62,183.96 107.36,184.09 108.1,184.24C109.63,184.55 111.41,183.8 111.79,182.14C112.13,180.64 111.34,178.79 109.69,178.45C103.51,177.18 97.26,177.11 91.05,178.18C89.5,178.45 88.49,180.43 88.95,181.87C89.51,183.56 91,184.27 92.66,183.99Z" style="fill:rgb(38,97,148);fill-rule:nonzero;"/>
                        </g>
                        <g>
                            <path d="M86.18,202.85C87.88,205.1 89.95,206.74 92.6,207.74C95.25,208.74 98.19,208.89 101,208.86C105.95,208.81 111.19,207.96 114.9,204.42C117.7,201.75 113.46,197.52 110.66,200.18C108.38,202.35 104.67,202.79 101.37,202.85C97.81,202.92 93.54,202.69 91.36,199.81C90.38,198.52 88.77,197.85 87.26,198.73C85.99,199.49 85.2,201.55 86.18,202.85Z" style="fill:rgb(38,97,148);fill-rule:nonzero;"/>
                        </g>
                        <g>
                            <path d="M435.38,171.94C439.24,171.94 439.25,165.94 435.38,165.94C431.52,165.94 431.51,171.94 435.38,171.94Z" style="fill:rgb(38,97,148);fill-rule:nonzero;"/>
                        </g>
                        <g>
                            <path d="M445.2,171.61C449.06,171.61 449.07,165.61 445.2,165.61C441.33,165.61 441.33,171.61 445.2,171.61Z" style="fill:rgb(38,97,148);fill-rule:nonzero;"/>
                        </g>
                        <g>
                            <path d="M464.65,178.79C466.82,182.4 469.62,185.67 472.94,188.27C473.59,188.78 474.2,189.15 475.06,189.15C475.8,189.15 476.67,188.82 477.18,188.27C477.7,187.7 478.09,186.95 478.06,186.15C478.03,185.41 477.79,184.51 477.18,184.03C475.09,182.38 473.21,180.49 471.57,178.39C471.73,178.59 471.88,178.79 472.04,179C471.24,177.97 470.51,176.89 469.84,175.77C469.03,174.42 467.11,173.81 465.74,174.69C464.37,175.56 463.79,177.35 464.65,178.79Z" style="fill:rgb(38,97,148);fill-rule:nonzero;"/>
                        </g>
                        <g>
                            <path d="M486.5,177.14C479.35,179.73 473.2,184.38 468.83,190.62C466.52,193.92 464.43,198.29 466.02,202.34C467.47,206.04 470.93,208.16 474.61,209.23C479.33,210.6 484.4,210.57 489.15,209.37C492.89,208.42 491.31,202.63 487.55,203.58C483.59,204.58 479.4,204.53 475.51,203.23C474.27,202.82 472.74,202.01 472.06,201.09C471.2,199.92 471.4,198.37 472.06,196.87C473.5,193.58 476.19,190.66 478.87,188.33C481.56,185.99 484.73,184.13 488.08,182.92C489.6,182.37 490.63,180.88 490.18,179.23C489.79,177.76 488.03,176.58 486.5,177.14Z" style="fill:rgb(38,97,148);fill-rule:nonzero;"/>
                        </g>
                        <g>
                            <path d="M515.31,171.05C513.42,179.5 512.65,188.21 513.18,196.86C513.4,200.53 513.38,205.2 516.44,207.79C519.45,210.33 524.53,209.42 525.72,205.44C526.83,201.73 521.04,200.15 519.93,203.84C520.02,203.55 520.23,203.45 520.42,203.25C520.73,202.94 520.59,203.41 520.41,203.25C520.71,203.23 520.75,203.22 520.53,203.23C520.39,203.24 520.25,203.23 520.11,203.22C520.66,203.3 519.88,203.15 520.19,203.18C520.55,203.22 520.44,203.48 520.2,203.1C520.34,203.32 519.98,202.72 519.96,202.67C519.8,202.33 519.64,201.63 519.55,201.11C519.07,198.38 519.03,195 519.01,192.05C518.97,185.51 519.66,179.01 521.09,172.63C521.44,171.05 520.61,169.38 518.99,168.94C517.49,168.54 515.66,169.46 515.31,171.05Z" style="fill:rgb(38,97,148);fill-rule:nonzero;"/>
                        </g>
                        <g>
                            <path d="M529.64,183.81C536.7,185.64 544.2,185.53 551.19,183.43C552.74,182.96 553.72,181.33 553.29,179.74C552.87,178.2 551.16,177.18 549.6,177.64C543.58,179.45 537.29,179.59 531.24,178.02C529.72,177.63 527.91,178.52 527.55,180.12C527.18,181.69 528.01,183.39 529.64,183.81Z" style="fill:rgb(38,97,148);fill-rule:nonzero;"/>
                        </g>
                        <g>
                            <path d="M540.32,170.73C540.4,175.55 540.47,180.37 540.55,185.19C540.59,187.56 540.63,189.93 540.66,192.3C540.69,194.49 540.88,196.76 540.6,198.93C540.39,200.52 539.84,202.15 538.62,203.06C537.75,203.72 536.77,203.72 536.13,203.24C535.6,202.85 535.37,202.48 535.28,201.99C535.23,201.73 535.28,201.08 535.53,200.63C536.07,199.64 537.32,199.39 538.64,199.6C542.4,200.2 545.78,203.21 547.71,206.41C549.7,209.71 554.89,206.7 552.89,203.38C550.23,198.96 545.75,195.06 540.62,193.9C537.69,193.24 534.58,193.51 532.18,195.46C530.14,197.11 529.05,199.84 529.33,202.45C529.98,208.44 537.09,211.56 541.97,208.02C547.2,204.22 546.76,197.57 546.67,191.81C546.56,184.78 546.45,177.76 546.34,170.73C546.26,166.87 540.26,166.86 540.32,170.73Z" style="fill:rgb(38,97,148);fill-rule:nonzero;"/>
                        </g>
                        <g>
                            <path d="M576.15,184.55C577.58,184.3 578.25,184.22 579.84,184.1C581.19,184 582.54,183.96 583.89,183.98C585.24,184 586.59,184.08 587.93,184.22C588.25,184.25 588.57,184.29 588.89,184.33C588.41,184.27 589.28,184.39 589.37,184.4C590.11,184.52 590.85,184.65 591.59,184.8C593.12,185.11 594.9,184.36 595.28,182.7C595.62,181.2 594.83,179.35 593.18,179.01C587,177.74 580.75,177.67 574.54,178.74C572.99,179.01 571.98,180.99 572.44,182.43C573,184.13 574.49,184.83 576.15,184.55Z" style="fill:rgb(38,97,148);fill-rule:nonzero;"/>
                        </g>
                        <g>
                            <path d="M569.67,203.41C571.37,205.66 573.44,207.3 576.09,208.3C578.74,209.3 581.68,209.45 584.49,209.42C589.44,209.37 594.68,208.52 598.39,204.98C601.19,202.31 596.95,198.08 594.15,200.74C591.87,202.91 588.16,203.35 584.86,203.41C581.3,203.48 577.03,203.25 574.85,200.37C573.87,199.08 572.26,198.41 570.75,199.29C569.47,200.05 568.69,202.11 569.67,203.41Z" style="fill:rgb(38,97,148);fill-rule:nonzero;"/>
                        </g>
                        <g>
                            <path d="M576.15,184.55C577.58,184.3 578.25,184.22 579.84,184.1C581.19,184 582.54,183.96 583.89,183.98C585.24,184 586.59,184.08 587.93,184.22C588.25,184.25 588.57,184.29 588.89,184.33C588.41,184.27 589.28,184.39 589.37,184.4C590.11,184.52 590.85,184.65 591.59,184.8C593.12,185.11 594.9,184.36 595.28,182.7C595.62,181.2 594.83,179.35 593.18,179.01C587,177.74 580.75,177.67 574.54,178.74C572.99,179.01 571.98,180.99 572.44,182.43C573,184.13 574.49,184.83 576.15,184.55Z" style="fill:rgb(38,97,148);fill-rule:nonzero;"/>
                        </g>
                        <g>
                            <path d="M569.67,203.41C571.37,205.66 573.44,207.3 576.09,208.3C578.74,209.3 581.68,209.45 584.49,209.42C589.44,209.37 594.68,208.52 598.39,204.98C601.19,202.31 596.95,198.08 594.15,200.74C591.87,202.91 588.16,203.35 584.86,203.41C581.3,203.48 577.03,203.25 574.85,200.37C573.87,199.08 572.26,198.41 570.75,199.29C569.47,200.05 568.69,202.11 569.67,203.41Z" style="fill:rgb(38,97,148);fill-rule:nonzero;"/>
                        </g>
                        <g>
                            <path d="M576.15,184.55C577.58,184.3 578.25,184.22 579.84,184.1C581.19,184 582.54,183.96 583.89,183.98C585.24,184 586.59,184.08 587.93,184.22C588.25,184.25 588.57,184.29 588.89,184.33C588.41,184.27 589.28,184.39 589.37,184.4C590.11,184.52 590.85,184.65 591.59,184.8C593.12,185.11 594.9,184.36 595.28,182.7C595.62,181.2 594.83,179.35 593.18,179.01C587,177.74 580.75,177.67 574.54,178.74C572.99,179.01 571.98,180.99 572.44,182.43C573,184.13 574.49,184.83 576.15,184.55Z" style="fill:rgb(38,97,148);fill-rule:nonzero;"/>
                        </g>
                        <g>
                            <path d="M569.67,203.41C571.37,205.66 573.44,207.3 576.09,208.3C578.74,209.3 581.68,209.45 584.49,209.42C589.44,209.37 594.68,208.52 598.39,204.98C601.19,202.31 596.95,198.08 594.15,200.74C591.87,202.91 588.16,203.35 584.86,203.41C581.3,203.48 577.03,203.25 574.85,200.37C573.87,199.08 572.26,198.41 570.75,199.29C569.47,200.05 568.69,202.11 569.67,203.41Z" style="fill:rgb(38,97,148);fill-rule:nonzero;"/>
                        </g>
                        <g>
                            <path d="M576.15,184.55C577.58,184.3 578.25,184.22 579.84,184.1C581.19,184 582.54,183.96 583.89,183.98C585.24,184 586.59,184.08 587.93,184.22C588.25,184.25 588.57,184.29 588.89,184.33C588.41,184.27 589.28,184.39 589.37,184.4C590.11,184.52 590.85,184.65 591.59,184.8C593.12,185.11 594.9,184.36 595.28,182.7C595.62,181.2 594.83,179.35 593.18,179.01C587,177.74 580.75,177.67 574.54,178.74C572.99,179.01 571.98,180.99 572.44,182.43C573,184.13 574.49,184.83 576.15,184.55Z" style="fill:rgb(38,97,148);fill-rule:nonzero;"/>
                        </g>
                        <g>
                            <path d="M569.67,203.41C571.37,205.66 573.44,207.3 576.09,208.3C578.74,209.3 581.68,209.45 584.49,209.42C589.44,209.37 594.68,208.52 598.39,204.98C601.19,202.31 596.95,198.08 594.15,200.74C591.87,202.91 588.16,203.35 584.86,203.41C581.3,203.48 577.03,203.25 574.85,200.37C573.87,199.08 572.26,198.41 570.75,199.29C569.47,200.05 568.69,202.11 569.67,203.41Z" style="fill:rgb(38,97,148);fill-rule:nonzero;"/>
                        </g>
                        <g>
                            <path d="M597.15,173.89C601.01,173.89 601.02,167.89 597.15,167.89C593.29,167.89 593.28,173.89 597.15,173.89Z" style="fill:rgb(38,97,148);fill-rule:nonzero;"/>
                        </g>
                        <g>
                            <path d="M606.96,173.56C610.82,173.56 610.83,167.56 606.96,167.56C603.1,167.56 603.1,173.56 606.96,173.56Z" style="fill:rgb(38,97,148);fill-rule:nonzero;"/>
                        </g>
                        <g>
                            <path d="M625.55,185.04C633.24,183.92 640.88,182.45 648.44,180.65C650.02,180.27 650.95,178.48 650.54,176.96C650.1,175.35 648.43,174.49 646.85,174.86C639.29,176.67 631.65,178.13 623.96,179.25C622.36,179.48 621.47,181.52 621.86,182.94C622.34,184.66 623.94,185.27 625.55,185.04Z" style="fill:rgb(38,97,148);fill-rule:nonzero;"/>
                        </g>
                        <g>
                            <path d="M631.95,172.16C635.21,179.67 639.12,186.87 643.65,193.69C644.55,195.04 646.3,195.62 647.75,194.77C649.09,193.99 649.73,192.02 648.83,190.67C644.3,183.85 640.39,176.65 637.13,169.14C636.49,167.65 634.3,167.32 633.03,168.06C631.49,168.96 631.3,170.67 631.95,172.16Z" style="fill:rgb(38,97,148);fill-rule:nonzero;"/>
                        </g>
                        <g>
                            <path d="M622.33,200.81C628.31,208.49 640.16,210.43 648.43,205.48C651.74,203.5 648.73,198.31 645.4,200.3C644.96,200.56 644.52,200.81 644.06,201.03C643.88,201.12 643.69,201.21 643.51,201.28C643.93,201.11 643.31,201.34 643.24,201.37C642.33,201.69 641.41,201.92 640.46,202.09C639.53,202.27 640.75,202.07 640.21,202.13C639.96,202.16 639.71,202.18 639.45,202.2C638.94,202.23 638.44,202.24 637.93,202.23C637.47,202.22 637.02,202.19 636.56,202.15C636.39,202.13 635.87,202.06 636.3,202.13C636.05,202.09 635.8,202.05 635.55,202C633.48,201.6 632.22,201.13 630.6,200.18C629.74,199.68 629.09,199.2 628.63,198.79C627.87,198.12 627.18,197.37 626.56,196.57C625.56,195.29 623.36,195.52 622.32,196.57C621.06,197.83 621.33,199.52 622.33,200.81Z" style="fill:rgb(38,97,148);fill-rule:nonzero;"/>
                        </g>
                        <g>
                            <path d="M651.21,170.29C655.07,170.29 655.08,164.29 651.21,164.29C647.35,164.29 647.34,170.29 651.21,170.29Z" style="fill:rgb(38,97,148);fill-rule:nonzero;"/>
                        </g>
                        <g>
                            <path d="M661.8,169.7C665.66,169.7 665.67,163.7 661.8,163.7C657.94,163.7 657.93,169.7 661.8,169.7Z" style="fill:rgb(38,97,148);fill-rule:nonzero;"/>
                        </g>
                        <g>
                            <path d="M670.36,182.16C671.05,185.21 671.71,188.26 672.42,191.3C673.04,193.97 673.88,196.64 675.58,198.83C677.3,201.06 679.71,202.38 682.52,202.6C685.27,202.82 687.88,201.57 689.38,199.26C690.24,197.94 689.69,195.89 688.3,195.16C686.81,194.37 685.11,194.83 684.2,196.24C683.86,196.76 684.62,195.89 684.19,196.26C683.62,196.74 684.22,196.3 684.21,196.29C684.23,196.32 683.71,196.56 683.71,196.58C684.14,196.41 684.2,196.38 683.89,196.49C683.83,196.51 683.77,196.53 683.7,196.55C683.66,196.56 683.13,196.65 683.13,196.68C683.6,196.62 683.67,196.61 683.33,196.63C683.26,196.63 683.2,196.63 683.13,196.64C683.1,196.64 682.53,196.65 682.52,196.62C682.98,196.69 683.04,196.7 682.71,196.64C682.64,196.63 682.57,196.61 682.51,196.6C682.31,196.56 682.11,196.5 681.91,196.44C681.78,196.4 681.65,196.35 681.52,196.3C681.63,196.35 681.74,196.39 681.85,196.44C681.75,196.47 681.41,196.21 681.3,196.15C681.18,196.08 681.07,196 680.95,195.93C681.04,196 681.14,196.08 681.23,196.15C680.9,196.08 680.42,195.36 680.22,195.12C680.63,195.61 680.16,195.02 680.08,194.9C679.92,194.65 679.77,194.39 679.63,194.12C679.51,193.89 679.4,193.65 679.29,193.42C679.2,193.22 679.22,193.26 679.34,193.54C679.29,193.42 679.24,193.3 679.2,193.17C679.02,192.67 678.86,192.17 678.71,191.66C678.41,190.61 678.17,189.54 677.93,188.48C677.34,185.85 676.75,183.22 676.16,180.59C675.82,179.06 673.96,178.01 672.47,178.49C670.85,178.99 669.99,180.52 670.36,182.16Z" style="fill:rgb(38,97,148);fill-rule:nonzero;"/>
                        </g>
                        <g>
                            <path d="M699.64,182.4C699.99,182.77 700.3,183.28 700.69,183.6C700.57,183.5 700.35,183.15 700.59,183.47C700.67,183.58 700.75,183.68 700.82,183.79C700.97,184.01 701.12,184.23 701.26,184.45C701.55,184.9 701.81,185.36 702.06,185.83C702.18,186.07 702.3,186.31 702.41,186.55C702.46,186.67 702.51,186.8 702.57,186.91C702.42,186.65 702.37,186.43 702.53,186.84C702.92,187.83 703.21,188.86 703.41,189.9C703.44,190.03 703.46,190.16 703.48,190.29C703.5,190.39 703.56,190.85 703.5,190.38C703.44,189.91 703.5,190.38 703.51,190.48C703.52,190.61 703.54,190.74 703.55,190.88C703.6,191.44 703.62,192.01 703.61,192.57C703.59,194.14 705,195.64 706.61,195.57C708.25,195.5 709.59,194.25 709.61,192.57C709.66,187.23 707.56,182 703.88,178.14C702.8,177 700.72,176.97 699.64,178.14C698.51,179.38 698.48,181.18 699.64,182.4Z" style="fill:rgb(38,97,148);fill-rule:nonzero;"/>
                        </g>
                        <g>
                            <path d="M732.99,179.72C740.05,179.38 747.12,179.04 754.18,178.7C755.8,178.62 757.18,177.38 757.18,175.7C757.18,174.14 755.81,172.62 754.18,172.7C747.12,173.04 740.05,173.38 732.99,173.72C731.37,173.8 729.99,175.04 729.99,176.72C729.99,178.28 731.36,179.79 732.99,179.72Z" style="fill:rgb(38,97,148);fill-rule:nonzero;"/>
                        </g>
                        <g>
                            <path d="M737.11,190.86C742.71,191.12 748.3,190.72 753.82,189.78C755.37,189.52 756.38,187.52 755.92,186.09C755.38,184.41 753.89,183.71 752.23,183.99C751.57,184.1 750.92,184.21 750.26,184.3C750.11,184.32 749.96,184.34 749.8,184.36C750.09,184.32 750.05,184.32 749.68,184.37C749.37,184.41 749.07,184.44 748.76,184.48C747.49,184.62 746.21,184.73 744.93,184.81C742.32,184.96 739.71,184.97 737.1,184.85C735.53,184.78 734.03,186.28 734.1,187.85C734.18,189.54 735.43,190.78 737.11,190.86Z" style="fill:rgb(38,97,148);fill-rule:nonzero;"/>
                        </g>
                        <g>
                            <path d="M743.92,167.89C744.56,173.43 744.97,179 745.14,184.57C745.23,187.36 745.26,190.15 745.22,192.93C745.2,195.03 745.17,196.72 744.61,198.63C744.17,200.15 743.52,201.27 741.96,201.93C740,202.75 738.2,202.97 736.25,202.82C736.18,202.81 735.67,202.73 736.09,202.8C735.89,202.76 735.68,202.71 735.49,202.65C735.42,202.63 734.94,202.46 735.37,202.62C735.27,202.58 734.93,202.3 735.26,202.61C734.96,202.32 735.15,202.57 735.16,202.57C735.06,202.61 735,202.05 735.06,202.43C735.08,202.58 735.05,202.23 735.11,202.13C735.28,201.85 735.85,201.29 736.19,201.16C737.17,200.78 738.35,200.95 739.35,201.15C744.55,202.21 750.07,203.74 754.53,206.71C755.88,207.61 757.85,206.97 758.63,205.63C759.49,204.16 758.9,202.43 757.55,201.53C754.97,199.81 752.09,198.59 749.16,197.62C746.28,196.67 743.26,195.75 740.26,195.24C736.95,194.68 733.32,195.01 730.97,197.69C728.77,200.19 728.33,203.84 730.63,206.44C732.38,208.43 735.23,208.96 737.76,208.81C740.56,208.64 743.76,208.08 746.11,206.47C751.17,203.02 751.24,196.45 751.25,190.95C751.26,183.24 750.81,175.53 749.93,167.87C749.75,166.26 748.68,164.87 746.93,164.87C745.44,164.89 743.73,166.27 743.92,167.89Z" style="fill:rgb(38,97,148);fill-rule:nonzero;"/>
                        </g>
                        <g>
                            <path d="M781.66,188.76C793.46,186.65 805.43,185.58 817.42,185.48C821.28,185.45 821.29,179.45 817.42,179.48C804.89,179.57 792.4,180.76 780.07,182.97C778.47,183.26 777.57,185.2 777.97,186.66C778.43,188.35 780.06,189.05 781.66,188.76Z" style="fill:rgb(38,97,148);fill-rule:nonzero;"/>
                        </g>
                        <g>
                            <path d="M804.92,172.76C805.2,176.82 805.16,180.9 804.75,184.96C804.59,186.51 804.42,188.06 803.99,189.56C803.89,189.91 803.78,190.27 803.64,190.61C803.81,190.21 803.4,191.04 803.34,191.14C803.26,191.27 803.18,191.4 803.1,191.52C803.27,191.31 803.24,191.34 803.01,191.61C802.87,191.75 802.73,191.89 802.58,192.02C802.78,191.85 802.74,191.86 802.44,192.07C801.05,192.9 800.54,194.76 801.36,196.17C802.17,197.56 804.07,198.08 805.46,197.25C809.23,194.99 810.05,190.7 810.55,186.67C811.13,182.06 811.23,177.4 810.91,172.77C810.8,171.15 809.61,169.77 807.91,169.77C806.38,169.76 804.81,171.14 804.92,172.76Z" style="fill:rgb(38,97,148);fill-rule:nonzero;"/>
                        </g>
                        <g>
                            <path d="M788.63,174.58C785.9,182.53 783.38,191.66 788.1,199.42C790.21,202.89 793.63,205.4 797.63,206.21C801.79,207.05 806.05,206.42 810.08,205.27C813.78,204.21 812.21,198.42 808.48,199.48C805.58,200.31 802.36,200.98 799.41,200.46C796.43,199.94 794.29,198.31 792.92,195.76C789.69,189.76 792.28,182.38 794.41,176.18C794.94,174.65 793.81,172.9 792.31,172.49C790.67,172.03 789.15,173.04 788.63,174.58Z" style="fill:rgb(38,97,148);fill-rule:nonzero;"/>
                        </g>
                        <g>
                            <path d="M849.13,172.43C842.47,182.46 835.86,192.61 831.91,204.07C831.38,205.6 832.51,207.35 834.01,207.76C835.66,208.21 837.17,207.2 837.7,205.66C841.48,194.73 847.97,185.02 854.32,175.46C855.22,174.11 854.59,172.14 853.24,171.36C851.76,170.49 850.03,171.08 849.13,172.43Z" style="fill:rgb(38,97,148);fill-rule:nonzero;"/>
                        </g>
                        <g>
                            <path d="M850.29,193.86C850.5,193.78 850.71,193.72 850.93,193.68C850.73,193.73 850.74,193.75 850.95,193.74C850.97,193.74 851.32,193.87 851.2,193.8C851.66,194.08 851.92,194.27 852.14,194.59C852.85,195.61 853.04,197.1 853.2,198.35C853.44,200.22 853.75,202.07 854.84,203.66C855.84,205.13 857.25,206.15 858.9,206.78C861.85,207.9 865.32,207.38 868.01,205.82C871.04,204.06 873.15,201.19 875.17,198.41C876.12,197.1 875.4,195.07 874.09,194.31C872.57,193.42 870.94,194.07 869.99,195.39C868.47,197.48 866.55,200.02 864.42,200.97C864.6,200.89 863.91,201.15 863.78,201.18C863.67,201.21 862.7,201.42 863.23,201.34C862.93,201.38 862.62,201.39 862.32,201.39C862.21,201.39 861.35,201.33 861.92,201.4C861.62,201.36 861.34,201.26 861.05,201.2C860.51,201.09 861.19,201.36 860.69,201.06C860.59,201 859.93,200.55 860.34,200.89C860.26,200.82 859.7,200.24 860.02,200.65C859.29,199.73 859.2,198.35 859.06,197.23C858.83,195.47 858.51,193.8 857.68,192.2C856.03,189.02 852.26,186.88 848.7,188.1C847.17,188.63 846.16,190.16 846.6,191.79C847.01,193.26 848.75,194.39 850.29,193.86Z" style="fill:rgb(38,97,148);fill-rule:nonzero;"/>
                        </g>
                        <g>
                            <path d="M891.95,185.84C896.27,185.65 900.6,185.34 904.92,185.28C905.86,185.27 906.69,185.24 907.55,185.61C907.37,185.53 908.02,185.91 908.03,185.91C907.85,185.75 907.9,185.79 908.17,186.03C908.33,186.17 908.47,186.33 908.61,186.48C908.48,186.28 908.52,186.33 908.72,186.63C908.84,186.81 908.95,186.99 909.05,187.18C909.26,187.56 909.29,187.68 909.33,187.8C909.61,188.64 909.7,189.18 909.71,189.96C909.74,191.86 909.24,193.71 908.7,195.52C908.21,197.17 907.92,198.07 907.07,199.46C906.59,200.24 906.66,200.16 906.03,200.76C905.88,200.9 905.73,201.03 905.58,201.16C905.78,200.99 905.74,201.01 905.44,201.22C905.08,201.4 904.92,201.51 904.58,201.62C903.09,202.09 901.44,201.8 899.84,201.41C898.27,201.03 896.59,201.91 896.15,203.51C895.73,205.04 896.66,206.82 898.25,207.2C902.26,208.16 906.35,208.18 909.71,205.5C912.27,203.45 913.6,200.17 914.5,197.12C915.57,193.49 916.38,189.4 914.96,185.75C913.42,181.78 910.16,179.46 905.9,179.29C903.67,179.2 901.4,179.42 899.17,179.52C896.77,179.63 894.36,179.73 891.96,179.84C890.34,179.91 888.96,181.17 888.96,182.84C888.95,184.41 890.32,185.91 891.95,185.84Z" style="fill:rgb(38,97,148);fill-rule:nonzero;"/>
                        </g>
                        <g>
                            <path d="M897.76,170.01C896.2,179.7 893.04,189.03 888.3,197.63C886.44,201.01 891.62,204.05 893.48,200.66C898.45,191.63 901.9,181.79 903.54,171.61C903.8,170.01 903.13,168.38 901.44,167.92C900.02,167.52 898.02,168.4 897.76,170.01Z" style="fill:rgb(38,97,148);fill-rule:nonzero;"/>
                        </g>
                        <g>
                            <path d="M918.07,181.15C920.81,182.37 923.55,183.6 926.29,184.82C927.05,185.16 927.77,185.35 928.6,185.12C929.3,184.93 930.05,184.39 930.39,183.74C930.76,183.04 930.94,182.2 930.69,181.43C930.46,180.73 930.01,179.95 929.31,179.64C926.57,178.42 923.83,177.19 921.09,175.97C920.33,175.63 919.61,175.44 918.78,175.67C918.08,175.86 917.33,176.4 916.99,177.05C916.62,177.75 916.44,178.59 916.69,179.36C916.92,180.05 917.37,180.83 918.07,181.15Z" style="fill:rgb(38,97,148);fill-rule:nonzero;"/>
                        </g>
                        <g>
                            <path d="M962.95,152.67C967.79,148.58 974.8,146.94 980.59,149.47C985.47,151.6 989.29,157.06 988.43,162.46C988.04,164.89 986.85,167.39 984.75,169.15C982.52,171.02 978.57,171.74 975.52,172.82C967.3,175.72 960.86,182.04 959.04,190.76C958.39,193.86 959.99,197.09 963.17,197.95C966.1,198.74 969.7,196.93 970.36,193.82C970.97,190.91 972.08,188.68 974.33,186.61C976.55,184.57 979.51,183.84 982.37,182.95C990.01,180.58 995.85,176.36 998.79,168.73C1004.32,154.4 993.38,139.02 978.77,136.92C969.94,135.65 961.45,138.62 954.72,144.33C952.3,146.38 952.56,150.49 954.66,152.62C957.03,155.02 960.53,154.72 962.95,152.67Z" style="fill:rgb(38,97,148);fill-rule:nonzero;"/>
                        </g>
                        <g>
                            <path d="M956.16,221.82C963.44,223.78 966.51,212.47 959.21,210.5C951.93,208.54 948.86,219.86 956.16,221.82Z" style="fill:rgb(38,97,148);fill-rule:nonzero;"/>
                        </g>
                        <g>
                            <path d="M309.87,187.58C315.07,187.7 320.27,187.49 325.45,186.96C327.01,186.8 328.53,185.69 328.45,183.96C328.38,182.47 327.12,180.79 325.45,180.96C320.27,181.49 315.07,181.7 309.87,181.58C308.3,181.54 306.8,182.99 306.87,184.58C306.94,186.24 308.19,187.54 309.87,187.58Z" style="fill:rgb(38,97,148);fill-rule:nonzero;"/>
                        </g>
                        <g>
                            <path d="M309.61,187.73C314.71,187.54 319.81,187.35 324.91,187.16C326.48,187.1 327.98,185.82 327.91,184.16C327.84,182.58 326.59,181.1 324.91,181.16C319.81,181.35 314.71,181.54 309.61,181.73C308.04,181.79 306.54,183.07 306.61,184.73C306.68,186.3 307.93,187.79 309.61,187.73Z" style="fill:rgb(38,97,148);fill-rule:nonzero;"/>
                        </g>
                        <g>
                            <path d="M314.51,178.61C314.39,186.17 314.16,193.73 313.84,201.29C313.77,202.91 315.27,204.29 316.84,204.29C318.52,204.29 319.77,202.92 319.84,201.29C320.16,193.73 320.39,186.17 320.51,178.61C320.58,174.75 314.58,174.75 314.51,178.61Z" style="fill:rgb(38,97,148);fill-rule:nonzero;"/>
                        </g>
                        <g>
                            <path d="M312.13,187.72C311.75,188.26 311.36,188.79 310.96,189.31C311.12,189.11 311.27,188.91 311.43,188.7C309.84,190.75 308.09,192.67 306.18,194.43C305.03,195.5 305.02,197.61 306.18,198.67C307.42,199.8 309.19,199.81 310.42,198.67C313,196.28 315.28,193.6 317.31,190.74C317.74,190.14 317.8,189.12 317.61,188.43C317.42,187.73 316.88,186.98 316.23,186.64C315.53,186.27 314.69,186.09 313.92,186.34C313.14,186.59 312.6,187.05 312.13,187.72Z" style="fill:rgb(38,97,148);fill-rule:nonzero;"/>
                        </g>
                        <g>
                            <path d="M317.19,190.75C318.89,193.62 321.03,196.26 323.51,198.49C324.1,199.02 324.82,199.37 325.63,199.37C326.37,199.37 327.24,199.04 327.75,198.49C328.27,197.92 328.66,197.17 328.63,196.37C328.6,195.6 328.34,194.78 327.75,194.25C326.38,193.02 325.13,191.68 324,190.22C324.16,190.42 324.31,190.62 324.47,190.83C323.71,189.84 323,188.8 322.36,187.72C321.97,187.07 321.3,186.54 320.57,186.34C319.85,186.14 318.9,186.23 318.26,186.64C316.91,187.52 316.33,189.3 317.19,190.75Z" style="fill:rgb(38,97,148);fill-rule:nonzero;"/>
                        </g>
                        <g>
                            <path d="M254.42,256.48C268.91,250.33 283.69,244.44 299.14,241.18C313.88,238.07 329.43,237.63 343.71,243C351.01,245.75 357.47,250.25 364.65,253.27C371.86,256.3 379.66,257.28 387.43,256.8C403.5,255.8 418.64,249.64 434.27,246.3C450.66,242.79 467.55,241.73 484.25,243.11C486.31,243.28 488.38,243.49 490.43,243.73C492.34,243.95 492.33,240.95 490.43,240.73C473.74,238.77 456.83,239.25 440.27,242.1C432.09,243.51 424.1,245.65 416.12,247.88C408.36,250.05 400.55,252.24 392.55,253.31C384.76,254.35 376.74,254.23 369.21,251.8C361.73,249.39 355.26,244.76 348.11,241.6C333.98,235.35 318.4,234.81 303.34,237.35C287.72,239.98 272.75,245.62 258.17,251.68C256.41,252.41 254.65,253.15 252.9,253.9C252.15,254.22 252,255.31 252.36,255.95C252.81,256.72 253.68,256.79 254.42,256.48Z" style="fill:rgb(38,97,148);fill-rule:nonzero;"/>
                        </g>
                    </g>
                </g>
            </g>
        </g>
    </g>
</svg>
