<?xml version="1.0" encoding="UTF-8" standalone="no"?>
<!DOCTYPE svg PUBLIC "-//W3C//DTD SVG 1.1//EN" "http://www.w3.org/Graphics/SVG/1.1/DTD/svg11.dtd">
<svg width="100%" height="100%" viewBox="0 0 754 184" version="1.1" xmlns="http://www.w3.org/2000/svg" xmlns:xlink="http://www.w3.org/1999/xlink" xml:space="preserve" xmlns:serif="http://www.serif.com/" style="fill-rule:evenodd;clip-rule:evenodd;stroke-linejoin:round;stroke-miterlimit:2;">
    <g transform="matrix(1,0,0,1,-162.99,-127.809)">
        <g>
            <g>
                <g id="レイヤー_1">
                    <path d="M162.99,311C220.74,311 272.11,287.94 370.85,281.9C451.99,276.94 616.74,306.33 680.96,306.33C815.66,306.33 816.42,289.95 916,289.96C886.84,217.57 883.25,208.37 916.01,136.76C842.4,136.67 831.18,153.07 684.42,153.11C616.01,153.13 447.69,123.52 365.59,128.34C260.82,134.49 207.94,157.85 163,157.81C196.46,230.23 191.42,239.42 162.99,311Z" style="fill:white;fill-rule:nonzero;"/>
                    <g>
                        <path d="M284.19,213.76C301.87,211.77 319.67,211.08 337.45,211.69C342.83,211.87 342.83,203.51 337.45,203.32C319.67,202.71 301.87,203.41 284.19,205.39C281.95,205.64 280.01,207.13 280.01,209.57C280.01,211.64 281.93,214.01 284.19,213.76Z" style="fill:rgb(37,97,147);fill-rule:nonzero;"/>
                    </g>
                    <g>
                        <path d="M296.07,193.83C295.13,204.15 295.13,214.53 296.09,224.86C296.3,227.11 297.86,229.04 300.27,229.04C302.37,229.04 304.66,227.12 304.45,224.86C303.49,214.54 303.48,204.16 304.43,193.83C304.64,191.58 302.36,189.65 300.25,189.65C297.82,189.64 296.27,191.57 296.07,193.83Z" style="fill:rgb(37,97,147);fill-rule:nonzero;"/>
                    </g>
                    <g>
                        <path d="M318.6,192.84C319.38,203.81 318.81,215.05 314.67,225.36C311.37,233.57 305.57,240.95 297.81,245.35C293.13,248 297.34,255.23 302.03,252.57C311.44,247.24 318.23,238.46 322.33,228.57C326.99,217.34 327.82,204.85 326.97,192.84C326.81,190.59 325.16,188.66 322.79,188.66C320.64,188.66 318.44,190.58 318.6,192.84Z" style="fill:rgb(37,97,147);fill-rule:nonzero;"/>
                    </g>
                    <g>
                        <path d="M362.6,224.33C375.81,223.88 389.02,223.43 402.23,222.98C407.6,222.8 407.62,214.43 402.23,214.61C389.02,215.06 375.81,215.51 362.6,215.96C357.23,216.14 357.21,224.51 362.6,224.33Z" style="fill:rgb(37,97,147);fill-rule:nonzero;"/>
                    </g>
                    <g>
                        <path d="M445.77,221.34C454.4,220.2 462.89,218.39 471.17,215.69C473.25,215.01 474.81,212.76 474.09,210.54C473.42,208.46 471.17,206.89 468.94,207.62C465.06,208.88 461.13,209.98 457.15,210.89C455.2,211.34 453.24,211.74 451.27,212.09C450.29,212.27 449.3,212.44 448.31,212.59C447.85,212.66 447.4,212.73 446.94,212.8C446.64,212.84 446.33,212.89 446.03,212.93C445.51,213 445.42,213.01 445.77,212.97C443.61,213.25 441.48,214.69 441.59,217.15C441.68,219.18 443.45,221.65 445.77,221.34Z" style="fill:rgb(37,97,147);fill-rule:nonzero;"/>
                    </g>
                    <g>
                        <path d="M439.82,199.96C439.47,206.87 439.3,213.78 439.31,220.69C439.32,227.08 439.07,233.82 443.37,239.02C447.17,243.62 453.27,245.46 459.03,245.75C465.55,246.08 472.24,244.97 478.73,244.4C480.98,244.2 482.91,242.62 482.91,240.22C482.91,238.11 480.99,235.84 478.73,236.04C472.85,236.56 466.9,237.39 460.99,237.43C456.9,237.45 452.17,236.67 449.63,233.55C448.21,231.8 447.89,229.47 447.77,227.29C447.62,224.41 447.67,221.5 447.68,218.61C447.7,212.39 447.88,206.17 448.19,199.95C448.3,197.69 446.19,195.77 444.01,195.77C441.64,195.77 439.93,197.69 439.82,199.96Z" style="fill:rgb(37,97,147);fill-rule:nonzero;"/>
                    </g>
                    <g>
                        <path d="M478.95,197.74L478.95,196.77C478.97,196.19 478.85,195.66 478.59,195.16C478.42,194.64 478.13,194.19 477.73,193.81C477.35,193.4 476.9,193.11 476.38,192.95C475.88,192.69 475.34,192.57 474.77,192.59C474.4,192.64 474.03,192.69 473.66,192.74C472.95,192.94 472.34,193.3 471.81,193.82C471.59,194.1 471.37,194.38 471.16,194.67C470.78,195.32 470.59,196.03 470.59,196.78L470.59,197.75C470.57,198.33 470.69,198.86 470.95,199.36C471.12,199.88 471.41,200.33 471.81,200.71C472.19,201.12 472.64,201.41 473.16,201.57C473.66,201.83 474.2,201.95 474.77,201.93C475.14,201.88 475.51,201.83 475.88,201.78C476.59,201.58 477.2,201.22 477.73,200.7C477.95,200.42 478.17,200.14 478.38,199.85C478.76,199.2 478.95,198.49 478.95,197.74Z" style="fill:rgb(37,97,147);fill-rule:nonzero;"/>
                    </g>
                    <g>
                        <path d="M489.27,199.99C494.65,199.99 494.66,191.62 489.27,191.62C483.89,191.62 483.88,199.99 489.27,199.99Z" style="fill:rgb(37,97,147);fill-rule:nonzero;"/>
                    </g>
                    <g>
                        <path d="M516.38,206.84C524.21,206.8 532.02,207.22 539.79,208.09C538.45,206.33 537.1,204.56 535.76,202.8C532.99,217.4 522.33,230.02 508.28,234.73C506.14,235.45 504.74,237.61 505.36,239.88C505.93,241.97 508.35,243.52 510.51,242.8C527.26,237.18 540.52,222.48 543.83,205.03C544.38,202.14 542.64,200.05 539.8,199.74C532.02,198.87 524.21,198.45 516.39,198.49C511,198.5 510.99,206.87 516.38,206.84Z" style="fill:rgb(37,97,147);fill-rule:nonzero;"/>
                    </g>
                    <g>
                        <path d="M529.73,226.95C529.87,227.01 530.02,227.06 530.16,227.12C530.45,227.24 530.35,227.19 529.87,226.99C529.88,227.04 530.66,227.34 530.72,227.37C531.23,227.61 531.74,227.86 532.25,228.12C533.26,228.64 534.24,229.21 535.19,229.82C535.67,230.13 536.14,230.44 536.6,230.77C536.85,230.95 537.1,231.13 537.35,231.32C538.05,231.83 536.76,230.82 537.48,231.42C538.35,232.14 539.22,232.87 540.03,233.66C540.85,234.44 541.63,235.27 542.37,236.12C542.74,236.55 543.09,236.99 543.45,237.43C543.64,237.67 543.58,237.59 543.27,237.19C543.36,237.31 543.46,237.44 543.55,237.56C543.7,237.77 543.85,237.98 544,238.19C545.37,240.13 546.54,242.19 547.51,244.35C548.41,246.35 551.47,246.98 553.23,245.85C555.3,244.52 555.69,242.27 554.73,240.13C550.32,230.31 541.89,222.79 531.95,218.88C529.91,218.08 527.27,219.76 526.8,221.8C526.26,224.2 527.54,226.09 529.73,226.95Z" style="fill:rgb(37,97,147);fill-rule:nonzero;"/>
                    </g>
                    <g>
                        <path d="M603.66,215.09C603.54,218.08 602.44,221.42 600.34,223.65C599.83,224.19 599.38,224.61 598.93,224.93C598.52,225.22 598.08,225.45 597.64,225.7C597.59,225.73 596.84,226.06 597.37,225.84C595.68,226.51 594.99,226.54 593.25,226.33C594.02,226.42 592.62,226.18 592.62,226.18C592.26,226.09 591.91,225.99 591.56,225.87C590.81,225.62 592.36,226.3 591.15,225.7C590.76,225.51 590.38,225.29 590.02,225.05C589.95,225.01 589.41,224.57 589.83,224.93C589.5,224.66 589.19,224.35 588.91,224.03C589.27,224.44 588.83,223.93 588.78,223.86C588.6,223.59 588.23,222.85 588.2,222.78C587.06,219.76 588.62,216.18 590.47,213.84C595.57,207.36 604.35,206.11 612.09,206.8C615.82,207.13 620.14,208.05 622.94,210.3C625.48,212.34 627.09,214.99 627.86,218.05C629.59,224.91 625.05,232.25 617.99,234.15C612.8,235.55 615,243.62 620.21,242.22C629.95,239.6 637.49,229.9 636.54,219.65C636.06,214.52 634,209.73 630.48,205.94C626.62,201.78 621.21,199.69 615.69,198.88C604.71,197.28 592.07,198.89 584.54,207.93C580.8,212.43 578.51,218.31 579.89,224.18C581.04,229.07 585.04,232.64 589.74,234.07C595.19,235.73 600.91,234.25 605.16,230.58C609.59,226.75 611.77,220.81 612.01,215.07C612.1,212.81 610.02,210.89 607.83,210.89C605.5,210.9 603.76,212.82 603.66,215.09Z" style="fill:rgb(37,97,147);fill-rule:nonzero;"/>
                    </g>
                    <g>
                        <path d="M666.4,197.03C672.03,195.72 677.7,194.56 683.36,193.33C685.5,192.86 686.95,190.25 686.28,188.18C685.55,185.93 683.43,184.76 681.13,185.26C675.48,186.49 669.81,187.66 664.17,188.96C662.04,189.45 660.57,192.02 661.25,194.11C661.98,196.33 664.12,197.56 666.4,197.03Z" style="fill:rgb(37,97,147);fill-rule:nonzero;"/>
                    </g>
                    <g>
                        <path d="M664.45,202.2C664.16,202.19 663.87,202.19 663.59,202.18L663.59,210.55C670.19,210.09 676.81,210.03 683.42,210.36C685.61,210.47 687.7,208.36 687.6,206.18C687.49,203.82 685.76,202.11 683.42,202C676.81,201.67 670.19,201.73 663.59,202.19C661.41,202.34 659.3,204.01 659.41,206.37C659.51,208.68 661.25,210.49 663.59,210.55C663.88,210.56 664.17,210.56 664.45,210.57C666.64,210.62 668.73,208.61 668.63,206.39C668.53,204.07 666.8,202.26 664.45,202.2Z" style="fill:rgb(37,97,147);fill-rule:nonzero;"/>
                    </g>
                    <g>
                        <path d="M670.75,193.32C670.59,210.63 670.43,227.94 670.28,245.25C670.23,250.63 678.6,250.64 678.65,245.25C678.81,227.94 678.97,210.63 679.12,193.32C679.17,187.93 670.8,187.93 670.75,193.32Z" style="fill:rgb(37,97,147);fill-rule:nonzero;"/>
                    </g>
                    <g>
                        <path d="M660.88,214.93C660.69,216.19 660.42,217.43 660.06,218.65C659.88,219.26 659.68,219.86 659.46,220.46C659.35,220.75 659.26,221.08 659.11,221.35C659.18,221.23 659.49,220.49 659.25,221.01C659.17,221.19 659.09,221.37 659,221.55C658.46,222.7 657.84,223.82 657.14,224.88C656.79,225.41 656.42,225.93 656.04,226.44C655.73,226.86 656.59,225.76 656.25,226.16C656.15,226.28 656.05,226.41 655.95,226.53C655.72,226.81 655.49,227.08 655.25,227.34C653.79,228.97 653.52,231.67 655.25,233.26C656.84,234.72 659.61,235 661.17,233.26C665.19,228.75 668.04,223.15 668.95,217.15C669.12,216 669.14,214.98 668.53,213.93C668.02,213.06 667.03,212.23 666.03,212.01C664.96,211.77 663.76,211.82 662.81,212.43C661.95,212.98 661.04,213.88 660.88,214.93Z" style="fill:rgb(37,97,147);fill-rule:nonzero;"/>
                    </g>
                    <g>
                        <path d="M681.71,215.24C681.61,215.34 681.5,215.45 681.4,215.55C680.99,215.93 680.7,216.38 680.54,216.9C680.28,217.4 680.16,217.94 680.18,218.51C680.16,219.09 680.28,219.62 680.54,220.12C680.71,220.64 681,221.09 681.4,221.47C681.68,221.69 681.96,221.91 682.25,222.12C682.9,222.5 683.61,222.69 684.36,222.69C684.73,222.64 685.1,222.59 685.47,222.54C686.18,222.34 686.79,221.98 687.32,221.46C687.42,221.36 687.53,221.25 687.63,221.15C688.04,220.77 688.33,220.32 688.49,219.8C688.75,219.3 688.87,218.76 688.85,218.19C688.87,217.61 688.75,217.08 688.49,216.58C688.32,216.06 688.03,215.61 687.63,215.23C687.35,215.01 687.07,214.79 686.78,214.58C686.13,214.2 685.42,214.01 684.67,214.01C684.3,214.06 683.93,214.11 683.56,214.16C682.85,214.36 682.23,214.72 681.71,215.24Z" style="fill:rgb(37,97,147);fill-rule:nonzero;"/>
                    </g>
                    <g>
                        <path d="M695.73,195.52C703.29,194.32 710.84,193.13 718.4,191.93C720.57,191.59 721.96,188.77 721.32,186.78C720.56,184.43 718.5,183.49 716.17,183.86C708.61,185.06 701.06,186.25 693.5,187.45C691.33,187.79 689.94,190.61 690.58,192.6C691.35,194.95 693.41,195.88 695.73,195.52Z" style="fill:rgb(37,97,147);fill-rule:nonzero;"/>
                    </g>
                    <g>
                        <path d="M691.2,204.6C701.77,204.43 712.35,204.26 722.92,204.09C728.3,204 728.31,195.64 722.92,195.72C712.35,195.89 701.77,196.06 691.2,196.23C685.82,196.32 685.8,204.68 691.2,204.6Z" style="fill:rgb(37,97,147);fill-rule:nonzero;"/>
                    </g>
                    <g>
                        <path d="M702.29,191.45C702.15,209.59 702.02,227.73 701.88,245.87C701.84,251.25 710.21,251.26 710.25,245.87C710.39,227.73 710.52,209.59 710.66,191.45C710.69,186.07 702.33,186.06 702.29,191.45Z" style="fill:rgb(37,97,147);fill-rule:nonzero;"/>
                    </g>
                    <g>
                        <path d="M694.3,239.12C701.14,238.97 707.99,239.03 714.83,239.3C717.02,239.39 719.11,237.31 719.01,235.12C718.91,232.78 717.17,231.03 714.83,230.94C707.99,230.67 701.14,230.61 694.3,230.76C692.11,230.81 690.01,232.65 690.12,234.94C690.22,237.16 691.96,239.17 694.3,239.12Z" style="fill:rgb(37,97,147);fill-rule:nonzero;"/>
                    </g>
                    <g>
                        <path d="M688.09,251.25C700.21,251.74 712.34,251.69 724.46,251.11C726.72,251 728.64,249.27 728.64,246.93C728.64,244.75 726.72,242.64 724.46,242.75C712.34,243.33 700.21,243.38 688.09,242.89C685.83,242.8 683.91,244.88 683.91,247.07C683.91,249.41 685.82,251.16 688.09,251.25Z" style="fill:rgb(37,97,147);fill-rule:nonzero;"/>
                    </g>
                    <g>
                        <path d="M740.58,206.88C748.38,206.87 756.19,207.04 763.98,207.4C766.17,207.5 768.26,205.4 768.16,203.22C768.05,200.87 766.32,199.15 763.98,199.04C756.18,198.68 748.38,198.51 740.58,198.52C738.39,198.52 736.3,200.44 736.4,202.7C736.5,204.96 738.24,206.88 740.58,206.88Z" style="fill:rgb(37,97,147);fill-rule:nonzero;"/>
                    </g>
                    <g>
                        <path d="M750.16,188.76C750.79,197.69 750.62,206.65 749.65,215.55C749.41,217.73 751.74,219.83 753.83,219.73C756.3,219.62 757.76,217.89 758.01,215.55C758.98,206.65 759.15,197.69 758.52,188.76C758.37,186.58 756.71,184.47 754.34,184.58C752.21,184.67 750,186.42 750.16,188.76Z" style="fill:rgb(37,97,147);fill-rule:nonzero;"/>
                    </g>
                    <g>
                        <path d="M740.74,195.03C740.92,195.33 741.1,195.63 741.28,195.93C741.54,196.42 741.9,196.81 742.36,197.1C742.76,197.47 743.24,197.72 743.78,197.85C744.34,198.02 744.89,198.05 745.45,197.92C746.01,197.89 746.53,197.73 747.01,197.42C747.29,197.2 747.57,196.98 747.86,196.77C748.38,196.25 748.74,195.63 748.94,194.92C748.99,194.55 749.04,194.18 749.09,193.81C749.09,193.05 748.9,192.35 748.52,191.7C748.34,191.4 748.16,191.1 747.98,190.8C747.72,190.31 747.36,189.92 746.9,189.63C746.5,189.26 746.02,189.01 745.48,188.88C744.92,188.71 744.37,188.68 743.81,188.81C743.25,188.84 742.73,189 742.25,189.31C741.97,189.53 741.69,189.75 741.4,189.96C740.88,190.48 740.52,191.1 740.32,191.81C740.27,192.18 740.22,192.55 740.17,192.92C740.17,193.67 740.36,194.37 740.74,195.03Z" style="fill:rgb(37,97,147);fill-rule:nonzero;"/>
                    </g>
                    <g>
                        <path d="M761.07,190.43C761.01,190.55 760.95,190.67 760.89,190.79C760.58,191.27 760.42,191.79 760.39,192.35C760.27,192.91 760.29,193.46 760.46,194.02C760.59,194.56 760.84,195.04 761.21,195.44C761.5,195.9 761.9,196.25 762.38,196.52C762.71,196.66 763.05,196.8 763.38,196.94C764.12,197.14 764.86,197.14 765.6,196.94C765.93,196.8 766.27,196.66 766.6,196.52C767.23,196.15 767.73,195.65 768.1,195.02C768.16,194.9 768.22,194.78 768.28,194.66C768.59,194.18 768.75,193.66 768.78,193.1C768.9,192.54 768.88,191.99 768.71,191.43C768.58,190.89 768.33,190.41 767.96,190.01C767.67,189.55 767.27,189.2 766.79,188.93C766.46,188.79 766.12,188.65 765.79,188.51C765.05,188.31 764.31,188.31 763.57,188.51C763.24,188.65 762.9,188.79 762.57,188.93C761.94,189.3 761.44,189.8 761.07,190.43Z" style="fill:rgb(37,97,147);fill-rule:nonzero;"/>
                    </g>
                    <g>
                        <path d="M741.58,208.3C741.42,208.45 741.25,208.6 741.07,208.74C741.35,208.52 741.63,208.3 741.92,208.09C741.58,208.35 741.21,208.58 740.83,208.77C740.34,209.03 739.95,209.39 739.66,209.85C739.29,210.25 739.04,210.73 738.91,211.27C738.74,211.83 738.71,212.38 738.84,212.94C738.87,213.5 739.03,214.02 739.34,214.5C739.56,214.78 739.78,215.06 739.99,215.35C740.51,215.87 741.13,216.23 741.84,216.43C742.21,216.48 742.58,216.53 742.95,216.58C743.71,216.58 744.41,216.39 745.06,216.01C745.36,215.87 745.64,215.7 745.92,215.51C745.99,215.46 746.05,215.42 746.11,215.37C746.45,215.11 746.8,214.85 747.13,214.58C747.26,214.47 747.39,214.36 747.51,214.25C747.92,213.87 748.21,213.42 748.37,212.9C748.63,212.4 748.75,211.86 748.73,211.29C748.75,210.71 748.63,210.18 748.37,209.68C748.2,209.16 747.91,208.71 747.51,208.33C747.23,208.11 746.95,207.89 746.66,207.68C746.01,207.3 745.3,207.11 744.55,207.11C744.18,207.16 743.81,207.21 743.44,207.26C742.71,207.42 742.1,207.78 741.58,208.3Z" style="fill:rgb(37,97,147);fill-rule:nonzero;"/>
                    </g>
                    <g>
                        <path d="M759.23,214.93C759.65,215.35 760.08,215.76 760.5,216.18C760.88,216.59 761.33,216.88 761.85,217.04C762.35,217.3 762.89,217.42 763.46,217.4C764.04,217.42 764.57,217.3 765.07,217.04C765.59,216.87 766.04,216.58 766.42,216.18C766.64,215.9 766.86,215.62 767.07,215.33C767.45,214.68 767.64,213.97 767.64,213.22C767.59,212.85 767.54,212.48 767.49,212.11C767.29,211.4 766.93,210.79 766.41,210.26C765.99,209.84 765.56,209.43 765.14,209.01C764.76,208.6 764.31,208.31 763.79,208.15C763.29,207.89 762.75,207.77 762.18,207.79C761.6,207.77 761.07,207.89 760.57,208.15C760.05,208.32 759.6,208.61 759.22,209.01C759,209.29 758.78,209.57 758.57,209.86C758.19,210.51 758,211.22 758,211.97C758.05,212.34 758.1,212.71 758.15,213.08C758.35,213.79 758.71,214.41 759.23,214.93Z" style="fill:rgb(37,97,147);fill-rule:nonzero;"/>
                    </g>
                    <g>
                        <path d="M740.04,233.75C747.66,233.73 755.28,233.7 762.9,233.68C765.09,233.67 767.18,231.76 767.08,229.5C766.98,227.24 765.24,225.31 762.9,225.32C755.28,225.34 747.66,225.37 740.04,225.39C737.85,225.4 735.76,227.31 735.86,229.57C735.96,231.83 737.7,233.76 740.04,233.75Z" style="fill:rgb(37,97,147);fill-rule:nonzero;"/>
                    </g>
                    <g>
                        <path d="M749.53,222.17C749.17,224.56 748.64,226.91 747.87,229.2C747.67,229.79 747.46,230.37 747.23,230.94C747.14,231.16 747,231.49 747.18,231.08C747.04,231.39 746.9,231.71 746.75,232.02C746.23,233.12 745.64,234.19 745,235.22C744.74,235.64 744.46,236.05 744.18,236.46C744,236.71 743.82,236.96 743.64,237.21C743.89,236.88 743.83,236.97 743.61,237.24C742.9,238.09 742.16,238.92 741.35,239.69C740.95,240.07 740.54,240.45 740.11,240.8C740.05,240.85 739.46,241.34 739.81,241.05C740.16,240.77 739.56,241.23 739.5,241.28C738.55,241.97 737.55,242.57 736.51,243.12C734.57,244.14 733.82,247 735.01,248.84C736.28,250.81 738.66,251.43 740.73,250.34C750.41,245.25 756.01,234.92 757.61,224.39C757.94,222.24 757.07,219.79 754.69,219.24C752.69,218.8 749.88,219.86 749.53,222.17Z" style="fill:rgb(37,97,147);fill-rule:nonzero;"/>
                    </g>
                    <g>
                        <path d="M749.5,235.02C751.96,239.5 755.93,243.7 761.09,244.85C762.18,245.09 763.33,245 764.31,244.43C765.18,243.92 766.01,242.93 766.23,241.93C766.47,240.86 766.42,239.66 765.81,238.71C765.24,237.82 764.38,237.03 763.31,236.79C762.69,236.65 762.08,236.46 761.49,236.21C761.82,236.35 762.16,236.49 762.49,236.63C761.57,236.23 760.72,235.71 759.93,235.1C760.21,235.32 760.49,235.54 760.78,235.75C759.72,234.92 758.79,233.94 757.97,232.88C758.19,233.16 758.41,233.44 758.62,233.73C757.91,232.81 757.28,231.82 756.72,230.8C756.22,229.89 755.21,229.15 754.22,228.88C753.22,228.6 751.89,228.73 751,229.3C749.05,230.55 748.37,232.97 749.5,235.02Z" style="fill:rgb(37,97,147);fill-rule:nonzero;"/>
                    </g>
                    <g>
                        <path d="M774.05,195.42C781.85,195.69 789.65,195.63 797.44,195.26C799.62,195.16 801.73,193.41 801.62,191.08C801.52,188.9 799.78,186.79 797.44,186.9C789.65,187.27 781.85,187.33 774.05,187.06C771.86,186.99 769.77,189.04 769.87,191.24C769.97,193.56 771.71,195.34 774.05,195.42Z" style="fill:rgb(37,97,147);fill-rule:nonzero;"/>
                    </g>
                    <g>
                        <path d="M772.07,203.8C771.51,211.71 771.42,219.65 771.85,227.57C771.98,230.07 772.33,232.52 774.71,233.92C776.5,234.97 778.94,234.98 780.95,235.16C785.17,235.53 789.34,235.28 793.53,234.69C795.7,234.39 797.08,231.5 796.45,229.54C795.68,227.15 793.64,226.29 791.3,226.62C789.3,226.9 786.61,227.02 784.34,226.97C783.12,226.95 781.9,226.88 780.69,226.76C780.37,226.73 779.5,226.64 779.47,226.64C779.18,226.6 778.89,226.56 778.6,226.5C779.02,226.76 779.04,226.76 778.66,226.48C779.16,226.98 779.66,227.48 780.16,227.98C780.41,228.34 780.26,228.93 780.25,228.09C780.24,227.56 780.19,227.03 780.17,226.51C780.12,225.45 780.08,224.4 780.04,223.34C779.97,221.14 779.94,218.94 779.95,216.73C779.97,212.41 780.13,208.1 780.44,203.79C780.6,201.6 778.41,199.51 776.26,199.61C773.85,199.73 772.24,201.46 772.07,203.8Z" style="fill:rgb(37,97,147);fill-rule:nonzero;"/>
                    </g>
                    <g>
                        <path d="M776.74,206.39C780.11,206.35 783.49,206.35 786.86,206.42C787.7,206.44 788.55,206.46 789.39,206.48C790,206.5 791.16,206.76 791.74,206.56C790.99,206.11 790.24,205.66 789.49,205.21C789.35,205.03 789.27,204.83 789.27,204.6C789.24,204.33 789.23,204.31 789.25,204.55C789.26,204.77 789.27,204.99 789.28,205.21C789.31,206.04 789.34,206.86 789.36,207.69C789.56,214.31 789.64,220.93 789.61,227.55C789.6,229.74 791.54,231.83 793.79,231.73C796.07,231.63 797.96,229.89 797.97,227.55C798.01,219.95 798.05,212.3 797.62,204.71C797.49,202.41 796.81,200.33 794.78,199.02C792.99,197.87 790.42,198.13 788.38,198.08C784.5,197.98 780.62,197.97 776.74,198.02C774.55,198.05 772.46,199.92 772.56,202.2C772.65,204.45 774.39,206.42 776.74,206.39Z" style="fill:rgb(37,97,147);fill-rule:nonzero;"/>
                    </g>
                    <g>
                        <path d="M784.67,216.98C790.05,216.98 790.06,208.61 784.67,208.61C779.29,208.61 779.28,216.98 784.67,216.98Z" style="fill:rgb(37,97,147);fill-rule:nonzero;"/>
                    </g>
                    <g>
                        <path d="M784.85,226.15C790.23,226.15 790.24,217.78 784.85,217.78C779.47,217.79 779.46,226.15 784.85,226.15Z" style="fill:rgb(37,97,147);fill-rule:nonzero;"/>
                    </g>
                    <g>
                        <path d="M786.15,192.18C786.14,192.18 786.13,192.18 786.12,192.17C786.45,192.31 786.79,192.45 787.12,192.59C787.11,192.59 787.1,192.58 787.09,192.57C787.37,192.79 787.65,193.01 787.94,193.22C787.93,193.21 787.92,193.21 787.92,193.2C788.14,193.48 788.36,193.76 788.57,194.05C788.56,194.04 788.56,194.03 788.55,194.02C788.69,194.35 788.83,194.69 788.97,195.02C788.96,195 788.96,194.99 788.96,194.97C789.01,195.34 789.06,195.71 789.11,196.08L789.11,196.02C789.06,196.39 789.01,196.76 788.96,197.13C788.96,197.11 788.97,197.1 788.97,197.08C788.83,197.41 788.69,197.75 788.55,198.08C788.56,198.07 788.56,198.06 788.57,198.05C788.35,198.33 788.13,198.61 787.92,198.9C787.93,198.89 787.93,198.88 787.94,198.88C787.66,199.1 787.38,199.32 787.09,199.53C787.1,199.52 787.11,199.52 787.11,199.52C786.78,199.66 786.44,199.8 786.11,199.94C786.12,199.94 786.13,199.93 786.14,199.93C786.68,199.8 787.16,199.55 787.56,199.18C788.02,198.89 788.37,198.49 788.64,198.01C788.95,197.53 789.11,197.01 789.14,196.45C789.26,195.89 789.24,195.34 789.07,194.78C788.93,194.45 788.79,194.11 788.65,193.78C788.28,193.15 787.78,192.65 787.15,192.28C786.82,192.14 786.48,192 786.15,191.86C785.41,191.66 784.67,191.66 783.93,191.86C783.92,191.86 783.92,191.86 783.91,191.87C783.9,191.88 782.92,192.29 782.91,192.29C782.91,192.29 782.9,192.29 782.9,192.3C782.9,192.3 782.89,192.3 782.89,192.31C782.88,192.32 782.05,192.96 782.04,192.97C782.03,192.97 782.03,192.98 782.02,192.98C781.9,193.11 781.59,193.53 781.69,193.41C781.79,193.28 781.46,193.69 781.36,193.84C781.36,193.85 781.35,193.85 781.35,193.86C781.27,194.02 781.09,194.48 781.14,194.37C781.12,194.42 780.99,194.71 780.93,194.88C780.93,194.89 780.93,194.89 780.92,194.9C780.88,195.08 780.83,195.58 780.84,195.48C780.85,195.37 780.77,195.87 780.76,196.06L780.76,196.09C780.76,196.11 780.91,197.19 780.91,197.2L780.91,197.24C781.05,197.57 781.19,197.91 781.33,198.24C781.33,198.25 781.34,198.25 781.34,198.26C781.34,198.26 781.34,198.27 781.35,198.27C781.37,198.3 781.99,199.09 782.01,199.12C782.02,199.13 782.02,199.13 782.03,199.14C782.06,199.17 782.84,199.77 782.88,199.8C782.88,199.8 782.89,199.8 782.89,199.81C783.2,200 783.57,200.12 783.91,200.24C783.92,200.24 783.93,200.25 783.94,200.25C784.5,200.42 785.05,200.45 785.61,200.32C786.17,200.29 786.69,200.13 787.17,199.82C787.66,199.56 788.05,199.2 788.34,198.74C788.71,198.34 788.96,197.86 789.09,197.32C789.14,196.95 789.19,196.58 789.24,196.21C789.24,195.45 789.05,194.75 788.67,194.1C788.45,193.82 788.23,193.54 788.02,193.25C787.47,192.73 786.86,192.37 786.15,192.18Z" style="fill:rgb(37,97,147);fill-rule:nonzero;"/>
                    </g>
                    <g>
                        <path d="M773.25,239.03C773.12,239.38 772.98,239.72 772.84,240.06C772.98,239.73 773.12,239.39 773.26,239.06C772.47,240.92 771.45,242.66 770.22,244.26C770.44,243.98 770.66,243.7 770.87,243.41C769.93,244.63 768.88,245.75 767.72,246.77C766.95,247.45 766.49,248.72 766.49,249.73C766.49,250.76 766.95,251.98 767.72,252.69C768.52,253.42 769.56,253.96 770.68,253.92C771.83,253.87 772.77,253.46 773.64,252.69C777.14,249.59 779.68,245.6 781.31,241.24C781.67,240.28 781.39,238.87 780.89,238.02C780.38,237.15 779.39,236.32 778.39,236.1C777.32,235.86 776.12,235.91 775.17,236.52C774.21,237.15 773.65,237.96 773.25,239.03Z" style="fill:rgb(37,97,147);fill-rule:nonzero;"/>
                    </g>
                    <g>
                        <path d="M786.82,241.24C788.52,245.85 791.19,250.06 794.86,253.36C795.68,254.1 796.69,254.59 797.82,254.59C798.85,254.59 800.07,254.13 800.78,253.36C801.51,252.56 802.05,251.52 802.01,250.4C801.96,249.32 801.61,248.19 800.78,247.44C799.6,246.38 798.53,245.22 797.56,243.97C797.78,244.25 798,244.53 798.21,244.82C796.87,243.06 795.76,241.16 794.9,239.12C795.04,239.45 795.18,239.79 795.32,240.12C795.17,239.75 795.02,239.39 794.89,239.02C794.5,237.98 793.95,237.1 792.97,236.52C792.07,236 790.75,235.77 789.75,236.1C788.74,236.43 787.76,237.05 787.25,238.02C786.74,238.96 786.43,240.19 786.82,241.24Z" style="fill:rgb(37,97,147);fill-rule:nonzero;"/>
                    </g>
                    <path d="M718.45,206C717.55,206.04 716.71,206.33 716.02,206.79C709.89,206.6 703.77,206.79 697.67,207.36C696.94,206.79 696.05,206.44 695.14,206.48C692.76,206.59 691.1,208.32 690.96,210.66C690.67,215.52 691.01,220.35 691.82,225.15C691.96,225.99 692.67,226.87 693.39,227.41C694.14,228.28 695.2,228.86 696.41,228.75C702.71,228.15 709.05,227.96 715.38,228.17C716.07,228.19 716.74,227.99 717.34,227.65C717.68,227.73 718.03,227.79 718.39,227.77C720.66,227.67 722.56,226.03 722.57,223.81C722.59,219.19 722.61,214.58 722.63,209.96C722.64,207.89 720.7,205.91 718.45,206ZM701.79,222.68C701.69,222.98 701.53,223.23 701.3,223.45C701.24,223.51 701.18,223.57 701.12,223.63C700.82,223.93 700.47,224.13 700.07,224.24C699.86,224.27 699.65,224.3 699.43,224.33C699,224.33 698.6,224.22 698.22,224C698.06,223.88 697.9,223.75 697.74,223.63C697.51,223.41 697.34,223.16 697.25,222.86C697.1,222.58 697.03,222.27 697.04,221.94C697.03,221.61 697.1,221.3 697.25,221.02C697.35,220.72 697.51,220.47 697.74,220.25C697.8,220.19 697.86,220.13 697.92,220.07C698.22,219.77 698.57,219.57 698.98,219.46C699.19,219.43 699.4,219.4 699.62,219.37C700.05,219.37 700.45,219.48 700.83,219.7C700.99,219.82 701.15,219.95 701.31,220.07C701.54,220.29 701.71,220.54 701.8,220.84C701.95,221.12 702.02,221.43 702.01,221.76C702.01,222.09 701.94,222.4 701.79,222.68ZM701.79,214.68C701.69,214.98 701.53,215.23 701.3,215.45C701.24,215.51 701.18,215.57 701.12,215.63C700.82,215.93 700.47,216.13 700.07,216.24C699.86,216.27 699.65,216.3 699.43,216.33C699,216.33 698.6,216.22 698.22,216C698.06,215.88 697.9,215.75 697.74,215.63C697.51,215.41 697.34,215.16 697.25,214.86C697.1,214.58 697.03,214.27 697.04,213.94C697.03,213.61 697.1,213.3 697.25,213.02C697.35,212.72 697.51,212.47 697.74,212.25C697.8,212.19 697.86,212.13 697.92,212.07C698.22,211.77 698.57,211.57 698.98,211.46C699.19,211.43 699.4,211.4 699.62,211.37C700.05,211.37 700.45,211.48 700.83,211.7C700.99,211.82 701.15,211.95 701.31,212.07C701.54,212.29 701.71,212.54 701.8,212.84C701.95,213.12 702.02,213.43 702.01,213.76C702.01,214.09 701.94,214.4 701.79,214.68ZM715.79,222.68C715.69,222.98 715.53,223.23 715.3,223.45C715.24,223.51 715.18,223.57 715.12,223.63C714.82,223.93 714.47,224.13 714.07,224.24C713.86,224.27 713.65,224.3 713.43,224.33C713,224.33 712.6,224.22 712.22,224C712.06,223.88 711.9,223.75 711.74,223.63C711.51,223.41 711.34,223.16 711.25,222.86C711.1,222.58 711.03,222.27 711.04,221.94C711.03,221.61 711.1,221.3 711.25,221.02C711.35,220.72 711.51,220.47 711.74,220.25C711.8,220.19 711.86,220.13 711.92,220.07C712.22,219.77 712.57,219.57 712.98,219.46C713.19,219.43 713.4,219.4 713.62,219.37C714.05,219.37 714.45,219.48 714.83,219.7C714.99,219.82 715.15,219.95 715.31,220.07C715.54,220.29 715.71,220.54 715.8,220.84C715.95,221.12 716.02,221.43 716.01,221.76C716.01,222.09 715.94,222.4 715.79,222.68ZM715.79,214.68C715.69,214.98 715.53,215.23 715.3,215.45C715.24,215.51 715.18,215.57 715.12,215.63C714.82,215.93 714.47,216.13 714.07,216.24C713.86,216.27 713.65,216.3 713.43,216.33C713,216.33 712.6,216.22 712.22,216C712.06,215.88 711.9,215.75 711.74,215.63C711.51,215.41 711.34,215.16 711.25,214.86C711.1,214.58 711.03,214.27 711.04,213.94C711.03,213.61 711.1,213.3 711.25,213.02C711.35,212.72 711.51,212.47 711.74,212.25C711.8,212.19 711.86,212.13 711.92,212.07C712.22,211.77 712.57,211.57 712.98,211.46C713.19,211.43 713.4,211.4 713.62,211.37C714.05,211.37 714.45,211.48 714.83,211.7C714.99,211.82 715.15,211.95 715.31,212.07C715.54,212.29 715.71,212.54 715.8,212.84C715.95,213.12 716.02,213.43 716.01,213.76C716.01,214.09 715.94,214.4 715.79,214.68Z" style="fill:rgb(37,97,147);fill-rule:nonzero;"/>
                </g>
            </g>
        </g>
    </g>
</svg>
