<?xml version="1.0" encoding="UTF-8" standalone="no"?>
<!DOCTYPE svg PUBLIC "-//W3C//DTD SVG 1.1//EN" "http://www.w3.org/Graphics/SVG/1.1/DTD/svg11.dtd">
<svg width="100%" height="100%" viewBox="0 0 394 200" version="1.1" xmlns="http://www.w3.org/2000/svg" xmlns:xlink="http://www.w3.org/1999/xlink" xml:space="preserve" xmlns:serif="http://www.serif.com/" style="fill-rule:evenodd;clip-rule:evenodd;stroke-linejoin:round;stroke-miterlimit:2;">
    <g transform="matrix(1,0,0,1,-352.7,-103.461)">
        <g>
            <g>
                <g id="レイヤー_1">
                    <path d="M724.13,290.22L361.62,290.22C356.69,290.22 352.7,286.23 352.7,281.3L352.7,168.22C352.7,163.29 356.69,159.3 361.62,159.3L724.13,159.3C729.06,159.3 733.05,163.29 733.05,168.22L733.05,281.31C733.05,286.23 729.06,290.22 724.13,290.22Z" style="fill:rgb(0,99,152);fill-rule:nonzero;"/>
                    <g>
                        <g>
                            <path d="M390.64,222.78C398.16,222.42 405.69,222.06 413.21,221.69C414.83,221.61 416.21,220.37 416.21,218.69C416.21,217.13 414.84,215.61 413.21,215.69C405.69,216.05 398.16,216.41 390.64,216.78C389.02,216.86 387.64,218.1 387.64,219.78C387.64,221.35 389.01,222.86 390.64,222.78Z" style="fill:white;fill-rule:nonzero;"/>
                        </g>
                        <g>
                            <path d="M420.79,209.27C420.21,219.3 419.88,229.34 419.82,239.38C419.79,244.4 419.82,249.43 419.92,254.45C419.97,256.82 420.16,259.33 422.26,260.83C424.27,262.28 427.3,261.99 429.66,262C432.07,262.01 434.48,261.9 436.88,261.68C439.23,261.46 441.82,261.34 444.09,260.65C449.46,259.01 448.81,252.94 448.79,248.47C448.75,238.45 448.3,228.44 447.43,218.46C447.19,215.74 447.17,212.83 446.54,210.17C445.89,207.45 443.72,205.95 441.12,205.38C435.59,204.17 429.86,204.35 424.4,205.84C420.68,206.85 422.26,212.64 426,211.63C429.86,210.58 433.95,210.23 437.91,210.86C438.74,210.99 439.6,211.13 440.41,211.38C440.65,211.45 440.82,211.47 440.87,211.6C440.78,211.33 440.81,211.99 440.81,211.95C440.77,212.71 441.01,213.72 441.09,214.53C441.2,215.67 441.31,216.82 441.41,217.96C442.18,226.71 442.63,235.49 442.77,244.27C442.8,246.41 442.82,248.54 442.81,250.68C442.81,251.64 442.82,252.6 442.78,253.56C442.76,254.01 442.71,254.78 442.53,254.89C442.39,254.98 441.25,255.11 440.9,255.17C439.89,255.33 438.88,255.46 437.87,255.57C435.71,255.8 433.55,255.93 431.38,255.98C430.69,255.99 425.6,256.18 425.52,255.85C425.51,255.81 426.05,256.25 426.06,256.24C426.01,256.26 425.98,255.59 425.98,255.55C425.92,254.44 425.93,253.32 425.91,252.21C425.84,247.85 425.82,243.48 425.85,239.12C425.92,229.16 426.24,219.2 426.82,209.26C426.91,207.64 425.37,206.26 423.82,206.26C422.09,206.27 420.89,207.65 420.79,209.27Z" style="fill:white;fill-rule:nonzero;"/>
                        </g>
                        <g>
                            <path d="M482.44,205.72C483.99,205.94 485.52,206.07 487.08,205.93C488.63,205.78 490.16,205.51 491.64,205.01C492.38,204.76 493.03,204.32 493.43,203.63C493.81,202.99 493.97,202.04 493.73,201.32C493.5,200.59 493.05,199.89 492.35,199.53C491.66,199.17 490.8,198.97 490.04,199.23C489.02,199.58 487.97,199.83 486.9,199.97C487.17,199.93 487.43,199.9 487.7,199.86C486.31,200.04 484.9,200.04 483.51,199.87C483.78,199.91 484.04,199.94 484.31,199.98C484.22,199.97 484.12,199.96 484.03,199.94C483.2,199.82 482.48,199.8 481.72,200.24C481.1,200.6 480.5,201.32 480.34,202.03C480.17,202.8 480.2,203.66 480.64,204.34C481.04,204.95 481.69,205.62 482.44,205.72Z" style="fill:white;fill-rule:nonzero;"/>
                        </g>
                        <g>
                            <path d="M477.16,216.76C484.25,216.73 491.34,216.69 498.42,216.66C500.04,216.65 501.42,215.29 501.42,213.66C501.42,212.04 500.05,210.65 498.42,210.66C491.33,210.69 484.24,210.73 477.16,210.76C475.54,210.77 474.16,212.13 474.16,213.76C474.16,215.38 475.53,216.77 477.16,216.76Z" style="fill:white;fill-rule:nonzero;"/>
                        </g>
                        <g>
                            <path d="M484.07,226.87C484.68,226.72 485.29,226.61 485.91,226.52C485.64,226.56 485.38,226.59 485.11,226.63C486.64,226.43 488.17,226.43 489.7,226.63C489.43,226.59 489.17,226.56 488.9,226.52C489.28,226.57 489.66,226.64 490.04,226.71C490.84,226.87 491.63,226.83 492.35,226.41C492.97,226.05 493.57,225.33 493.73,224.62C493.9,223.85 493.87,222.99 493.43,222.31C493.02,221.68 492.4,221.08 491.64,220.93C488.59,220.32 485.51,220.35 482.48,221.08C480.95,221.45 479.9,223.26 480.38,224.77C480.89,226.36 482.43,227.26 484.07,226.87Z" style="fill:white;fill-rule:nonzero;"/>
                        </g>
                        <g>
                            <path d="M485.56,236.2C485.76,236.09 485.97,236 486.18,235.91C485.94,236.01 485.7,236.11 485.46,236.21C486.06,235.97 486.68,235.8 487.32,235.71C487.05,235.75 486.79,235.78 486.52,235.82C487.2,235.73 487.87,235.73 488.55,235.81C488.28,235.77 488.02,235.74 487.75,235.7C488.43,235.79 489.08,235.97 489.72,236.23C489.48,236.13 489.24,236.03 489,235.93C489.11,235.98 489.21,236.02 489.31,236.07C490.05,236.42 490.8,236.6 491.62,236.37C492.32,236.18 493.07,235.64 493.41,234.99C493.78,234.29 493.96,233.45 493.71,232.68C493.48,231.97 493.03,231.22 492.33,230.89C490.78,230.16 489.14,229.71 487.41,229.75C485.68,229.78 484.04,230.23 482.51,231.03C481.86,231.37 481.32,232.13 481.13,232.82C480.93,233.54 481.02,234.49 481.43,235.13C482.37,236.54 484.07,236.97 485.56,236.2Z" style="fill:white;fill-rule:nonzero;"/>
                        </g>
                        <g>
                            <path d="M479.66,244.93C477.25,248.66 476.66,253.7 478.8,257.68C480.71,261.24 485.32,263.6 489.29,262.29C493.5,260.9 495.85,256.34 496.43,252.18C496.76,249.77 496.6,247.47 495.6,245.22C494.76,243.34 493.28,242.1 491.41,241.34C487.61,239.81 482.76,241.3 480.13,244.32C479.1,245.5 478.88,247.41 480.13,248.56C481.26,249.6 483.27,249.82 484.37,248.56C484.59,248.3 484.83,248.06 485.09,247.83C485.37,247.58 485.44,247.75 484.98,247.9C485.12,247.86 485.3,247.67 485.42,247.59C485.67,247.43 485.93,247.29 486.19,247.16C486.27,247.12 486.78,246.85 486.31,247.1C485.84,247.35 486.49,247.05 486.6,247.02C486.87,246.94 487.14,246.87 487.42,246.81C487.73,246.75 488.07,246.85 487.28,246.82C487.38,246.82 487.5,246.8 487.61,246.79C487.9,246.77 488.2,246.77 488.49,246.78C488.62,246.79 488.75,246.81 488.88,246.81C488.03,246.84 488.44,246.74 488.76,246.81C489.03,246.87 489.28,246.95 489.54,247.03C489.97,247.16 489.24,246.9 489.22,246.89C489.33,246.97 489.48,247.01 489.59,247.08C489.69,247.14 489.78,247.21 489.88,247.26C490.19,247.41 489.3,246.71 489.64,247.07C489.72,247.16 489.83,247.27 489.92,247.34C490.3,247.64 489.46,246.61 489.82,247.2C489.88,247.29 490.39,247.99 490.32,248.07C490.27,247.95 490.22,247.84 490.18,247.72C490.23,247.84 490.28,247.97 490.32,248.1C490.37,248.26 490.42,248.42 490.46,248.58C490.5,248.74 490.53,248.91 490.57,249.07C490.74,249.75 490.54,248.38 490.58,249.08C490.6,249.5 490.63,249.91 490.61,250.33C490.61,250.47 490.6,250.61 490.59,250.75C490.58,250.82 490.58,250.89 490.57,250.96C490.53,251.3 490.54,251.24 490.6,250.79C490.63,251.09 490.47,251.54 490.41,251.83C490.25,252.51 490.09,253.44 489.71,254.02C490.13,253.38 489.76,253.89 489.67,254.07C489.59,254.23 489.51,254.38 489.43,254.54C489.25,254.88 489.04,255.2 488.83,255.52C488.52,256.01 488.93,255.42 488.93,255.41C488.92,255.53 488.61,255.78 488.53,255.87C488.41,255.99 488.28,256.1 488.17,256.22C488,256.37 488.07,256.31 488.39,256.07C488.28,256.15 488.17,256.23 488.06,256.3C487.92,256.39 487.77,256.46 487.63,256.54C487.3,256.75 488.35,256.32 487.78,256.48C487.51,256.56 487.19,256.59 486.94,256.69C487.55,256.44 487.43,256.64 487.05,256.64C486.9,256.64 486.76,256.63 486.62,256.63C486.2,256.63 486.39,256.41 486.81,256.66C486.66,256.57 486.38,256.57 486.21,256.52C486.07,256.48 485.93,256.43 485.79,256.38C485.18,256.19 486.4,256.72 485.85,256.4C485.59,256.25 485.33,256.1 485.07,255.94C484.54,255.62 485.47,256.3 485.17,256.03C485.06,255.93 484.94,255.83 484.83,255.73C484.7,255.6 484.57,255.47 484.44,255.34C484.4,255.29 484.36,255.25 484.32,255.2C484.12,254.95 484.16,255.01 484.45,255.37C484.48,255.27 483.96,254.58 483.88,254.41C483.55,253.77 484.07,255.03 483.86,254.35C483.8,254.15 483.73,253.95 483.68,253.75C483.63,253.55 483.59,253.34 483.54,253.14C483.38,252.45 483.57,253.81 483.53,253.11C483.51,252.69 483.49,252.27 483.51,251.84C483.52,251.71 483.48,251.31 483.56,251.2C483.5,251.65 483.49,251.7 483.54,251.36C483.55,251.29 483.57,251.22 483.58,251.15C483.66,250.73 483.77,250.32 483.9,249.91C483.97,249.71 484.04,249.51 484.11,249.31C484.31,248.73 483.85,249.85 484.19,249.15C484.39,248.74 484.62,248.35 484.87,247.96C485.72,246.64 485.18,244.59 483.79,243.86C482.27,243.06 480.57,243.52 479.66,244.93Z" style="fill:white;fill-rule:nonzero;"/>
                        </g>
                        <g>
                            <path d="M509.15,226.71C517.32,223.16 522.44,214.32 522.6,205.57C520.64,205.84 518.67,206.1 516.71,206.37C517.53,210.6 518.43,215.01 520.75,218.72C522.85,222.07 526.19,225.04 530.23,225.61C531.83,225.84 533.45,225.22 533.92,223.51C534.31,222.1 533.44,220.05 531.82,219.82C531.23,219.74 530.19,219.47 529.94,219.36C529.3,219.08 528.63,218.65 528.24,218.32C527.06,217.35 526.29,216.34 525.57,215.06C523.8,211.93 523.18,208.26 522.5,204.77C521.84,201.37 516.67,202.28 516.61,205.57C516.49,212.31 512.51,218.75 506.13,221.53C504.64,222.18 504.3,224.35 505.05,225.63C505.95,227.17 507.66,227.36 509.15,226.71Z" style="fill:white;fill-rule:nonzero;"/>
                        </g>
                        <g>
                            <path d="M649.26,200.36C646.28,211.87 642.09,223.01 636.65,233.59C635.91,235.03 636.28,236.85 637.73,237.69C639.07,238.48 641.09,238.06 641.83,236.61C647.5,225.59 651.94,213.95 655.04,201.95C656.01,198.22 650.22,196.62 649.26,200.36Z" style="fill:white;fill-rule:nonzero;"/>
                        </g>
                        <g>
                            <path d="M646.89,230.28C646.61,238.18 646.54,246.09 646.25,254C646.19,255.62 647.67,257 649.25,257C650.92,257 652.19,255.63 652.25,254C652.53,246.1 652.6,238.19 652.89,230.28C652.95,228.66 651.47,227.28 649.89,227.28C648.21,227.28 646.94,228.66 646.89,230.28Z" style="fill:white;fill-rule:nonzero;"/>
                        </g>
                        <g>
                            <path d="M661.9,211C662.38,210.89 662.99,210.67 663.48,210.7C663.05,210.76 663,210.76 663.33,210.72C663.47,210.7 663.61,210.69 663.76,210.68C663.97,210.66 664.18,210.64 664.39,210.63C665.37,210.56 666.36,210.56 667.34,210.57C669.38,210.59 671.4,210.62 673.43,210.37C674.25,210.27 674.94,210.1 675.55,209.49C676.07,208.97 676.46,208.12 676.43,207.37C676.36,205.91 675.1,204.17 673.43,204.37C671.34,204.63 669.24,204.58 667.14,204.56C664.84,204.54 662.56,204.7 660.31,205.21C658.78,205.56 657.73,207.41 658.21,208.9C658.73,210.51 660.26,211.37 661.9,211Z" style="fill:white;fill-rule:nonzero;"/>
                        </g>
                        <g>
                            <path d="M670.68,206.22C666.36,213.16 662.04,220.09 657.72,227.03C656.86,228.41 657.43,230.33 658.8,231.13C660.24,231.97 662.05,231.43 662.9,230.05C667.22,223.11 671.54,216.18 675.86,209.24C676.72,207.86 676.15,205.94 674.78,205.14C673.34,204.3 671.53,204.84 670.68,206.22Z" style="fill:white;fill-rule:nonzero;"/>
                        </g>
                        <g>
                            <path d="M666.34,223.05C666.65,222.97 666.96,222.92 667.27,222.86C667.74,222.77 667.36,222.88 667.07,222.88C667.24,222.88 667.42,222.84 667.59,222.83C668.02,222.8 668.45,222.78 668.88,222.79C669.14,222.8 669.39,222.82 669.65,222.83C670.22,222.84 669.2,222.71 669.76,222.84C670.27,222.96 670.77,223.08 671.27,223.24C671.59,223.34 671.16,223.19 671.13,223.17C671.24,223.22 671.36,223.28 671.47,223.34C671.69,223.47 671.91,223.59 672.13,223.73C672.41,223.91 672.09,223.69 672.05,223.65C672.19,223.76 672.32,223.89 672.45,224.01C672.55,224.11 672.64,224.21 672.74,224.31C673.06,224.65 672.53,223.98 672.81,224.38C674.75,227.06 673.42,230.55 672.64,233.46C671.72,236.86 670.87,240.28 669.93,243.67C668.84,247.57 667.57,251.41 666.1,255.19C665.51,256.7 666.75,258.48 668.2,258.88C669.9,259.35 671.3,258.3 671.89,256.78C674.78,249.34 676.66,241.64 678.73,233.95C679.86,229.75 680.62,225.17 678,221.35C676.15,218.64 673.3,217.23 670.1,216.86C668.34,216.66 666.45,216.78 664.74,217.25C661.03,218.29 662.61,224.08 666.34,223.05Z" style="fill:white;fill-rule:nonzero;"/>
                        </g>
                        <g>
                            <path d="M366.04,303.32C390.12,303.26 414.2,303.21 438.28,303.15C462.25,303.09 486.22,303.02 510.2,302.99C533.33,302.96 556.47,302.97 579.6,302.99C602.31,303.01 625.02,303.04 647.72,303.05C671.15,303.06 694.59,303.06 718.02,303.02C721.01,303.01 724.01,303.01 727,303C730.86,302.99 730.87,296.99 727,297C703.53,297.05 680.07,297.07 656.6,297.06C633.76,297.05 610.92,297.02 588.08,297C565.06,296.98 542.03,296.97 519.01,296.99C495.22,297.01 471.43,297.08 447.63,297.13C423.43,297.19 399.23,297.24 375.03,297.3C372.03,297.31 369.04,297.31 366.04,297.32C362.17,297.33 362.17,303.33 366.04,303.32Z" style="fill:rgb(0,99,152);fill-rule:nonzero;"/>
                        </g>
                        <g>
                            <path d="M740.47,162.68C740.21,194.57 739.96,226.47 739.7,258.36C739.63,267.33 739.56,276.3 739.48,285.27C739.45,289.13 745.45,289.14 745.48,285.27C745.74,253.38 745.99,221.48 746.25,189.59C746.32,180.62 746.39,171.65 746.47,162.68C746.5,158.82 740.5,158.82 740.47,162.68Z" style="fill:rgb(0,99,152);fill-rule:nonzero;"/>
                        </g>
                        <g>
                            <path d="M413.21,232.93C417.07,232.93 417.08,226.93 413.21,226.93C409.35,226.93 409.35,232.93 413.21,232.93Z" style="fill:white;fill-rule:nonzero;"/>
                        </g>
                        <g>
                            <path d="M400.33,206.98C400.08,224.2 400.19,241.42 400.67,258.63C400.78,262.48 406.78,262.5 406.67,258.63C406.2,241.42 406.09,224.2 406.33,206.98C406.38,203.12 400.38,203.12 400.33,206.98Z" style="fill:white;fill-rule:nonzero;"/>
                        </g>
                        <g>
                            <path d="M389.88,230.39C388.4,234.43 387.63,238.74 387.54,243.04C387.51,244.61 388.94,246.11 390.54,246.04C392.19,245.97 393.5,244.72 393.54,243.04C393.56,242.01 393.62,240.98 393.73,239.96C393.75,239.74 393.78,239.52 393.8,239.3C393.88,238.61 393.71,239.85 393.81,239.22C393.89,238.71 393.97,238.2 394.07,237.7C394.44,235.75 394.98,233.84 395.67,231.98C396.21,230.5 395.06,228.63 393.57,228.29C391.87,227.91 390.46,228.81 389.88,230.39Z" style="fill:white;fill-rule:nonzero;"/>
                        </g>
                        <g>
                            <path d="M665.66,237.75C669.52,237.75 669.53,231.75 665.66,231.75C661.8,231.75 661.8,237.75 665.66,237.75Z" style="fill:white;fill-rule:nonzero;"/>
                        </g>
                        <g>
                            <path d="M383.65,106.36L383.65,166.86C383.65,170.72 389.65,170.73 389.65,166.86L389.65,106.36C389.65,102.5 383.65,102.49 383.65,106.36Z" style="fill:rgb(0,99,152);fill-rule:nonzero;"/>
                        </g>
                        <g>
                            <path d="M690.65,106.36L690.65,166.86C690.65,170.72 696.65,170.73 696.65,166.86L696.65,106.36C696.65,102.5 690.65,102.49 690.65,106.36Z" style="fill:rgb(0,99,152);fill-rule:nonzero;"/>
                        </g>
                        <g>
                            <path d="M387.04,176.42C387.12,176.27 387.21,176.13 387.31,176C387.15,176.2 387,176.4 386.84,176.61C386.98,176.43 387.14,176.28 387.31,176.14C387.11,176.3 386.91,176.45 386.7,176.61C386.93,176.43 387.18,176.29 387.44,176.18C387.2,176.28 386.96,176.38 386.72,176.48C387.01,176.36 387.31,176.29 387.62,176.24C387.35,176.28 387.09,176.31 386.82,176.35C387.15,176.31 387.49,176.31 387.82,176.35C387.55,176.31 387.29,176.28 387.02,176.24C387.31,176.28 387.59,176.36 387.85,176.46C387.61,176.36 387.37,176.26 387.13,176.16C387.38,176.26 387.6,176.4 387.82,176.56C387.62,176.4 387.42,176.25 387.21,176.09C387.39,176.23 387.55,176.39 387.69,176.57C387.53,176.37 387.38,176.17 387.22,175.96C387.35,176.13 387.46,176.32 387.54,176.51C387.44,176.27 387.34,176.03 387.24,175.79C387.34,176.03 387.4,176.27 387.44,176.52C387.4,176.25 387.37,175.99 387.33,175.72C387.36,176 387.36,176.27 387.32,176.55C387.36,176.28 387.39,176.02 387.43,175.75C387.38,176.07 387.29,176.38 387.17,176.68C387.27,176.44 387.37,176.2 387.47,175.96C387.35,176.24 387.19,176.5 387.01,176.74C387.17,176.54 387.32,176.34 387.48,176.13C387.29,176.37 387.09,176.58 386.85,176.77C387.05,176.61 387.25,176.46 387.46,176.3C387.26,176.45 387.04,176.58 386.8,176.68C387.04,176.58 387.28,176.48 387.52,176.38C387.3,176.47 387.08,176.53 386.84,176.56C387.11,176.52 387.37,176.49 387.64,176.45C387.42,176.48 387.2,176.48 386.97,176.45C387.24,176.49 387.5,176.52 387.77,176.56C387.53,176.53 387.3,176.46 387.07,176.37C387.31,176.47 387.55,176.57 387.79,176.67C387.52,176.56 387.28,176.41 387.05,176.23C387.25,176.39 387.45,176.54 387.66,176.7C387.43,176.52 387.23,176.31 387.04,176.08C387.2,176.28 387.35,176.48 387.51,176.69C387.32,176.44 387.16,176.17 387.03,175.87C387.13,176.11 387.23,176.35 387.33,176.59C387.21,176.3 387.12,176 387.08,175.69C387.12,175.96 387.15,176.22 387.19,176.49C387.16,176.23 387.16,175.96 387.19,175.7C387.15,175.97 387.12,176.23 387.08,176.5C387.11,176.28 387.17,176.07 387.25,175.86C387.15,176.1 387.05,176.34 386.95,176.58C386.98,176.54 387.01,176.48 387.04,176.42C387.4,175.69 387.56,174.92 387.34,174.11C387.15,173.41 386.61,172.66 385.96,172.32C385.26,171.95 384.42,171.77 383.65,172.02C382.94,172.25 382.2,172.7 381.86,173.4C381.45,174.24 381.28,174.88 381.18,175.81C381.12,176.4 381.22,177.02 381.34,177.6C381.59,178.74 382.26,179.85 383.06,180.68C384.91,182.58 387.9,183.1 390.2,181.72C390.68,181.43 391.16,181.06 391.54,180.64C391.92,180.22 392.3,179.74 392.56,179.23C393.08,178.2 393.45,177.01 393.35,175.84C393.27,174.93 393.1,174.32 392.73,173.5C392.5,172.98 392.13,172.51 391.74,172.1C391.46,171.82 391.13,171.58 390.81,171.35C390.68,171.25 390.54,171.17 390.4,171.09C389.9,170.84 389.36,170.6 388.81,170.49C388.21,170.37 387.57,170.27 386.95,170.33C386.33,170.39 385.71,170.46 385.13,170.69C384.28,171.03 383.69,171.35 382.99,171.95C382.53,172.34 382.13,172.86 381.85,173.39C381.48,174.1 381.33,174.91 381.55,175.7C381.74,176.4 382.28,177.15 382.93,177.49C383.63,177.86 384.47,178.04 385.24,177.79C385.97,177.57 386.67,177.12 387.04,176.42Z" style="fill:white;fill-rule:nonzero;"/>
                        </g>
                        <g>
                            <path d="M693.91,173.12C693.95,173.12 693.99,173.13 694.03,173.13C693.76,173.09 693.5,173.06 693.23,173.02C693.44,173.05 693.65,173.1 693.84,173.18C693.6,173.08 693.36,172.98 693.12,172.88C693.33,172.97 693.53,173.09 693.71,173.22C693.51,173.06 693.31,172.91 693.1,172.75C693.32,172.92 693.5,173.11 693.67,173.32C693.51,173.12 693.36,172.92 693.2,172.71C693.38,172.95 693.52,173.2 693.64,173.47C693.54,173.23 693.44,172.99 693.34,172.75C693.44,173 693.52,173.27 693.56,173.54C693.52,173.27 693.49,173.01 693.45,172.74C693.49,173.01 693.49,173.28 693.45,173.55C693.49,173.28 693.52,173.02 693.56,172.75C693.53,172.96 693.47,173.16 693.4,173.36C693.5,173.12 693.6,172.88 693.7,172.64C693.62,172.84 693.51,173.02 693.38,173.19C693.54,172.99 693.69,172.79 693.85,172.58C693.72,172.74 693.58,172.88 693.42,173.01C693.62,172.85 693.82,172.7 694.03,172.54C693.85,172.67 693.66,172.78 693.46,172.87C693.7,172.77 693.94,172.67 694.18,172.57C693.92,172.68 693.65,172.75 693.37,172.79C693.64,172.75 693.9,172.72 694.17,172.68C693.87,172.72 693.57,172.71 693.27,172.67C693.54,172.71 693.8,172.74 694.07,172.78C693.79,172.74 693.52,172.66 693.26,172.56C693.5,172.66 693.74,172.76 693.98,172.86C693.76,172.76 693.55,172.65 693.36,172.5C693.56,172.66 693.76,172.81 693.97,172.97C693.79,172.83 693.64,172.68 693.5,172.5C693.66,172.7 693.81,172.9 693.97,173.11C693.85,172.96 693.76,172.79 693.68,172.62C693.78,172.86 693.88,173.1 693.98,173.34C693.89,173.13 693.84,172.92 693.8,172.7C693.84,172.97 693.87,173.23 693.91,173.5C693.88,173.26 693.88,173.02 693.91,172.78C693.87,173.05 693.84,173.31 693.8,173.58C693.84,173.32 693.91,173.07 694.01,172.82C693.91,173.06 693.81,173.3 693.71,173.54C693.83,173.26 693.98,172.99 694.17,172.75C694.01,172.95 693.86,173.15 693.7,173.36C693.87,173.15 694.05,172.97 694.26,172.8C694.06,172.96 693.86,173.11 693.65,173.27C693.86,173.11 694.08,172.98 694.32,172.88C694.08,172.98 693.84,173.08 693.6,173.18C693.81,173.1 694.02,173.04 694.23,173.01C693.96,173.05 693.7,173.08 693.43,173.12C693.57,173.1 693.71,173.1 693.86,173.11C694.61,173.14 695.46,172.75 695.98,172.23C696.5,171.71 696.89,170.86 696.86,170.11C696.83,169.33 696.57,168.53 695.98,167.99C695.38,167.44 694.68,167.15 693.86,167.11C692.77,167.06 691.54,167.42 690.66,168.06C690.35,168.28 690.03,168.52 689.75,168.79C689.46,169.07 689.21,169.42 688.97,169.74C688.62,170.2 688.42,170.71 688.21,171.25C688,171.79 687.94,172.35 687.88,172.92C687.87,173.07 687.86,173.22 687.87,173.37C687.9,173.78 687.95,174.21 688.05,174.61C688.19,175.14 688.41,175.67 688.73,176.12C689.22,176.81 689.64,177.22 690.33,177.72C690.76,178.04 691.28,178.23 691.78,178.42C692.29,178.61 692.86,178.66 693.4,178.72C693.95,178.77 694.51,178.68 695.04,178.59C695.57,178.5 696.07,178.28 696.56,178.05C697.47,177.62 698.36,176.76 698.82,175.86C699,175.51 699.16,175.14 699.27,174.77C699.39,174.39 699.42,173.97 699.46,173.58C699.53,173.03 699.43,172.47 699.34,171.92C699.24,171.34 698.99,170.78 698.73,170.26C698.65,170.1 698.56,169.95 698.46,169.81C698.22,169.48 697.98,169.14 697.69,168.84C697.3,168.43 696.83,168.06 696.33,167.8C695.5,167.38 694.82,167.21 693.9,167.13C693.17,167.07 692.28,167.51 691.78,168.01C691.26,168.53 690.87,169.38 690.9,170.13C690.93,170.91 691.19,171.71 691.78,172.25C691.98,172.41 692.18,172.56 692.39,172.72C692.87,172.98 693.37,173.12 693.91,173.12Z" style="fill:white;fill-rule:nonzero;"/>
                        </g>
                        <g>
                            <g>
                                <path d="M569.28,208.3C582.47,207.57 595.64,208.31 608.84,208.54C613.14,208.62 613.14,201.94 608.84,201.87C595.65,201.64 582.47,200.9 569.28,201.63C567.48,201.73 565.94,203.09 565.94,204.97C565.94,206.69 567.47,208.4 569.28,208.3Z" style="fill:white;fill-rule:nonzero;"/>
                            </g>
                            <g>
                                <path d="M564.31,237.87C580.8,238.13 597.29,238.45 613.77,238.71C618.07,238.78 618.07,232.1 613.77,232.04C597.28,231.78 580.79,231.46 564.31,231.2C560.02,231.13 560.01,237.81 564.31,237.87Z" style="fill:white;fill-rule:nonzero;"/>
                            </g>
                            <g>
                                <path d="M573.59,229.72C578.57,229.23 583.57,228.55 588.58,228.59C590.86,228.61 593.13,228.77 595.36,229.21C597.5,229.64 598.62,229.96 600.39,231.29C600.86,231.65 600.18,231.05 600.54,231.42C600.64,231.52 600.77,231.62 600.86,231.73C600.67,231.49 601.01,232.12 601.02,232.17C601.34,233.01 601.52,234.02 601.55,234.66C601.62,236.2 601.27,237.67 600.29,238.7C600.02,238.98 600.24,238.81 600.32,238.74C600.16,238.87 599.96,238.98 599.78,239.09C599.41,239.32 599.02,239.52 598.63,239.71C597.85,240.1 597.43,240.28 596.52,240.52C594.5,241.06 592.36,241.19 590.28,241.23C584.86,241.34 579.48,240.49 574.14,239.68C572.36,239.41 570.55,240.13 570.03,242.01C569.6,243.59 570.57,245.84 572.36,246.12C578.12,247 583.93,247.98 589.77,247.92C594.82,247.87 600.58,247.23 604.57,243.81C608.71,240.27 609.07,233.7 606.9,229.01C604.62,224.09 598.24,222.77 593.43,222.2C586.82,221.41 580.17,222.38 573.59,223.03C571.8,223.21 570.25,224.44 570.25,226.37C570.25,228.05 571.79,229.9 573.59,229.72Z" style="fill:white;fill-rule:nonzero;"/>
                            </g>
                            <g>
                                <path d="M586.8,199.71C586.91,208.17 586.91,216.62 586.79,225.08C586.74,228.85 586.66,232.62 586.57,236.39C586.47,240.45 586.17,244.49 586.01,248.54C585.99,249.13 585.96,249.73 585.97,250.32C585.97,250.5 585.97,250.68 585.96,250.86C585.97,250.55 586.06,250.49 585.95,250.83C585.9,250.96 585.87,251.11 585.83,251.24C585.69,251.69 586.07,250.82 585.82,251.23C585.74,251.35 585.68,251.48 585.59,251.6C585.79,251.3 585.78,251.45 585.55,251.6C585.47,251.65 585.05,251.99 585.54,251.65C585.37,251.77 585.19,251.87 585.01,251.97C585.46,251.74 584.61,252.08 584.41,252.11C584.02,252.18 584.34,252.11 584.41,252.1C584.16,252.11 583.9,252.12 583.64,252.1C583.56,252.09 582.7,251.9 582.4,251.81C578.27,250.61 576.5,257.05 580.63,258.25C584.65,259.42 589.24,258.55 591.51,254.73C592.62,252.87 592.6,250.89 592.68,248.8C592.76,246.43 592.99,244.07 593.1,241.7C593.5,233.21 593.51,224.68 593.55,216.18C593.57,210.69 593.55,205.2 593.48,199.71C593.42,195.42 586.75,195.41 586.8,199.71Z" style="fill:white;fill-rule:nonzero;"/>
                            </g>
                            <path d="M608.34,214.16C607.97,212.68 606.75,211.4 605.26,211.05C603.43,210.61 601.33,210.78 599.46,210.74C597.37,210.7 595.28,210.61 593.19,210.56C586.45,210.41 579.73,210.83 573,211.25C572.14,211.3 571.34,211.64 570.74,212.19C570.1,212.56 569.53,213.05 569.12,213.75C568.61,214.63 568.5,215.72 568.8,216.67C569.18,217.9 570.08,218.51 571.12,219.15C572.44,219.97 573.63,220.39 575.2,220.44C576.76,220.49 578.33,220.47 579.9,220.48C586.27,220.52 592.64,220.52 599.02,220.53C600.29,220.53 601.56,220.55 602.83,220.54C604.83,220.53 606.16,220.07 607.33,218.38C607.41,218.26 607.43,218.23 607.42,218.23C607.45,218.2 607.46,218.19 607.49,218.15C607.85,217.7 608.06,217.41 608.25,216.81C608.51,215.95 608.56,215.03 608.34,214.16ZM583.74,217.2L577.07,217.2C576.46,217.2 575.96,216.7 575.96,216.09C575.96,215.48 576.46,214.98 577.07,214.98L583.74,214.98C584.35,214.98 584.85,215.48 584.85,216.09C584.85,216.7 584.36,217.2 583.74,217.2ZM601.54,217.2L594.87,217.2C594.26,217.2 593.76,216.7 593.76,216.09C593.76,215.48 594.26,214.98 594.87,214.98L601.54,214.98C602.15,214.98 602.65,215.48 602.65,216.09C602.65,216.7 602.15,217.2 601.54,217.2Z" style="fill:white;fill-rule:nonzero;"/>
                        </g>
                        <g>
                            <path d="M683.22,216.65L683.22,238.36C683.22,240.03 684.64,241.45 686.31,241.45C687.99,241.45 689.4,240.03 689.4,238.36L689.4,216.65C689.4,214.98 687.98,213.56 686.31,213.56C684.64,213.56 683.22,214.97 683.22,216.65Z" style="fill:white;fill-rule:nonzero;"/>
                        </g>
                        <g>
                            <path d="M694.82,212.51C694.81,219.91 694.68,227.3 694.54,234.7C694.49,237.37 694.52,240.04 694.4,242.71C694.39,242.96 694.32,243.25 694.35,243.5C694.38,243.74 694.54,242.88 694.36,243.39C694.27,243.64 694.21,243.9 694.12,244.16C693.78,245.1 693.6,246.11 693.24,247.04C692.91,247.9 692.2,248.67 691.22,249.23C691.04,249.33 690.2,249.71 690.51,249.59C690.15,249.73 689.78,249.84 689.41,249.94C689.03,250.04 688.65,250.13 688.26,250.2C688.28,250.2 687.73,250.28 687.99,250.25C688.16,250.23 687.37,250.3 687.36,250.3C685.7,250.44 684.27,251.62 684.27,253.39C684.27,254.96 685.69,256.62 687.36,256.48C690.84,256.19 694.48,255.21 696.9,252.54C698.73,250.52 699.43,247.96 700.2,245.41C700.95,242.94 700.6,240.02 700.64,237.46C700.7,234.05 700.77,230.64 700.83,227.22C700.91,222.31 700.97,217.41 700.97,212.5C701,208.53 694.82,208.53 694.82,212.51Z" style="fill:white;fill-rule:nonzero;"/>
                        </g>
                        <g>
                            <path d="M509.19,209.12C513.05,209.12 513.06,203.12 509.19,203.12C505.33,203.12 505.32,209.12 509.19,209.12Z" style="fill:white;fill-rule:nonzero;"/>
                        </g>
                        <g>
                            <path d="M531.19,209.12C535.05,209.12 535.06,203.12 531.19,203.12C527.33,203.12 527.32,209.12 531.19,209.12Z" style="fill:white;fill-rule:nonzero;"/>
                        </g>
                        <g>
                            <path d="M509.15,258.71C517.32,255.16 522.44,246.32 522.6,237.57C520.64,237.84 518.67,238.1 516.71,238.37C517.53,242.6 518.43,247.01 520.75,250.72C522.85,254.07 526.19,257.04 530.23,257.61C531.83,257.84 533.45,257.22 533.92,255.51C534.31,254.1 533.44,252.05 531.82,251.82C531.23,251.74 530.19,251.47 529.94,251.36C529.3,251.08 528.63,250.65 528.24,250.32C527.06,249.35 526.29,248.34 525.57,247.06C523.8,243.93 523.18,240.26 522.5,236.77C521.84,233.37 516.67,234.28 516.61,237.57C516.49,244.31 512.51,250.75 506.13,253.53C504.64,254.18 504.3,256.35 505.05,257.63C505.95,259.17 507.66,259.36 509.15,258.71Z" style="fill:white;fill-rule:nonzero;"/>
                        </g>
                        <g>
                            <path d="M509.19,241.12C513.05,241.12 513.06,235.12 509.19,235.12C505.33,235.12 505.32,241.12 509.19,241.12Z" style="fill:white;fill-rule:nonzero;"/>
                        </g>
                        <g>
                            <path d="M531.19,241.12C535.05,241.12 535.06,235.12 531.19,235.12C527.33,235.12 527.32,241.12 531.19,241.12Z" style="fill:white;fill-rule:nonzero;"/>
                        </g>
                        <g>
                            <path d="M429.39,231.76C431.02,231.99 432.62,232.13 434.27,231.97C435.9,231.82 437.51,231.53 439.07,231C439.81,230.75 440.46,230.31 440.86,229.62C441.24,228.98 441.4,228.03 441.16,227.31C440.68,225.84 439.06,224.67 437.47,225.21C436.39,225.58 435.27,225.84 434.14,226C434.41,225.96 434.67,225.93 434.94,225.89C433.46,226.08 431.97,226.09 430.49,225.9C430.76,225.94 431.02,225.97 431.29,226.01C431.19,226 431.09,225.98 431,225.97C430.17,225.85 429.45,225.83 428.69,226.27C428.07,226.63 427.47,227.35 427.31,228.06C427.14,228.83 427.17,229.69 427.61,230.37C427.99,230.99 428.64,231.65 429.39,231.76Z" style="fill:white;fill-rule:nonzero;"/>
                        </g>
                        <g>
                            <path d="M429.39,241.31C431.02,241.54 432.62,241.68 434.27,241.52C435.9,241.37 437.51,241.08 439.07,240.55C439.81,240.3 440.46,239.86 440.86,239.17C441.24,238.53 441.4,237.58 441.16,236.86C440.68,235.39 439.06,234.22 437.47,234.76C436.39,235.13 435.27,235.39 434.14,235.55C434.41,235.51 434.67,235.48 434.94,235.44C433.46,235.63 431.97,235.64 430.49,235.45C430.76,235.49 431.02,235.52 431.29,235.56C431.19,235.55 431.09,235.53 431,235.52C430.17,235.4 429.45,235.38 428.69,235.82C428.07,236.18 427.47,236.9 427.31,237.61C427.14,238.38 427.17,239.24 427.61,239.92C427.99,240.54 428.64,241.21 429.39,241.31Z" style="fill:white;fill-rule:nonzero;"/>
                        </g>
                    </g>
                </g>
            </g>
        </g>
    </g>
</svg>
