<?xml version="1.0" encoding="UTF-8" standalone="no"?>
<!DOCTYPE svg PUBLIC "-//W3C//DTD SVG 1.1//EN" "http://www.w3.org/Graphics/SVG/1.1/DTD/svg11.dtd">
<svg width="100%" height="100%" viewBox="0 0 688 101" version="1.1" xmlns="http://www.w3.org/2000/svg" xmlns:xlink="http://www.w3.org/1999/xlink" xml:space="preserve" xmlns:serif="http://www.serif.com/" style="fill-rule:evenodd;clip-rule:evenodd;stroke-linejoin:round;stroke-miterlimit:2;">
    <g transform="matrix(1,0,0,1,-219.835,-161.935)">
        <g>
            <g>
                <g id="レイヤー_1">
                    <path d="M408.54,220.28C413.25,220.47 417.77,217.97 420.33,214.07C421.19,212.75 420.64,210.7 419.25,209.97C417.75,209.18 416.07,209.64 415.15,211.05C415,211.28 414.84,211.51 414.67,211.73C414.83,211.53 414.98,211.33 415.14,211.12C414.6,211.81 413.97,212.43 413.28,212.97C413.48,212.81 413.68,212.66 413.89,212.5C413.15,213.06 412.35,213.52 411.5,213.89C411.74,213.79 411.98,213.69 412.22,213.59C411.36,213.94 410.47,214.19 409.55,214.32C409.82,214.28 410.08,214.25 410.35,214.21C409.75,214.29 409.15,214.31 408.55,214.29C406.98,214.23 405.48,215.72 405.55,217.29C405.61,218.96 406.86,220.21 408.54,220.28Z" style="fill:white;fill-rule:nonzero;"/>
                    <path d="M400.07,203.31C400.02,210.35 399.97,217.38 399.93,224.42C399.91,227.66 400.06,230.97 399.66,234.19C399.36,236.59 398.57,239.17 396.99,240.69C396.43,241.23 395.44,241.87 394.89,242.07C394.63,242.17 394.36,242.23 394.1,242.31C394,242.34 393.32,242.47 393.77,242.41C393.5,242.45 393.24,242.44 392.97,242.44C392.81,242.44 392.65,242.43 392.49,242.42C392.76,242.46 392.71,242.44 392.35,242.37C391.74,242.21 391.82,242.27 391.29,241.9C391.6,242.12 390.57,241.1 390.82,241.45C390.67,241.24 390.54,241.01 390.43,240.78C390.18,240.29 390.6,241.39 390.31,240.49C390.22,240.19 390.13,239.88 390.08,239.57C390.16,240.06 390.06,239.15 390.06,239.1C390.05,238.83 390.06,238.56 390.09,238.3C390.14,237.73 389.92,238.94 390.15,237.98C390.29,237.4 390.35,237.17 390.49,236.88C390.94,235.98 391.71,235.18 392.47,234.69C394.48,233.4 396.68,233.05 399.11,233.29C402.33,233.6 405.5,235.02 408.36,236.45C410.6,237.57 413.19,239.05 414,241.22C414.57,242.74 416.03,243.77 417.69,243.32C419.15,242.92 420.36,241.15 419.79,239.63C418.52,236.23 415.99,233.84 412.87,232.07C409.63,230.22 405.97,228.6 402.32,227.79C395.53,226.28 387,228.28 384.58,235.62C383.61,238.58 383.98,242.19 385.82,244.74C388.01,247.78 391.59,248.92 395.21,248.22C398.43,247.6 401.35,245.37 403.09,242.63C405.15,239.38 405.69,235.4 405.84,231.63C406.22,222.21 406,212.73 406.07,203.31C406.09,199.45 400.09,199.45 400.07,203.31Z" style="fill:white;fill-rule:nonzero;"/>
                    <path d="M457.74,203.64C455.28,207.12 452.82,210.6 450.36,214.08C448,217.42 444.72,220.93 445.67,225.36C446.07,227.23 447.16,228.85 448.23,230.4C449.45,232.15 450.66,233.91 451.88,235.66C454.31,239.17 456.75,242.68 459.18,246.19C460.1,247.52 461.81,248.13 463.28,247.27C464.6,246.5 465.28,244.5 464.36,243.17C462.11,239.93 459.87,236.69 457.62,233.45C456.5,231.83 455.37,230.21 454.25,228.59C453.37,227.32 452.21,225.99 451.66,224.53C451.17,223.23 451.98,222.19 452.74,221.08C453.84,219.48 454.98,217.9 456.11,216.31C458.38,213.1 460.65,209.88 462.92,206.67C463.86,205.35 463.16,203.33 461.84,202.57C460.34,201.68 458.68,202.31 457.74,203.64Z" style="fill:white;fill-rule:nonzero;"/>
                    <path d="M493.75,215.52C500.86,215.99 508,215.78 515.07,214.88C516.68,214.68 518.07,213.65 518.07,211.88C518.07,210.42 516.69,208.68 515.07,208.88C508,209.78 500.86,209.99 493.75,209.52C492.13,209.41 490.75,210.98 490.75,212.52C490.75,214.23 492.12,215.41 493.75,215.52Z" style="fill:white;fill-rule:nonzero;"/>
                    <path d="M501.14,199.78C497.81,213.1 497.86,227.12 501.28,240.42C502.24,244.16 508.03,242.57 507.07,238.82C503.92,226.56 503.86,213.65 506.93,201.37C507.86,197.63 502.08,196.03 501.14,199.78Z" style="fill:white;fill-rule:nonzero;"/>
                    <path d="M508.21,228.4C506.74,230.62 505.02,232.63 503.07,234.44C501.58,235.82 499.57,237.69 497.46,237.63C496.37,237.6 495.18,237.15 494.18,236.73C493.98,236.65 493.63,236.5 493.56,236.45C493.35,236.31 493.4,236.12 493.41,235.9C493.44,234.36 494.75,232.23 495.89,230.91C499.06,227.24 503.7,225.24 508.49,224.8C510.82,224.58 513.84,224.29 516.07,225.15C516.25,225.22 517.05,225.74 516.78,225.53C516.98,225.69 517.16,225.88 517.33,226.06C517.7,226.46 517,225.52 517.53,226.3C518.04,227.07 518.23,227.54 518.43,228.66C518.53,229.24 518.4,227.98 518.46,228.99C518.48,229.32 518.49,229.64 518.48,229.97C518.46,230.65 518.5,230.43 518.34,231.12C518.07,232.29 517.56,233.32 516.9,234.33C515.38,236.67 513.15,238.53 511.06,240.34C509.84,241.4 509.97,243.49 511.06,244.58C512.27,245.79 514.08,245.65 515.3,244.58C520.08,240.42 525.17,235.23 524.38,228.34C524.03,225.28 522.7,222.45 520.16,220.62C517.29,218.55 513.19,218.54 509.8,218.7C503.05,219.03 496.15,221.43 491.63,226.66C489.49,229.14 487.51,232.35 487.4,235.72C487.34,237.43 487.88,239.16 489.05,240.43C490.37,241.85 492.35,242.5 494.15,243.05C502.39,245.59 509.32,237.57 513.39,231.42C514.28,230.07 513.66,228.1 512.31,227.32C510.84,226.47 509.1,227.05 508.21,228.4Z" style="fill:white;fill-rule:nonzero;"/>
                    <path d="M551.46,214.24C553.67,213.89 555.87,213.53 558.08,213.18C559.11,213.01 560.14,212.85 561.17,212.68C561.76,212.59 562.35,212.49 562.94,212.4C563.23,212.35 563.53,212.31 563.82,212.26C564.42,212.19 564.41,212.16 563.79,212.17C563.35,211.91 562.91,211.66 562.47,211.4C562.52,211.46 562.58,211.51 562.63,211.57C562.37,211.13 562.12,210.69 561.86,210.25C562.22,208.89 562.23,208.52 561.89,209.14L560.45,211.21C559.8,212.13 559.15,213.05 558.49,213.96C557.17,215.78 555.83,217.59 554.45,219.36C551.77,222.83 548.98,226.21 546.1,229.51C545.04,230.73 544.9,232.55 546.1,233.75C547.19,234.84 549.27,234.98 550.34,233.75C555.53,227.78 560.44,221.55 565.01,215.09C566.09,213.57 567.72,211.85 567.8,209.89C567.85,208.61 567.22,207.33 566.09,206.67C564.85,205.94 563.54,206.24 562.21,206.45C558.09,207.11 553.97,207.77 549.85,208.44C548.25,208.7 547.36,210.69 547.75,212.13C548.24,213.85 549.85,214.5 551.46,214.24Z" style="fill:white;fill-rule:nonzero;"/>
                    <path d="M550.37,233.64C554.07,231.08 558.14,229.29 562.55,228.38C566.12,227.65 570.9,227.59 572.66,230.96C573.28,232.15 573.09,233.81 572.34,235.19C571.43,236.87 569.94,238.01 568.29,238.91C566.49,239.89 564.38,240.76 562.35,241.11C561.68,241.23 560.89,241.22 560.44,240.98C560.37,240.94 560.03,240.71 560.08,240.75C559.32,240.02 559.97,240.46 559.97,240.51C559.95,240.83 560.08,240.25 560.08,240.26C561.51,237.33 565.61,237.49 566.58,240.66C567.7,244.34 573.5,242.77 572.37,239.06C570.36,232.47 562.43,230.05 557.12,234.45C554.58,236.56 553.03,240.38 554.74,243.47C556.58,246.81 560.48,247.58 563.95,246.89C566.94,246.29 570.17,244.96 572.7,243.26C575.44,241.42 577.61,238.91 578.59,235.71C580.63,228.99 575.47,223.13 568.98,222.17C561.57,221.08 553.37,224.3 547.36,228.46C546.03,229.38 545.42,231.09 546.28,232.56C547.03,233.89 549.03,234.57 550.37,233.64Z" style="fill:white;fill-rule:nonzero;"/>
                    <path d="M605.23,218.45C606.66,218.2 607.33,218.12 608.92,218C610.27,217.9 611.62,217.86 612.97,217.88C614.32,217.9 615.67,217.98 617.01,218.12C617.33,218.15 617.65,218.19 617.97,218.23C617.49,218.17 618.36,218.29 618.45,218.3C619.19,218.42 619.93,218.55 620.67,218.7C622.2,219.01 623.98,218.26 624.36,216.6C624.7,215.1 623.91,213.25 622.26,212.91C616.08,211.64 609.83,211.57 603.62,212.64C602.07,212.91 601.06,214.89 601.52,216.33C602.08,218.02 603.57,218.73 605.23,218.45Z" style="fill:white;fill-rule:nonzero;"/>
                    <path d="M598.75,237.31C600.45,239.56 602.52,241.2 605.17,242.2C607.82,243.2 610.76,243.35 613.57,243.32C618.52,243.27 623.76,242.42 627.47,238.88C630.27,236.21 626.03,231.98 623.23,234.64C620.95,236.81 617.24,237.25 613.94,237.31C610.38,237.38 606.11,237.15 603.93,234.27C602.95,232.98 601.34,232.31 599.83,233.19C598.56,233.95 597.77,236.01 598.75,237.31Z" style="fill:white;fill-rule:nonzero;"/>
                    <path d="M605.23,218.45C606.66,218.2 607.33,218.12 608.92,218C610.27,217.9 611.62,217.86 612.97,217.88C614.32,217.9 615.67,217.98 617.01,218.12C617.33,218.15 617.65,218.19 617.97,218.23C617.49,218.17 618.36,218.29 618.45,218.3C619.19,218.42 619.93,218.55 620.67,218.7C622.2,219.01 623.98,218.26 624.36,216.6C624.7,215.1 623.91,213.25 622.26,212.91C616.08,211.64 609.83,211.57 603.62,212.64C602.07,212.91 601.06,214.89 601.52,216.33C602.08,218.02 603.57,218.73 605.23,218.45Z" style="fill:white;fill-rule:nonzero;"/>
                    <path d="M598.75,237.31C600.45,239.56 602.52,241.2 605.17,242.2C607.82,243.2 610.76,243.35 613.57,243.32C618.52,243.27 623.76,242.42 627.47,238.88C630.27,236.21 626.03,231.98 623.23,234.64C620.95,236.81 617.24,237.25 613.94,237.31C610.38,237.38 606.11,237.15 603.93,234.27C602.95,232.98 601.34,232.31 599.83,233.19C598.56,233.95 597.77,236.01 598.75,237.31Z" style="fill:white;fill-rule:nonzero;"/>
                    <path d="M605.23,218.45C606.66,218.2 607.33,218.12 608.92,218C610.27,217.9 611.62,217.86 612.97,217.88C614.32,217.9 615.67,217.98 617.01,218.12C617.33,218.15 617.65,218.19 617.97,218.23C617.49,218.17 618.36,218.29 618.45,218.3C619.19,218.42 619.93,218.55 620.67,218.7C622.2,219.01 623.98,218.26 624.36,216.6C624.7,215.1 623.91,213.25 622.26,212.91C616.08,211.64 609.83,211.57 603.62,212.64C602.07,212.91 601.06,214.89 601.52,216.33C602.08,218.02 603.57,218.73 605.23,218.45Z" style="fill:white;fill-rule:nonzero;"/>
                    <path d="M598.75,237.31C600.45,239.56 602.52,241.2 605.17,242.2C607.82,243.2 610.76,243.35 613.57,243.32C618.52,243.27 623.76,242.42 627.47,238.88C630.27,236.21 626.03,231.98 623.23,234.64C620.95,236.81 617.24,237.25 613.94,237.31C610.38,237.38 606.11,237.15 603.93,234.27C602.95,232.98 601.34,232.31 599.83,233.19C598.56,233.95 597.77,236.01 598.75,237.31Z" style="fill:white;fill-rule:nonzero;"/>
                    <path d="M605.23,218.45C606.66,218.2 607.33,218.12 608.92,218C610.27,217.9 611.62,217.86 612.97,217.88C614.32,217.9 615.67,217.98 617.01,218.12C617.33,218.15 617.65,218.19 617.97,218.23C617.49,218.17 618.36,218.29 618.45,218.3C619.19,218.42 619.93,218.55 620.67,218.7C622.2,219.01 623.98,218.26 624.36,216.6C624.7,215.1 623.91,213.25 622.26,212.91C616.08,211.64 609.83,211.57 603.62,212.64C602.07,212.91 601.06,214.89 601.52,216.33C602.08,218.02 603.57,218.73 605.23,218.45Z" style="fill:white;fill-rule:nonzero;"/>
                    <path d="M598.75,237.31C600.45,239.56 602.52,241.2 605.17,242.2C607.82,243.2 610.76,243.35 613.57,243.32C618.52,243.27 623.76,242.42 627.47,238.88C630.27,236.21 626.03,231.98 623.23,234.64C620.95,236.81 617.24,237.25 613.94,237.31C610.38,237.38 606.11,237.15 603.93,234.27C602.95,232.98 601.34,232.31 599.83,233.19C598.56,233.95 597.77,236.01 598.75,237.31Z" style="fill:white;fill-rule:nonzero;"/>
                    <g>
                        <g>
                            <path d="M626.23,207.79C630.09,207.79 630.1,201.79 626.23,201.79C622.37,201.79 622.36,207.79 626.23,207.79Z" style="fill:white;fill-rule:nonzero;"/>
                        </g>
                    </g>
                    <g>
                        <g>
                            <path d="M636.05,207.46C639.91,207.46 639.92,201.46 636.05,201.46C632.19,201.46 632.18,207.46 636.05,207.46Z" style="fill:white;fill-rule:nonzero;"/>
                        </g>
                    </g>
                    <path d="M664.51,200.24C662.26,200.44 660.02,200.65 657.77,200.85C655.47,201.06 652.99,201.04 650.88,202.08C648.8,203.1 648.11,205.11 647.49,207.17C647.36,207.59 647.23,208.01 647.08,208.42C647,208.64 646.87,208.96 647.04,208.57C646.95,208.78 646.86,208.98 646.76,209.18C646.55,209.59 646.29,209.96 646.07,210.35C645.93,210.6 646.29,210.15 645.93,210.52C645.73,210.73 645.53,210.95 645.31,211.15C644.18,212.24 644.13,214.31 645.31,215.39C646.53,216.51 648.34,216.55 649.55,215.39C651.06,213.94 652.03,212.19 652.77,210.26C653.05,209.52 653.27,208.76 653.49,208.01C653.54,207.82 653.6,207.64 653.65,207.46C653.74,207.11 653.72,207.35 653.6,207.54C653.69,207.4 653.97,207.1 653.75,207.25C653.65,207.32 653.18,207.64 653.67,207.38C653.95,207.23 653.91,207.33 653.67,207.38C653.89,207.34 654.11,207.25 654.34,207.21C654.39,207.2 654.95,207.1 654.65,207.15C654.29,207.21 655.05,207.11 655.12,207.1C656.11,207 657.11,206.92 658.1,206.83C660.23,206.64 662.37,206.44 664.5,206.25C666.06,206.11 667.58,204.97 667.5,203.25C667.44,201.73 666.18,200.09 664.51,200.24Z" style="fill:white;fill-rule:nonzero;"/>
                    <path d="M685.4,200.19C681.74,200.06 677.84,200.92 674.72,202.89C673.15,203.88 671.92,205.11 670.85,206.62C670.4,207.25 669.96,207.9 669.55,208.55C669.33,208.89 670.02,208.02 669.54,208.56C669.42,208.7 669.29,208.85 669.16,208.98C669.03,209.12 668.88,209.25 668.74,209.38C668.31,209.81 669.15,209.11 668.57,209.5C667.28,210.38 666.57,212.18 667.49,213.6C668.32,214.89 670.21,215.62 671.59,214.68C673.17,213.6 674.28,212.24 675.33,210.65C675.51,210.37 675.69,210.09 675.88,209.82C675.94,209.73 676.01,209.64 676.07,209.55C676.2,209.37 676.15,209.43 675.94,209.71C675.96,209.61 676.16,209.44 676.23,209.36C676.46,209.1 676.7,208.86 676.95,208.63C677.02,208.57 677.47,208.16 677.14,208.46C676.81,208.76 677.32,208.33 677.36,208.31C677.95,207.9 678.58,207.55 679.24,207.25C679.38,207.18 679.9,207.02 679.29,207.23C679.48,207.17 679.67,207.09 679.85,207.02C680.2,206.9 680.55,206.79 680.9,206.69C681.3,206.58 681.71,206.48 682.11,206.4C682.32,206.36 682.53,206.33 682.73,206.29C683.18,206.19 682.01,206.36 682.81,206.28C683.66,206.2 684.51,206.16 685.37,206.19C686.94,206.24 688.44,204.77 688.37,203.19C688.33,201.51 687.09,200.24 685.4,200.19Z" style="fill:white;fill-rule:nonzero;"/>
                    <path d="M682.3,207.65L681.95,207.65C681.54,207.63 681.15,207.72 680.79,207.91C680.42,208.03 680.1,208.24 679.82,208.53C679.53,208.8 679.32,209.12 679.2,209.5C679.01,209.86 678.93,210.24 678.94,210.66C678.98,210.93 679.01,211.19 679.05,211.46C679.19,211.97 679.45,212.41 679.82,212.78C680.02,212.94 680.22,213.09 680.43,213.25C680.9,213.52 681.4,213.66 681.94,213.66L682.29,213.66C682.7,213.68 683.09,213.59 683.45,213.4C683.82,213.28 684.14,213.07 684.42,212.78C684.71,212.51 684.92,212.19 685.04,211.81C685.23,211.45 685.31,211.07 685.3,210.65C685.26,210.38 685.23,210.12 685.19,209.85C685.05,209.34 684.79,208.9 684.42,208.53C684.22,208.37 684.02,208.22 683.81,208.06C683.35,207.79 682.84,207.65 682.3,207.65Z" style="fill:white;fill-rule:nonzero;"/>
                    <path d="M659.28,207.89L658.93,207.89C658.52,207.87 658.13,207.96 657.77,208.15C657.4,208.27 657.08,208.48 656.8,208.77C656.51,209.04 656.3,209.36 656.18,209.74C655.99,210.1 655.91,210.48 655.92,210.9C655.96,211.17 655.99,211.43 656.03,211.7C656.17,212.21 656.43,212.65 656.8,213.02C657,213.18 657.2,213.33 657.41,213.49C657.88,213.76 658.38,213.9 658.92,213.9L659.27,213.9C659.68,213.92 660.07,213.83 660.43,213.64C660.8,213.52 661.12,213.31 661.4,213.02C661.69,212.75 661.9,212.43 662.02,212.05C662.21,211.69 662.29,211.31 662.28,210.89C662.24,210.62 662.21,210.36 662.17,210.09C662.03,209.58 661.77,209.14 661.4,208.77C661.2,208.61 661,208.46 660.79,208.3C660.33,208.02 659.82,207.89 659.28,207.89Z" style="fill:white;fill-rule:nonzero;"/>
                    <path d="M651.89,219.29C651.55,222.65 651.22,226.04 651.41,229.43C651.58,232.6 651.96,236.46 654.09,238.98C656.3,241.61 660.4,241.17 663.51,241.22C666.9,241.28 670.29,241.18 673.66,240.91C675.32,240.78 677.15,240.8 678.67,240.06C680.18,239.33 681.17,237.92 681.49,236.29C681.8,234.71 681.67,233.06 681.65,231.45C681.62,229.7 681.6,227.96 681.57,226.21C681.52,222.96 681.35,219.47 679.13,216.88C677.01,214.41 673.64,213.97 670.59,213.7C666.81,213.36 662.94,213.72 659.27,214.63C655.83,215.49 652.11,216.96 652.04,221.1C651.98,224.96 657.98,224.96 658.04,221.1C658.04,221.13 657.94,221.42 657.88,221.44C658.06,221.39 658.17,221.18 657.84,221.42C657.57,221.61 658.06,221.29 658.12,221.25C658.51,220.99 657.74,221.38 658.15,221.21C659.42,220.7 660.82,220.39 662.16,220.11C664.5,219.63 666.89,219.48 669.27,219.6C670.34,219.65 671.42,219.74 672.47,219.94C673.43,220.13 674.17,220.27 674.64,220.84C675.63,222.02 675.53,224.32 675.56,225.97C675.61,228.67 675.7,231.37 675.68,234.07C675.68,234.32 675.64,235.19 675.63,235.01C675.6,235.12 675.57,235.22 675.54,235.33C675.63,235.17 675.72,235 675.82,234.84C675.87,234.73 676,234.74 676.06,234.66C675.98,234.77 675.57,234.76 675.95,234.7C675.57,234.76 675.18,234.77 674.8,234.81C674.11,234.87 673.42,234.93 672.73,234.97C669.97,235.16 667.19,235.24 664.42,235.22C663.19,235.21 661.96,235.18 660.73,235.12C660.06,235.09 659.38,235.09 658.71,235.01C658.49,234.98 658.68,234.89 658.49,234.97C658.22,235.09 658.39,234.8 658.53,234.97C658.75,235.24 658.36,234.63 658.34,234.57C658.26,234.4 658.24,234.29 658.17,234.06C657.97,233.4 657.82,232.73 657.7,232.05C657.46,230.74 657.39,229.41 657.36,228.08C657.31,225.13 657.6,222.19 657.89,219.26C658.05,217.65 656.4,216.26 654.89,216.26C653.14,216.29 652.05,217.67 651.89,219.29Z" style="fill:white;fill-rule:nonzero;"/>
                    <path d="M656.57,240.13C656.45,240.66 656.28,241.18 656.07,241.68C656.17,241.44 656.27,241.2 656.37,240.96C656.04,241.71 655.63,242.41 655.13,243.06C655.29,242.86 655.44,242.66 655.6,242.45C655.05,243.16 654.42,243.79 653.71,244.34C653.91,244.18 654.11,244.03 654.32,243.87C653.64,244.39 652.9,244.82 652.11,245.15C652.35,245.05 652.59,244.95 652.83,244.85C652.07,245.16 651.29,245.38 650.48,245.49C649.79,245.58 649.02,246.3 648.69,246.87C648.31,247.51 648.15,248.46 648.39,249.18C648.62,249.91 649.07,250.61 649.77,250.97C650.01,251.07 650.25,251.17 650.49,251.27C651.02,251.41 651.55,251.41 652.09,251.27C654.54,250.94 656.83,249.67 658.65,248.02C660.46,246.37 661.83,244.1 662.38,241.72C662.56,240.94 662.49,240.11 662.08,239.41C661.72,238.79 661,238.19 660.29,238.03C658.73,237.68 656.95,238.49 656.57,240.13Z" style="fill:white;fill-rule:nonzero;"/>
                    <path d="M671.8,242.01C673.38,244.32 675.01,246.53 677.25,248.24C678.32,249.05 679.52,249.66 680.8,250.09C682.37,250.61 683.94,250.62 685.55,250.39C686.24,250.29 687.01,249.58 687.34,249.01C687.72,248.37 687.88,247.42 687.64,246.7C687.41,245.97 686.96,245.27 686.26,244.91C685.5,244.51 684.79,244.49 683.95,244.61C683.89,244.62 683.84,244.63 683.78,244.63C684.05,244.59 684.31,244.56 684.58,244.52C684.06,244.58 683.55,244.57 683.03,244.52C683.3,244.56 683.56,244.59 683.83,244.63C683.37,244.57 682.92,244.47 682.48,244.33C682.37,244.29 682.26,244.26 682.15,244.22C681.85,244.11 681.93,244.14 682.38,244.33C682.19,244.21 681.95,244.13 681.75,244.02C681.39,243.83 681.04,243.61 680.7,243.38C680.6,243.31 680.51,243.24 680.42,243.17C680.8,243.46 680.86,243.51 680.61,243.31C680.43,243.15 680.25,243 680.08,242.84C679.73,242.52 679.4,242.17 679.09,241.82C678.82,241.51 678.59,241.14 678.29,240.86C678.58,241.23 678.62,241.29 678.43,241.04C678.36,240.94 678.29,240.85 678.22,240.75C678.08,240.56 677.94,240.36 677.8,240.17C677.52,239.78 677.25,239.39 676.98,238.99C676.1,237.7 674.3,236.99 672.88,237.91C671.58,238.74 670.85,240.63 671.8,242.01Z" style="fill:white;fill-rule:nonzero;"/>
                    <path d="M703.07,209.03C705.75,208.92 708.43,208.94 711.1,209.11C711.44,209.13 711.79,209.16 712.13,209.18C712.3,209.19 712.47,209.21 712.65,209.22C712.99,209.25 712.93,209.24 712.49,209.18C712.74,209.09 713.49,209.62 712.77,209.19C712.45,208.9 712.4,208.87 712.62,209.08C712.35,208.7 712.31,208.65 712.48,208.92C712.62,209.21 712.6,209.14 712.41,208.72C712.45,208.84 712.49,208.96 712.52,209.09C712.57,209.29 712.83,210.17 712.58,209.24C712.74,209.84 712.71,210.56 712.74,211.18C712.79,212.47 712.85,213.92 712.58,215.19C712.74,214.45 712.52,215.54 712.5,215.67C712.45,215.97 712.4,216.26 712.32,216.56C712.26,216.79 711.92,217.53 712.3,216.75C712.13,217.02 712.19,216.98 712.45,216.61C712.27,216.78 712.27,216.79 712.45,216.62C712.57,216.49 712.73,216.4 712.91,216.36C712.58,216.43 712.63,216.43 713.06,216.36C712.94,216.47 712.29,216.38 712.13,216.38L710.02,216.38C708.62,216.38 707.21,216.39 705.81,216.39C704.24,216.39 702.74,217.77 702.81,219.39C702.88,221.01 704.13,222.39 705.81,222.39C707.08,222.39 708.36,222.38 709.63,222.38C710.84,222.38 712.08,222.46 713.28,222.33C715.06,222.14 716.68,221.35 717.52,219.69C718.19,218.36 718.35,216.89 718.54,215.44C718.87,212.91 718.89,210.19 718.34,207.68C718.02,206.22 717.17,204.85 715.88,204.07C714.6,203.29 713.06,203.24 711.6,203.14C708.76,202.94 705.9,202.9 703.05,203.02C701.48,203.09 699.98,204.35 700.05,206.02C700.14,207.6 701.39,209.1 703.07,209.03Z" style="fill:white;fill-rule:nonzero;"/>
                    <path d="M698.46,206.79C699.02,219.12 699.13,231.47 698.8,243.81C698.7,247.67 704.7,247.67 704.8,243.81C705.13,231.47 705.02,219.12 704.46,206.79C704.39,205.17 703.13,203.79 701.46,203.79C699.89,203.79 698.38,205.16 698.46,206.79Z" style="fill:white;fill-rule:nonzero;"/>
                    <path d="M736.02,216.19C734.14,216.55 731.78,217.03 730.21,216.07C729.78,215.81 729.44,215.51 729.34,215.04C729.1,213.91 729.43,212.48 729.51,211.34C729.61,210.05 729.71,208.77 729.8,207.48C729.81,207.32 729.82,207.16 729.84,207C729.83,207.04 729.83,207.08 729.82,207.12C729.34,207.47 728.85,207.83 728.37,208.18L728.72,208.18C729.29,208.33 730.09,208.19 730.68,208.19C732.07,208.2 733.45,208.21 734.84,208.22C735.49,208.22 736.14,208.23 736.8,208.23C737.1,208.23 737.4,208.25 737.69,208.24C738.11,208.22 737.52,208.25 737.48,208.22C737.12,207.86 736.76,207.5 736.4,207.14C736.43,207.1 736.43,207.06 736.42,207.02C736.37,206.83 736.37,206.99 736.44,207.49C736.46,207.99 736.49,208.49 736.52,208.98C736.57,209.89 736.62,210.81 736.67,211.72C736.77,213.55 736.86,215.37 736.96,217.2C737.16,220.93 737.36,224.67 737.56,228.4C737.75,231.89 738.11,235.42 738.08,238.91C738.07,239.6 738.05,240.26 737.86,240.92C737.8,241.13 737.75,241.31 737.66,241.51C737.63,241.58 737.24,242.16 737.46,241.87C737.21,242.21 736.85,242.25 736.57,242.46C736.18,242.76 736.31,242.25 736.62,242.54C736.52,242.52 736.42,242.49 736.32,242.47C736.56,242.57 736.52,242.53 736.2,242.35C734.85,241.46 732.88,242.08 732.1,243.43C731.24,244.9 731.82,246.64 733.18,247.53C735.77,249.24 739.17,248.47 741.35,246.47C743.66,244.35 744.16,241.08 744.08,238.1C743.9,231.55 743.39,225 743.04,218.46C742.86,215.06 742.68,211.66 742.5,208.26C742.41,206.59 742.41,204.8 741.14,203.53C739.77,202.16 737.87,202.26 736.09,202.24C734.54,202.23 732.99,202.22 731.44,202.21C729.77,202.2 727.72,201.9 726.2,202.73C724.54,203.64 724.04,205.25 723.87,207.01C723.72,208.62 723.63,210.23 723.51,211.84C723.38,213.62 723.14,215.46 723.77,217.18C724.39,218.86 725.55,220.23 727.07,221.18C730.3,223.21 734.11,222.68 737.65,221.99C739.24,221.68 740.15,219.78 739.75,218.3C739.25,216.62 737.62,215.88 736.02,216.19Z" style="fill:white;fill-rule:nonzero;"/>
                    <path d="M711.12,228.84C711.03,230.68 711.04,232.52 711.15,234.35C711.28,236.47 711.3,238.73 712.75,240.43C713.96,241.86 715.91,242.32 717.68,242.58C719.6,242.86 721.51,242.95 723.44,242.72C725.45,242.48 727.62,242.16 729.05,240.56C730.39,239.06 730.78,237.11 731.04,235.18C731.52,231.62 731.56,226.73 727.83,224.85C725.94,223.9 723.65,223.85 721.57,223.83C719.32,223.8 717.09,224.03 714.87,224.39C713.32,224.64 712.31,226.65 712.77,228.08C713.31,229.76 714.8,230.45 716.46,230.18C716.59,230.16 717.66,230.01 717.03,230.09C717.4,230.05 717.76,230 718.13,229.97C718.86,229.9 719.6,229.86 720.33,229.84C721.02,229.82 721.71,229.83 722.4,229.85C722.77,229.86 723.13,229.88 723.5,229.91C723.85,229.94 724.28,230.06 724.62,230.01C724.52,230.02 723.95,229.88 724.48,230.01C724.59,230.04 724.69,230.06 724.8,230.09C724.91,230.12 725.37,230.2 724.96,230.11C724.57,230.02 724.97,230.15 725.09,230.19C725.44,230.32 724.76,229.83 724.99,230.11C725.2,230.37 724.85,229.88 724.85,229.88C724.86,229.93 725.02,230.15 725.06,230.22C725.39,230.73 724.92,229.66 725.06,230.26C725.11,230.5 725.17,230.73 725.22,230.97C725.31,231.38 725.18,230.38 725.19,230.79C725.19,230.89 725.21,231 725.22,231.1C725.27,231.85 725.28,232.6 725.23,233.35C725.21,233.7 725.17,234.05 725.14,234.4C725.11,234.75 725.15,234.3 725.16,234.26C725.13,234.43 725.11,234.61 725.07,234.78C725.01,235.11 724.95,235.44 724.87,235.76C724.84,235.9 724.8,236.03 724.76,236.17C724.73,236.27 724.52,236.84 724.7,236.41C724.87,236.01 724.66,236.42 724.62,236.52C724.52,236.8 724.72,236.35 724.8,236.33C724.7,236.35 724.62,236.6 724.51,236.62C724.84,236.55 724.85,236.37 724.57,236.51C724.67,236.46 725.18,236.33 724.68,236.45C724.54,236.48 724.4,236.53 724.25,236.56C723.93,236.64 723.61,236.69 723.29,236.74C722.7,236.84 723.17,236.76 723.29,236.74C723.11,236.76 722.93,236.78 722.75,236.8C722.39,236.83 722.03,236.85 721.68,236.87C720.96,236.89 720.24,236.88 719.53,236.82C719.39,236.81 718.34,236.66 718.99,236.77C718.64,236.71 718.28,236.65 717.93,236.58C717.7,236.53 717.47,236.47 717.24,236.4C717.12,236.36 716.74,236.17 717.12,236.38C717.62,236.64 716.94,236.27 716.94,236.26C716.96,236.21 717.48,236.8 717.1,236.35C717.18,236.45 717.25,236.55 717.33,236.64C717.44,236.97 717.46,237.03 717.4,236.82C717.39,236.78 717.38,236.74 717.37,236.71C717.31,236.42 717.3,236.4 717.33,236.64C717.35,236.84 717.35,236.86 717.33,236.68C717.32,236.55 717.3,236.42 717.29,236.29C717.21,235.47 717.15,234.64 717.11,233.81C717.03,232.16 717.04,230.5 717.11,228.85C717.18,227.28 715.68,225.78 714.11,225.85C712.43,225.92 711.2,227.16 711.12,228.84Z" style="fill:white;fill-rule:nonzero;"/>
                    <path d="M664,227.12C664.2,227.08 664.39,227.05 664.59,227.02C664.32,227.06 664.06,227.09 663.79,227.13C664.62,227.02 665.46,227.01 666.3,227.1C666.71,227.12 667.1,227.03 667.46,226.84C667.83,226.72 668.15,226.51 668.43,226.22C668.72,225.95 668.93,225.63 669.05,225.25C669.24,224.89 669.32,224.51 669.31,224.09C669.27,223.82 669.24,223.56 669.2,223.29C669.06,222.78 668.8,222.34 668.43,221.97C668.23,221.81 668.03,221.66 667.82,221.5C667.35,221.23 666.85,221.09 666.31,221.09C665.01,220.95 663.7,221.08 662.41,221.32C662.02,221.41 661.68,221.59 661.39,221.86C661.06,222.07 660.81,222.35 660.62,222.7C660.4,223.04 660.28,223.42 660.26,223.82C660.17,224.22 660.19,224.62 660.31,225.02C660.41,225.26 660.51,225.5 660.61,225.74C660.88,226.19 661.24,226.55 661.69,226.82C661.93,226.92 662.17,227.02 662.41,227.12C662.94,227.26 663.47,227.26 664,227.12Z" style="fill:white;fill-rule:nonzero;"/>
                    <path d="M664.69,233.85C664.98,233.79 665.27,233.75 665.56,233.71C665.29,233.75 665.03,233.78 664.76,233.82C665.64,233.7 666.52,233.66 667.41,233.7C667.82,233.72 668.21,233.63 668.57,233.44C668.94,233.32 669.26,233.11 669.54,232.82C669.83,232.55 670.04,232.23 670.16,231.85C670.35,231.49 670.43,231.11 670.42,230.69C670.39,229.91 670.13,229.11 669.54,228.57C669.34,228.41 669.14,228.26 668.93,228.1C668.46,227.83 667.96,227.69 667.42,227.69C665.97,227.63 664.52,227.79 663.1,228.06C662.71,228.15 662.37,228.33 662.08,228.6C661.75,228.81 661.5,229.09 661.31,229.44C661.09,229.78 660.97,230.16 660.95,230.56C660.86,230.96 660.88,231.36 661,231.76C661.23,232.49 661.68,233.19 662.38,233.55C662.62,233.65 662.86,233.75 663.1,233.85C663.63,234 664.16,234 664.69,233.85Z" style="fill:white;fill-rule:nonzero;"/>
                    <path d="M273.96,243.18C273.02,243.68 272.06,244.14 271.08,244.56C271.68,244.31 272.27,244.06 272.87,243.8C270.29,244.86 267.62,245.59 264.86,245.98C265.52,245.89 266.19,245.8 266.85,245.71C263.9,246.09 260.93,246.08 257.99,245.7C258.65,245.79 259.32,245.88 259.98,245.97C257.03,245.55 254.17,244.76 251.42,243.61C252.02,243.86 252.61,244.11 253.21,244.37C251.25,243.53 249.36,242.53 247.58,241.34C247.1,241.02 246.63,240.67 246.15,240.34C245.43,239.83 247.52,241.43 246.83,240.87C246.6,240.68 246.37,240.5 246.15,240.32C245.29,239.6 244.47,238.84 243.68,238.04C242.93,237.27 242.21,236.47 241.53,235.63C240.73,234.64 241.84,235.86 241.92,236.15C241.87,235.96 241.6,235.72 241.49,235.56C241.14,235.08 240.81,234.59 240.49,234.09C239.26,232.17 238.21,230.14 237.33,228.04C237.58,228.64 237.83,229.23 238.09,229.83C236.58,226.18 235.59,222.35 235.05,218.44C235.14,219.1 235.23,219.77 235.32,220.43C234.73,215.92 234.74,211.36 235.33,206.85C235.24,207.51 235.15,208.18 235.06,208.84C235.65,204.59 236.75,200.43 238.41,196.47C238.16,197.07 237.91,197.66 237.65,198.26C238.71,195.79 239.97,193.42 241.46,191.18C241.84,190.61 242.24,190.06 242.64,189.5C243.36,188.51 241.69,190.68 242.26,189.99C242.45,189.75 242.65,189.51 242.84,189.27C243.7,188.24 244.61,187.24 245.56,186.3C246.46,185.41 247.4,184.56 248.38,183.75C248.61,183.56 248.85,183.38 249.08,183.19C247.31,184.72 248.25,183.82 248.7,183.49C249.18,183.14 249.67,182.8 250.16,182.47C252.31,181.03 254.59,179.82 256.97,178.81C256.37,179.06 255.78,179.31 255.18,179.57C258.16,178.34 261.25,177.48 264.44,177.02C263.78,177.11 263.11,177.2 262.45,177.29C265.47,176.89 268.51,176.87 271.53,177.27C270.87,177.18 270.2,177.09 269.54,177C272.1,177.37 274.59,178.03 276.99,179.02C276.39,178.77 275.8,178.52 275.2,178.26C276.98,179.02 278.69,179.92 280.31,180.98C280.69,181.23 281.07,181.49 281.45,181.76C281.64,181.89 281.82,182.04 282.01,182.17C280.14,180.84 281.03,181.4 281.45,181.75C282.22,182.37 282.95,183.03 283.66,183.72C284.33,184.37 284.97,185.06 285.58,185.77C285.81,186.04 286.97,187.49 286.1,186.38C285.25,185.28 286.25,186.61 286.45,186.91C287.63,188.62 288.63,190.45 289.45,192.36C289.2,191.76 288.95,191.17 288.69,190.57C289.73,193.05 290.43,195.63 290.79,198.3C290.7,197.64 290.61,196.97 290.52,196.31C290.61,197.06 290.68,197.8 290.72,198.56C290.94,202.47 294.01,206.25 298.22,206.06C302.09,205.89 305.96,202.75 305.72,198.56C305.5,194.72 304.84,190.85 303.42,187.26C301.82,183.24 299.83,179.81 297.17,176.41C292.7,170.7 286.5,166.54 279.72,164.07C266.63,159.3 251.12,162.89 240.27,171.2C234.21,175.84 229.07,181.59 225.69,188.48C222.22,195.55 220.32,203.14 219.91,211.01C219.16,225.39 224.04,241.13 235.25,250.68C246.22,260.03 261.92,263.86 275.68,258.71C277.66,257.97 279.63,257.12 281.49,256.12C284.95,254.26 286.32,249.18 284.18,245.86C281.95,242.35 277.66,241.19 273.96,243.18Z" style="fill:rgb(245,241,229);fill-rule:nonzero;"/>
                    <path d="M285.08,252.15C287.92,251.03 290.45,249.6 292.58,247.34C294.36,245.45 295.87,243.26 296.9,240.88C299.26,235.42 300.17,229.37 298.4,223.57C296.77,218.2 293.14,213.19 288.13,210.51C282.5,207.5 275,207.08 269.65,210.99C264.39,214.84 261.79,221.02 261.84,227.48C261.89,233.77 264.56,239.34 268.51,244.1C271.79,248.05 276.21,251.3 280.67,253.81C285.13,256.32 290.01,258.21 294.96,259.48C305.81,262.26 317.17,262.45 328.3,262.29C332.22,262.23 335.98,258.88 335.8,254.79C335.62,250.77 332.5,247.23 328.3,247.29C320.61,247.4 312.89,247.36 305.25,246.34C305.91,246.43 306.58,246.52 307.24,246.61C301.8,245.86 296.44,244.6 291.36,242.5C291.96,242.75 292.55,243 293.15,243.26C291.22,242.45 289.35,241.53 287.54,240.47C286.63,239.94 285.73,239.37 284.86,238.77C284.42,238.47 283.99,238.15 283.55,237.84C282.4,237.01 285.01,239.01 283.63,237.89C282.09,236.64 280.63,235.3 279.34,233.79C279.17,233.6 279.01,233.4 278.85,233.2C279.62,234.22 279.78,234.42 279.32,233.81C279.03,233.39 278.73,232.97 278.46,232.53C277.91,231.64 277.44,230.71 277.03,229.75C277.28,230.35 277.53,230.94 277.79,231.54C277.27,230.23 276.89,228.89 276.69,227.49C276.78,228.15 276.87,228.82 276.96,229.48C276.78,228.02 276.79,226.57 276.98,225.1C276.89,225.76 276.8,226.43 276.71,227.09C276.89,225.89 277.19,224.74 277.63,223.61C277.38,224.21 277.13,224.8 276.87,225.4C277.07,224.92 277.3,224.44 277.56,223.99C277.67,223.79 277.79,223.6 277.92,223.41C278.31,222.82 278.81,222.71 277.46,223.98C277.66,223.79 278.12,223.06 278.4,223.04C278.11,223.06 276.9,224.05 278.07,223.36C278.36,223.19 278.66,223.04 278.97,222.89C278.37,223.14 277.78,223.39 277.18,223.65C278.05,223.29 278.92,223.06 279.85,222.93C279.19,223.02 278.52,223.11 277.86,223.2C278.71,223.12 279.53,223.12 280.37,223.21C279.71,223.12 279.04,223.03 278.38,222.94C279.45,223.09 280.47,223.37 281.46,223.79C280.86,223.54 280.27,223.29 279.67,223.03C280.37,223.35 281.01,223.74 281.67,224.13C282.71,224.76 280.09,222.76 281.47,223.98C281.77,224.24 282.05,224.51 282.33,224.8C282.61,225.09 282.84,225.42 283.12,225.7C281.56,224.14 282.47,224.83 282.87,225.45C283.36,226.2 283.77,226.99 284.12,227.81C283.87,227.21 283.62,226.62 283.36,226.02C283.88,227.29 284.24,228.59 284.45,229.94C284.36,229.28 284.27,228.61 284.18,227.95C284.38,229.5 284.36,231.05 284.15,232.6C284.24,231.94 284.33,231.27 284.42,230.61C284.18,232.16 283.77,233.66 283.17,235.11C283.42,234.51 283.67,233.92 283.93,233.32C283.56,234.19 283.14,235.03 282.64,235.83C282.46,236.12 282.26,236.41 282.07,236.69C281.36,237.73 283.42,235.12 282.18,236.5C281.88,236.83 281.57,237.14 281.25,237.44C280.75,237.9 279.86,238.24 281.77,237.09C281.04,237.53 280.37,237.99 279.58,238.33C280.18,238.08 280.77,237.83 281.37,237.57C281.27,237.61 281.18,237.65 281.08,237.68C279.2,238.42 277.65,239.32 276.6,241.13C275.66,242.74 275.26,245.11 275.84,246.91C276.43,248.72 277.55,250.48 279.29,251.39C280.97,252.28 283.23,252.87 285.08,252.15Z" style="fill:rgb(245,241,229);fill-rule:nonzero;"/>
                    <path d="M799.04,252.64C809.43,232.59 821.39,213.37 834.75,195.16C836.68,192.54 838.63,189.93 840.61,187.35C840.8,187.11 841,186.86 841.18,186.61C839.93,188.36 840.89,186.99 841.15,186.66C841.63,186.05 842.11,185.44 842.59,184.82C843.07,184.21 843.55,183.6 844.04,182.99C844.25,182.72 844.46,182.45 844.69,182.2C845.78,180.97 843.31,182.91 844.51,182.36C843.91,182.61 843.32,182.86 842.72,183.12C842.94,183.04 843.16,182.99 843.39,182.98C842.73,183.07 842.06,183.16 841.4,183.25L841.72,183.25C841.06,183.16 840.39,183.07 839.73,182.98C840.07,183.03 840.34,183.11 840.66,183.24C840.06,182.99 839.47,182.74 838.87,182.48C839.92,183.05 837.87,181.45 838.32,181.99C839.13,182.95 838.24,181.56 837.98,181.42C838.35,181.62 838.68,182.58 838.86,182.95C839.52,184.37 840.12,185.83 840.74,187.28C840.49,186.68 840.24,186.09 839.98,185.49C846.31,200.53 851.2,216.16 854.45,232.15C855.36,236.63 856.14,241.14 856.8,245.67C857.05,247.4 858.81,249.31 860.25,250.15C861.86,251.09 864.23,251.49 866.03,250.91C867.84,250.32 869.6,249.2 870.51,247.46C871.52,245.56 871.57,243.79 871.27,241.68C868.02,219.37 861.57,197.76 852.57,177.11C851.23,174.03 849.47,171.22 846.43,169.53C842.06,167.1 836.67,168.36 833.58,172.21C829.84,176.89 826.2,181.65 822.64,186.47C816.18,195.22 810.04,204.2 804.24,213.4C797.75,223.7 791.7,234.26 786.11,245.07C784.31,248.55 785.1,253.37 788.8,255.33C792.22,257.15 797.11,256.36 799.04,252.64Z" style="fill:rgb(245,241,229);fill-rule:nonzero;"/>
                    <path d="M779.42,218.84C797.65,218.8 815.88,219.19 834.09,220.04C839.22,220.28 844.35,220.56 849.47,220.86C853.39,221.1 857.14,217.24 856.97,213.36C856.78,209.09 853.67,206.11 849.47,205.86C831.28,204.76 813.06,204.1 794.83,203.9C789.69,203.84 784.56,203.82 779.42,203.83C775.5,203.84 771.74,207.27 771.92,211.33C772.1,215.4 775.21,218.85 779.42,218.84Z" style="fill:rgb(245,241,229);fill-rule:nonzero;"/>
                    <g>
                        <g>
                            <path d="M899.6,251.54C903.52,251.54 907.28,248.09 907.1,244.04C906.92,239.98 903.8,236.54 899.6,236.54C895.68,236.54 891.92,239.99 892.1,244.04C892.28,248.1 895.39,251.54 899.6,251.54Z" style="fill:rgb(245,241,229);fill-rule:nonzero;"/>
                        </g>
                    </g>
                    <path d="M353.62,247.98C353.39,247.95 353.17,247.91 352.94,247.88C351.94,247.57 350.95,247.52 349.95,247.75C348.95,247.8 348.02,248.09 347.16,248.64C346.29,249.11 345.58,249.76 345.06,250.57C344.4,251.29 343.95,252.14 343.72,253.12C343.63,253.78 343.54,254.45 343.45,255.11C343.45,256.46 343.8,257.73 344.47,258.9C344.86,259.41 345.25,259.91 345.64,260.42C346.58,261.35 347.68,261.99 348.95,262.35C349.18,262.38 349.4,262.42 349.63,262.45C350.63,262.76 351.62,262.81 352.62,262.58C353.62,262.53 354.55,262.24 355.41,261.69C356.28,261.22 356.99,260.57 357.51,259.76C358.17,259.04 358.62,258.19 358.85,257.21C358.94,256.55 359.03,255.88 359.12,255.22C359.12,253.87 358.77,252.6 358.1,251.43C357.71,250.92 357.32,250.42 356.93,249.91C356,248.98 354.89,248.33 353.62,247.98Z" style="fill:rgb(245,241,229);fill-rule:nonzero;"/>
                </g>
            </g>
        </g>
    </g>
</svg>
