<?xml version="1.0" encoding="UTF-8" standalone="no"?>
<!DOCTYPE svg PUBLIC "-//W3C//DTD SVG 1.1//EN" "http://www.w3.org/Graphics/SVG/1.1/DTD/svg11.dtd">
<svg width="100%" height="100%" viewBox="0 0 304 49" version="1.1" xmlns="http://www.w3.org/2000/svg" xmlns:xlink="http://www.w3.org/1999/xlink" xml:space="preserve" xmlns:serif="http://www.serif.com/" style="fill-rule:evenodd;clip-rule:evenodd;stroke-linejoin:round;stroke-miterlimit:2;">
    <g transform="matrix(1,0,0,1,-568.148,-135.636)">
        <g transform="matrix(1,0,0,15.2022,0,0)">
            <g transform="matrix(0.845221,0,0,0.0657799,116.758,-2.63119)">
                <g transform="matrix(26.0109,-9.62605,11.3888,21.985,535.646,225.857)">
                    <path d="M0.625,-0.462C0.68,-0.462 0.735,-0.46 0.787,-0.458C0.862,-0.454 0.867,-0.552 0.79,-0.553C0.737,-0.554 0.681,-0.553 0.624,-0.553C0.623,-0.61 0.622,-0.659 0.622,-0.687C0.622,-0.75 0.521,-0.757 0.525,-0.683C0.526,-0.657 0.528,-0.609 0.53,-0.552C0.422,-0.551 0.313,-0.549 0.213,-0.545C0.139,-0.542 0.149,-0.45 0.216,-0.453C0.3,-0.456 0.389,-0.459 0.478,-0.461C0.393,-0.332 0.281,-0.222 0.142,-0.15C0.079,-0.117 0.128,-0.022 0.211,-0.075C0.347,-0.162 0.43,-0.242 0.536,-0.38C0.539,-0.275 0.542,-0.171 0.543,-0.112C0.544,-0.059 0.491,-0.065 0.45,-0.078C0.387,-0.098 0.35,0.005 0.441,0.021C0.598,0.048 0.641,-0.015 0.639,-0.092C0.638,-0.119 0.638,-0.136 0.636,-0.167C0.631,-0.242 0.627,-0.357 0.625,-0.462Z" style="fill:rgb(221,125,140);fill-rule:nonzero;"/>
                </g>
                <g transform="matrix(26.9959,-7.44065,8.8032,22.8175,561.692,216.254)">
                    <path d="M0.866,-0.513C0.91,-0.592 0.807,-0.634 0.775,-0.572C0.674,-0.376 0.472,-0.169 0.271,-0.118C0.188,-0.097 0.22,0.017 0.305,-0.01C0.535,-0.083 0.742,-0.288 0.866,-0.513ZM0.449,-0.432C0.465,-0.455 0.467,-0.493 0.436,-0.515C0.388,-0.549 0.313,-0.576 0.26,-0.591C0.184,-0.612 0.159,-0.511 0.219,-0.497C0.266,-0.486 0.33,-0.457 0.367,-0.423C0.398,-0.395 0.433,-0.409 0.449,-0.432Z" style="fill:rgb(221,125,140);fill-rule:nonzero;"/>
                </g>
                <g transform="matrix(27.5754,-5.72449,6.77277,23.3073,588.713,208.807)">
                    <path d="M0.719,-0.652C0.719,-0.676 0.699,-0.698 0.665,-0.698C0.564,-0.697 0.424,-0.697 0.328,-0.698C0.251,-0.699 0.255,-0.607 0.321,-0.605C0.429,-0.602 0.567,-0.605 0.661,-0.605C0.702,-0.605 0.719,-0.628 0.719,-0.652ZM0.783,-0.358C0.824,-0.456 0.775,-0.512 0.675,-0.513C0.539,-0.514 0.371,-0.513 0.242,-0.51C0.165,-0.508 0.174,-0.413 0.245,-0.416C0.352,-0.42 0.538,-0.423 0.64,-0.421C0.678,-0.42 0.683,-0.404 0.673,-0.377C0.628,-0.25 0.501,-0.129 0.304,-0.076C0.224,-0.055 0.261,0.044 0.343,0.019C0.591,-0.057 0.713,-0.191 0.783,-0.358Z" style="fill:rgb(221,125,140);fill-rule:nonzero;"/>
                </g>
                <g transform="matrix(27.9494,-4.23511,5.01066,23.6234,616.322,203.155)">
                    <path d="M0.489,-0.373C0.488,-0.256 0.484,-0.093 0.483,-0.013C0.482,0.069 0.59,0.06 0.588,-0.016C0.585,-0.116 0.587,-0.378 0.59,-0.48C0.633,-0.53 0.676,-0.584 0.721,-0.644C0.764,-0.702 0.676,-0.766 0.632,-0.697C0.519,-0.519 0.328,-0.335 0.144,-0.245C0.076,-0.212 0.128,-0.11 0.22,-0.166C0.324,-0.229 0.41,-0.296 0.489,-0.373Z" style="fill:rgb(221,125,140);fill-rule:nonzero;"/>
                </g>
                <g transform="matrix(28.2271,-2.60574,3.08291,23.8581,644.288,198.97)">
                    <path d="M0.866,-0.513C0.91,-0.592 0.807,-0.634 0.775,-0.572C0.674,-0.376 0.472,-0.169 0.271,-0.118C0.188,-0.097 0.22,0.017 0.305,-0.01C0.535,-0.083 0.742,-0.288 0.866,-0.513ZM0.449,-0.432C0.465,-0.455 0.467,-0.493 0.436,-0.515C0.388,-0.549 0.313,-0.576 0.26,-0.591C0.184,-0.612 0.159,-0.511 0.219,-0.497C0.266,-0.486 0.33,-0.457 0.367,-0.423C0.398,-0.395 0.433,-0.409 0.449,-0.432Z" style="fill:rgb(221,125,140);fill-rule:nonzero;"/>
                </g>
                <g transform="matrix(28.3554,-1.26591,1.49772,23.9666,672.531,196.348)">
                    <path d="M0.821,-0.204C0.853,-0.204 0.868,-0.226 0.868,-0.249C0.868,-0.272 0.852,-0.295 0.82,-0.295L0.634,-0.294C0.634,-0.339 0.635,-0.381 0.635,-0.411L0.651,-0.411C0.683,-0.411 0.698,-0.433 0.698,-0.455L0.698,-0.457C0.761,-0.407 0.84,-0.355 0.881,-0.355C0.914,-0.355 0.937,-0.381 0.937,-0.407C0.937,-0.423 0.927,-0.44 0.905,-0.449C0.858,-0.468 0.814,-0.492 0.772,-0.52C0.844,-0.573 0.877,-0.608 0.877,-0.63C0.877,-0.656 0.85,-0.681 0.825,-0.681C0.813,-0.681 0.802,-0.676 0.793,-0.664C0.773,-0.637 0.735,-0.599 0.701,-0.572C0.684,-0.586 0.669,-0.599 0.653,-0.614C0.674,-0.631 0.751,-0.696 0.751,-0.73C0.751,-0.756 0.725,-0.78 0.699,-0.78C0.687,-0.78 0.675,-0.775 0.666,-0.761C0.651,-0.737 0.621,-0.702 0.592,-0.674C0.578,-0.689 0.565,-0.704 0.552,-0.719C0.544,-0.728 0.535,-0.733 0.525,-0.733C0.512,-0.788 0.461,-0.789 0.397,-0.789L0.256,-0.789C0.228,-0.789 0.214,-0.768 0.214,-0.746C0.214,-0.725 0.228,-0.704 0.256,-0.704C0.313,-0.704 0.36,-0.705 0.397,-0.706C0.407,-0.706 0.413,-0.703 0.413,-0.696C0.413,-0.685 0.301,-0.518 0.093,-0.43C0.072,-0.421 0.063,-0.404 0.063,-0.387C0.063,-0.362 0.082,-0.338 0.109,-0.338C0.131,-0.338 0.211,-0.376 0.289,-0.434C0.296,-0.421 0.309,-0.411 0.331,-0.411L0.343,-0.411L0.343,-0.294L0.177,-0.295C0.146,-0.295 0.13,-0.271 0.13,-0.247C0.13,-0.225 0.144,-0.204 0.176,-0.204L0.177,-0.204L0.336,-0.207C0.32,-0.116 0.269,-0.045 0.118,-0.024C0.094,-0.021 0.082,-0 0.082,0.02C0.082,0.045 0.099,0.07 0.134,0.07C0.139,0.07 0.145,0.069 0.151,0.068C0.35,0.027 0.414,-0.086 0.432,-0.208L0.54,-0.207C0.539,-0.136 0.539,-0.074 0.539,-0.061C0.539,0.054 0.653,0.055 0.707,0.055C0.843,0.055 0.91,0.019 0.91,-0.099C0.91,-0.144 0.876,-0.154 0.856,-0.154C0.832,-0.154 0.81,-0.14 0.81,-0.109C0.81,-0.05 0.779,-0.034 0.715,-0.034C0.666,-0.034 0.634,-0.038 0.632,-0.075C0.632,-0.088 0.632,-0.142 0.633,-0.206L0.82,-0.204L0.821,-0.204ZM0.24,-0.546C0.266,-0.546 0.292,-0.57 0.292,-0.598C0.292,-0.608 0.288,-0.619 0.279,-0.629C0.276,-0.632 0.193,-0.703 0.153,-0.703C0.125,-0.703 0.103,-0.681 0.103,-0.659C0.103,-0.648 0.109,-0.637 0.123,-0.629C0.139,-0.62 0.182,-0.591 0.21,-0.56C0.219,-0.55 0.229,-0.546 0.24,-0.546ZM0.365,-0.499C0.419,-0.549 0.464,-0.602 0.5,-0.651C0.54,-0.603 0.592,-0.549 0.648,-0.499L0.365,-0.499ZM0.438,-0.294C0.438,-0.302 0.437,-0.309 0.437,-0.317L0.437,-0.411L0.542,-0.411C0.541,-0.381 0.541,-0.339 0.541,-0.294L0.438,-0.294Z" style="fill:rgb(221,125,140);fill-rule:nonzero;"/>
                </g>
                <g transform="matrix(28.3949,0.0624263,-0.073858,23.9999,700.877,195.086)">
                    <path d="M0.859,-0.142C0.883,-0.142 0.894,-0.16 0.894,-0.178C0.894,-0.196 0.883,-0.214 0.859,-0.214L0.655,-0.213L0.655,-0.264L0.804,-0.263C0.827,-0.263 0.838,-0.28 0.838,-0.298C0.838,-0.315 0.827,-0.332 0.804,-0.332L0.654,-0.331L0.654,-0.376L0.849,-0.375C0.873,-0.375 0.884,-0.393 0.884,-0.411C0.884,-0.428 0.873,-0.446 0.849,-0.446L0.74,-0.446C0.746,-0.458 0.751,-0.469 0.755,-0.479C0.757,-0.483 0.757,-0.486 0.757,-0.49C0.757,-0.504 0.745,-0.516 0.73,-0.522L0.868,-0.521C0.892,-0.521 0.904,-0.539 0.904,-0.558C0.904,-0.576 0.892,-0.594 0.868,-0.594L0.654,-0.593L0.655,-0.646L0.813,-0.645C0.837,-0.645 0.849,-0.663 0.849,-0.681C0.849,-0.699 0.837,-0.717 0.813,-0.717L0.655,-0.716L0.655,-0.773C0.655,-0.799 0.633,-0.812 0.611,-0.812C0.588,-0.812 0.565,-0.799 0.565,-0.773L0.565,-0.716L0.417,-0.717C0.393,-0.717 0.381,-0.699 0.381,-0.681C0.381,-0.663 0.393,-0.645 0.417,-0.645L0.565,-0.646L0.565,-0.593L0.368,-0.594C0.344,-0.594 0.332,-0.576 0.332,-0.557C0.332,-0.539 0.344,-0.521 0.368,-0.521L0.487,-0.522C0.472,-0.518 0.461,-0.509 0.461,-0.497C0.461,-0.493 0.463,-0.488 0.466,-0.483C0.473,-0.473 0.481,-0.46 0.487,-0.446L0.386,-0.446C0.362,-0.446 0.35,-0.428 0.35,-0.41C0.35,-0.393 0.362,-0.375 0.386,-0.375L0.566,-0.376L0.565,-0.331L0.426,-0.332C0.403,-0.332 0.392,-0.315 0.392,-0.297C0.392,-0.28 0.403,-0.263 0.426,-0.263L0.565,-0.264L0.565,-0.213L0.379,-0.214C0.355,-0.214 0.343,-0.196 0.343,-0.178C0.343,-0.16 0.355,-0.142 0.379,-0.142L0.565,-0.143L0.565,-0.087C0.565,-0.061 0.588,-0.048 0.611,-0.048C0.633,-0.048 0.655,-0.061 0.655,-0.087L0.655,-0.143L0.859,-0.142ZM0.263,-0.577C0.29,-0.577 0.317,-0.604 0.317,-0.633C0.317,-0.684 0.192,-0.761 0.162,-0.761C0.135,-0.761 0.111,-0.738 0.111,-0.716C0.111,-0.704 0.117,-0.693 0.131,-0.685C0.159,-0.669 0.203,-0.638 0.229,-0.598C0.238,-0.583 0.251,-0.577 0.263,-0.577ZM0.258,-0.061C0.345,0.028 0.418,0.062 0.651,0.062C0.743,0.062 0.835,0.056 0.897,0.05C0.932,0.047 0.947,0.024 0.947,0.001C0.947,-0.023 0.93,-0.047 0.899,-0.047L0.894,-0.047C0.818,-0.041 0.709,-0.03 0.609,-0.03C0.47,-0.03 0.367,-0.051 0.304,-0.131C0.304,-0.195 0.306,-0.264 0.306,-0.322C0.306,-0.386 0.276,-0.414 0.212,-0.416C0.179,-0.417 0.151,-0.417 0.115,-0.417C0.088,-0.417 0.073,-0.394 0.073,-0.372C0.073,-0.33 0.109,-0.329 0.128,-0.329L0.167,-0.329C0.201,-0.329 0.213,-0.326 0.213,-0.3L0.213,-0.259C0.213,-0.221 0.212,-0.182 0.211,-0.137C0.177,-0.097 0.131,-0.063 0.077,-0.033C0.059,-0.023 0.052,-0.009 0.052,0.005C0.052,0.032 0.078,0.058 0.107,0.058C0.146,0.058 0.208,-0.005 0.258,-0.061ZM0.681,-0.522C0.675,-0.518 0.671,-0.513 0.67,-0.505C0.667,-0.486 0.658,-0.462 0.65,-0.445L0.58,-0.445C0.58,-0.447 0.579,-0.45 0.578,-0.452C0.571,-0.479 0.551,-0.512 0.527,-0.522L0.681,-0.522Z" style="fill:rgb(221,125,140);fill-rule:nonzero;"/>
                </g>
                <g transform="matrix(28.3493,1.36105,-1.61029,23.9614,729.307,195.164)">
                    <path d="M0.502,-0.089C0.505,0.037 0.561,0.042 0.728,0.042C0.848,0.042 0.901,0.019 0.903,-0.091C0.904,-0.172 0.905,-0.265 0.905,-0.358C0.905,-0.465 0.904,-0.571 0.902,-0.655C0.899,-0.767 0.815,-0.768 0.707,-0.768C0.572,-0.768 0.503,-0.764 0.502,-0.649C0.501,-0.569 0.5,-0.468 0.5,-0.367C0.5,-0.267 0.501,-0.167 0.502,-0.089ZM0.324,0.024C0.324,0.024 0.321,-0.211 0.32,-0.367C0.342,-0.348 0.367,-0.321 0.383,-0.3C0.392,-0.288 0.403,-0.283 0.414,-0.283C0.438,-0.283 0.462,-0.307 0.462,-0.333C0.462,-0.377 0.35,-0.448 0.33,-0.448C0.326,-0.448 0.323,-0.447 0.319,-0.446C0.319,-0.468 0.32,-0.492 0.32,-0.517L0.418,-0.515L0.419,-0.515C0.448,-0.515 0.462,-0.537 0.462,-0.559C0.462,-0.581 0.448,-0.603 0.418,-0.603L0.321,-0.603C0.322,-0.693 0.324,-0.772 0.324,-0.772L0.324,-0.773C0.324,-0.802 0.299,-0.817 0.275,-0.817C0.25,-0.817 0.226,-0.803 0.226,-0.773L0.226,-0.772L0.229,-0.603L0.115,-0.603C0.085,-0.603 0.07,-0.581 0.07,-0.559C0.07,-0.537 0.085,-0.515 0.114,-0.515L0.23,-0.517L0.23,-0.504C0.185,-0.411 0.111,-0.316 0.056,-0.265C0.045,-0.254 0.04,-0.243 0.04,-0.232C0.04,-0.207 0.064,-0.185 0.091,-0.185C0.104,-0.185 0.117,-0.19 0.129,-0.203C0.165,-0.243 0.199,-0.29 0.23,-0.341L0.226,0.024L0.226,0.025C0.226,0.053 0.25,0.067 0.275,0.067C0.299,0.067 0.324,0.053 0.324,0.025L0.324,0.024ZM0.589,-0.528C0.589,-0.66 0.59,-0.676 0.642,-0.679C0.661,-0.68 0.682,-0.681 0.703,-0.681C0.804,-0.681 0.809,-0.678 0.811,-0.619C0.812,-0.592 0.812,-0.561 0.813,-0.528L0.589,-0.528ZM0.814,-0.296L0.588,-0.296L0.588,-0.443L0.814,-0.443L0.814,-0.296ZM0.813,-0.211C0.812,-0.176 0.812,-0.142 0.811,-0.112C0.81,-0.069 0.807,-0.047 0.714,-0.047C0.607,-0.047 0.592,-0.052 0.591,-0.109C0.59,-0.139 0.589,-0.174 0.589,-0.211L0.813,-0.211Z" style="fill:rgb(221,125,140);fill-rule:nonzero;"/>
                </g>
                <g transform="matrix(28.2015,2.79662,-3.30875,23.8365,757.626,196.53)">
                    <path d="M0.702,-0.678C0.704,-0.698 0.705,-0.718 0.705,-0.739C0.705,-0.769 0.704,-0.809 0.661,-0.809C0.638,-0.809 0.614,-0.792 0.614,-0.762L0.614,-0.76C0.614,-0.749 0.615,-0.738 0.615,-0.728C0.615,-0.588 0.575,-0.479 0.432,-0.419C0.411,-0.41 0.403,-0.395 0.403,-0.38C0.403,-0.357 0.421,-0.335 0.447,-0.335C0.467,-0.335 0.608,-0.393 0.67,-0.545C0.729,-0.428 0.852,-0.343 0.904,-0.343C0.934,-0.343 0.953,-0.367 0.953,-0.391C0.953,-0.41 0.941,-0.428 0.916,-0.435C0.859,-0.45 0.8,-0.491 0.758,-0.544C0.891,-0.626 0.899,-0.667 0.899,-0.677C0.899,-0.704 0.874,-0.729 0.849,-0.729C0.838,-0.729 0.827,-0.724 0.819,-0.712C0.796,-0.68 0.755,-0.637 0.719,-0.611C0.71,-0.632 0.706,-0.653 0.703,-0.675L0.702,-0.678ZM0.49,-0.518C0.534,-0.518 0.547,-0.57 0.547,-0.65C0.547,-0.666 0.547,-0.682 0.546,-0.697C0.545,-0.718 0.523,-0.73 0.501,-0.73C0.482,-0.73 0.463,-0.72 0.463,-0.696C0.463,-0.648 0.463,-0.596 0.452,-0.571C0.449,-0.565 0.448,-0.559 0.448,-0.554C0.448,-0.532 0.469,-0.518 0.49,-0.518ZM0.337,-0.705C0.364,-0.705 0.378,-0.725 0.378,-0.745C0.378,-0.765 0.364,-0.785 0.337,-0.785L0.137,-0.785C0.11,-0.785 0.097,-0.765 0.097,-0.745C0.097,-0.725 0.11,-0.705 0.137,-0.705L0.337,-0.705ZM0.615,-0.379L0.615,-0.362C0.615,-0.21 0.573,-0.078 0.402,-0.023C0.379,-0.016 0.37,0.001 0.37,0.018C0.37,0.041 0.388,0.065 0.416,0.065C0.433,0.065 0.603,0.012 0.67,-0.163C0.737,-0.022 0.865,0.056 0.912,0.056C0.943,0.056 0.961,0.031 0.961,0.006C0.961,-0.013 0.95,-0.033 0.924,-0.04C0.864,-0.057 0.802,-0.104 0.758,-0.163C0.811,-0.197 0.883,-0.256 0.883,-0.289C0.883,-0.314 0.859,-0.338 0.836,-0.338C0.825,-0.338 0.815,-0.334 0.807,-0.322C0.787,-0.294 0.752,-0.256 0.72,-0.23C0.711,-0.252 0.705,-0.274 0.703,-0.297C0.703,-0.299 0.702,-0.301 0.702,-0.303C0.704,-0.328 0.706,-0.353 0.706,-0.379C0.706,-0.412 0.685,-0.427 0.663,-0.427C0.64,-0.427 0.615,-0.41 0.615,-0.379ZM0.375,-0.568C0.404,-0.568 0.418,-0.589 0.418,-0.609C0.418,-0.63 0.404,-0.65 0.375,-0.65L0.096,-0.65C0.067,-0.65 0.053,-0.629 0.053,-0.609C0.053,-0.588 0.067,-0.568 0.096,-0.568L0.375,-0.568ZM0.339,-0.438C0.366,-0.438 0.38,-0.458 0.38,-0.478C0.38,-0.498 0.366,-0.518 0.339,-0.518L0.139,-0.518C0.112,-0.518 0.099,-0.498 0.099,-0.478C0.099,-0.458 0.112,-0.438 0.139,-0.438L0.339,-0.438ZM0.481,-0.121C0.514,-0.121 0.538,-0.144 0.538,-0.254C0.538,-0.27 0.538,-0.286 0.537,-0.301C0.536,-0.322 0.514,-0.334 0.492,-0.334C0.473,-0.334 0.454,-0.324 0.454,-0.3C0.454,-0.252 0.454,-0.199 0.443,-0.174C0.44,-0.168 0.439,-0.162 0.439,-0.157C0.439,-0.135 0.46,-0.121 0.481,-0.121ZM0.339,-0.309C0.366,-0.309 0.38,-0.329 0.38,-0.349C0.38,-0.369 0.366,-0.389 0.339,-0.389L0.139,-0.389C0.112,-0.389 0.099,-0.369 0.099,-0.349C0.099,-0.329 0.112,-0.309 0.139,-0.309L0.339,-0.309ZM0.38,-0.037C0.381,-0.059 0.381,-0.085 0.381,-0.111C0.381,-0.137 0.381,-0.164 0.38,-0.187C0.379,-0.23 0.338,-0.256 0.3,-0.258C0.277,-0.259 0.25,-0.26 0.224,-0.26C0.202,-0.26 0.181,-0.259 0.162,-0.258C0.114,-0.255 0.09,-0.22 0.089,-0.182C0.089,-0.16 0.088,-0.136 0.088,-0.112C0.088,-0.087 0.089,-0.062 0.089,-0.036C0.09,0.008 0.118,0.04 0.163,0.043C0.183,0.044 0.206,0.045 0.229,0.045C0.252,0.045 0.276,0.044 0.297,0.043C0.347,0.04 0.379,0.008 0.38,-0.037ZM0.297,-0.058C0.296,-0.043 0.288,-0.033 0.231,-0.033C0.175,-0.033 0.171,-0.044 0.17,-0.057C0.17,-0.072 0.169,-0.091 0.169,-0.109C0.169,-0.185 0.169,-0.186 0.233,-0.186C0.276,-0.186 0.295,-0.183 0.297,-0.159C0.298,-0.145 0.298,-0.126 0.298,-0.108C0.298,-0.09 0.298,-0.072 0.297,-0.058Z" style="fill:rgb(221,125,140);fill-rule:nonzero;"/>
                </g>
                <g transform="matrix(27.9405,4.2765,-5.05963,23.6159,785.827,199.305)">
                    <path d="M0.682,-0.436C0.747,-0.436 0.81,-0.435 0.872,-0.433C0.942,-0.431 0.963,-0.531 0.869,-0.53C0.809,-0.53 0.745,-0.529 0.681,-0.528C0.681,-0.573 0.681,-0.617 0.682,-0.657C0.683,-0.734 0.578,-0.739 0.582,-0.656C0.583,-0.628 0.583,-0.579 0.583,-0.527C0.529,-0.526 0.476,-0.525 0.422,-0.524C0.421,-0.573 0.42,-0.618 0.418,-0.651C0.414,-0.723 0.316,-0.715 0.319,-0.647C0.321,-0.613 0.322,-0.569 0.323,-0.522C0.26,-0.521 0.197,-0.52 0.137,-0.518C0.068,-0.516 0.065,-0.421 0.143,-0.425C0.199,-0.428 0.261,-0.43 0.324,-0.432C0.324,-0.377 0.323,-0.325 0.321,-0.284C0.319,-0.251 0.345,-0.233 0.371,-0.233C0.397,-0.233 0.421,-0.251 0.422,-0.285C0.423,-0.324 0.423,-0.377 0.423,-0.434C0.476,-0.435 0.529,-0.436 0.583,-0.436L0.583,-0.413C0.583,-0.252 0.514,-0.125 0.359,-0.04C0.297,-0.006 0.337,0.086 0.417,0.04C0.601,-0.066 0.682,-0.226 0.682,-0.417L0.682,-0.436Z" style="fill:rgb(221,125,140);fill-rule:nonzero;"/>
                </g>
                <g transform="matrix(27.5302,5.87774,-6.95409,23.2691,813.801,203.563)">
                    <path d="M0.817,-0.33C0.851,-0.33 0.868,-0.355 0.868,-0.379C0.868,-0.404 0.851,-0.429 0.817,-0.429L0.189,-0.429C0.155,-0.429 0.136,-0.403 0.136,-0.378C0.136,-0.354 0.153,-0.33 0.189,-0.33L0.817,-0.33Z" style="fill:rgb(221,125,140);fill-rule:nonzero;"/>
                </g>
                <g transform="matrix(26.8179,7.88692,-9.33119,22.6671,841.392,209.305)">
                    <path d="M0.888,-0.602C0.922,-0.564 0.978,-0.627 0.938,-0.667C0.915,-0.69 0.864,-0.715 0.837,-0.724C0.79,-0.739 0.754,-0.679 0.805,-0.659C0.825,-0.651 0.874,-0.617 0.888,-0.602ZM0.796,-0.513C0.829,-0.474 0.887,-0.535 0.848,-0.577C0.826,-0.601 0.776,-0.628 0.749,-0.638C0.703,-0.655 0.663,-0.594 0.714,-0.573C0.734,-0.564 0.783,-0.529 0.796,-0.513ZM0.357,-0.309C0.471,-0.322 0.617,-0.368 0.712,-0.4C0.798,-0.43 0.748,-0.532 0.675,-0.5C0.6,-0.467 0.439,-0.422 0.36,-0.407C0.362,-0.481 0.364,-0.556 0.365,-0.61C0.366,-0.669 0.263,-0.683 0.263,-0.613C0.262,-0.494 0.255,-0.271 0.256,-0.171C0.257,-0.089 0.31,-0.032 0.398,-0.021C0.503,-0.008 0.656,-0.011 0.746,-0.035C0.844,-0.061 0.801,-0.169 0.725,-0.143C0.654,-0.118 0.492,-0.108 0.434,-0.116C0.374,-0.124 0.352,-0.148 0.354,-0.197C0.355,-0.225 0.356,-0.265 0.357,-0.309Z" style="fill:rgb(221,125,140);fill-rule:nonzero;"/>
                </g>
                <g transform="matrix(25.9444,9.75349,-11.5396,21.9287,868.29,217.098)">
                    <path d="M0.52,-0.249C0.602,-0.2 0.705,-0.109 0.754,-0.048C0.801,0.011 0.876,-0.067 0.836,-0.123C0.79,-0.187 0.663,-0.271 0.58,-0.321C0.621,-0.375 0.657,-0.432 0.691,-0.491C0.73,-0.559 0.679,-0.616 0.589,-0.616C0.488,-0.616 0.341,-0.614 0.268,-0.611C0.204,-0.608 0.208,-0.512 0.268,-0.514C0.356,-0.516 0.494,-0.521 0.557,-0.52C0.579,-0.52 0.583,-0.504 0.574,-0.487C0.495,-0.338 0.337,-0.178 0.155,-0.115C0.08,-0.089 0.114,0.009 0.187,-0.018C0.324,-0.07 0.432,-0.151 0.52,-0.249Z" style="fill:rgb(221,125,140);fill-rule:nonzero;"/>
                </g>
            </g>
        </g>
    </g>
</svg>
