<?xml version="1.0" encoding="UTF-8" standalone="no"?>
<!DOCTYPE svg PUBLIC "-//W3C//DTD SVG 1.1//EN" "http://www.w3.org/Graphics/SVG/1.1/DTD/svg11.dtd">
<svg width="100%" height="100%" viewBox="0 0 2986 846" version="1.1" xmlns="http://www.w3.org/2000/svg" xmlns:xlink="http://www.w3.org/1999/xlink" xml:space="preserve" xmlns:serif="http://www.serif.com/" style="fill-rule:evenodd;clip-rule:evenodd;stroke-linejoin:round;stroke-miterlimit:2;">
    <g transform="matrix(1,0,0,1,-4287.4,-6557.85)">
        <g transform="matrix(4.16667,0,0,4.16667,4026.08,5740.2)">
            <g transform="matrix(1,0,0,1,336.716,235.634)">
                <path d="M0,128.511C36.055,128.511 66.701,110.998 66.701,63.611C66.701,26.527 41.463,0.001 4.635,0.001L-22.663,0.001L-22.663,119.815C-22.663,124.617 -18.77,128.511 -13.966,128.511L0,128.511ZM-59.232,152.974L-59.232,-33.221L0,-33.221C58.46,-33.221 105.847,0.516 105.847,64.384C105.847,126.45 61.551,161.732 -6.18,161.732L-50.475,161.732C-55.312,161.732 -59.232,157.81 -59.232,152.974" style="fill:white;fill-rule:nonzero;"/>
            </g>
        </g>
        <g transform="matrix(4.16667,0,0,4.16667,4026.08,5740.2)">
            <g transform="matrix(1,0,0,1,527.858,235.634)">
                <path d="M0,128.511C36.055,128.511 66.701,110.998 66.701,63.611C66.701,26.527 41.463,0.001 4.635,0.001L-22.662,0.001L-22.662,119.815C-22.662,124.617 -18.769,128.511 -13.966,128.511L0,128.511ZM-59.232,152.974L-59.232,-33.221L0,-33.221C58.46,-33.221 105.846,0.516 105.846,64.384C105.846,126.45 61.551,161.732 -6.181,161.732L-50.475,161.732C-55.312,161.732 -59.232,157.81 -59.232,152.974" style="fill:white;fill-rule:nonzero;"/>
            </g>
        </g>
        <g transform="matrix(4.16667,0,0,4.16667,4026.08,5740.2)">
            <g transform="matrix(1,0,0,1,655.904,243.762)">
                <path d="M0,109.298C2.824,105.405 8.246,104.631 12.107,107.497C22.497,115.208 37.555,122.755 54.909,122.755C74.477,122.755 84.896,113.606 84.896,99.629C84.896,58.968 -0.489,65.322 -0.489,6.62C-0.489,-27.688 30.26,-45.984 62.279,-45.984C92.012,-45.984 113.105,-27.688 116.917,-23.622L99.381,3.316C89.471,-6.596 75.494,-13.711 62.533,-13.711C49.574,-13.711 37.122,-8.119 37.122,5.094C37.122,38.893 123.269,31.269 123.269,99.12C123.269,128.853 97.095,155.282 52.114,155.282C28.841,155.282 5.746,143.621 -7.221,133.412C-10.866,130.541 -11.64,125.341 -8.915,121.585L0,109.298Z" style="fill:white;fill-rule:nonzero;"/>
            </g>
        </g>
        <g transform="matrix(4.16667,0,0,4.16667,4026.08,5740.2)">
            <g transform="matrix(1,0,0,1,122.335,248.185)">
                <path d="M0,99.488L35.561,24.765L71.201,99.343L35.823,87.819L0,99.488ZM119.557,115.095L35.822,-51.95L-58.646,136.511C-62.194,143.591 -55.442,151.438 -47.912,148.986L30.291,123.51C33.887,122.34 37.761,122.34 41.355,123.51L119.508,148.969C127.057,151.428 133.825,143.561 130.268,136.464L119.557,115.095Z" style="fill:white;fill-rule:nonzero;"/>
            </g>
        </g>
    </g>
</svg>
